<svg id="Layer_1" data-name="Layer 1" xmlns="http://www.w3.org/2000/svg" viewBox="0 0 340.8 497.91"><defs><style>.cls-1,.cls-2{fill:#231f20;}.cls-1{fill-rule:evenodd;}.cls-3{fill:#fff;}</style></defs><title>Talking Tree</title><path class="cls-1" d="M377.42,591.36c2.83,2.35,4.65,1.67,6.72,4.32a40,40,0,0,1,5.52,10.08c1.59,4.38,2.16,15-4.85,16.2-4.33.74-9.29-6.21-11.23-10-1.75-3.38-1.68-6.73-.48-10.56,1.16-3.68,4.05-5.46,4.32-10.08C377.9,591.76,377.37,592.3,377.42,591.36Z" transform="translate(-227.51 -508.7)"/><path class="cls-1" d="M442.22,622.08c-4.52,0-5.77,2.78-9.6-1.44-1.85-2-1.87-3-2.4-5.52A18.09,18.09,0,0,1,435,598.8c3.4-3.48,5.12-6,8.16-1,1.24,2.07,1.92,4.46,3,6.24a15.87,15.87,0,0,1,1.56,2.4c0.74,2,.39,5.52,0,7.2-0.29,1.25-.49,2.64-1.2,3.36-2.09,2.15-4.32.42-4.32,5C441.74,622.08,442.22,619.94,442.22,622.08Z" transform="translate(-227.51 -508.7)"/><path class="cls-1" d="M410.54,606.48c0,1.3,2.28,3.43,3,4.65A17.5,17.5,0,0,1,416.3,623c-0.32,3.62-1.48,5-2.54,7.59-0.8,1.95-.62,2.49-2.74,3.93-2.54,1.72-4.3,5.06-7,2.88-1.17-1-.8-1.75-1.65-2.92-1.31-1.8-3.19-1.78-4-4.28-0.6-1.88-.37-3.09-0.12-5.52s1-3.26,1.44-4.8c0.9-3.37,2.24-4.57,4.32-7.44,1.67-2.31,3.56-5.59,6.48-6C410.54,606.64,409.52,606.62,410.54,606.48Z" transform="translate(-227.51 -508.7)"/><path class="cls-1" d="M496.7,607.68c2,0,3.85,12.41,3.9,14.19a13.89,13.89,0,0,1-2,7.65c-0.22.43-1.65,3.33-1.68,3.36l-1-.09q-2-.3-2.62,2c-0.5.27-.52-0.24-1,0A13.63,13.63,0,0,1,489,636a8.86,8.86,0,0,1-8.64-1.92c-2.47-2.53-5.37-5.16-4.56-9.12a15.24,15.24,0,0,1,4.8-8.64c3.18-3,5.58-3.81,9.12-5,1.5-.52,6.34-1.32,7-3.6C496.86,607.68,496.52,608.35,496.7,607.68Z" transform="translate(-227.51 -508.7)"/><path class="cls-1" d="M342.62,613c4.23,1.11,11.46,7.39,13,11.28a38.41,38.41,0,0,1,1.44,7.68c0.16,1.31.74,3.57,0.1,5.1-0.1.25-5.32,4.56-3.46,5.22-2.81,0-2.17.85-4.56-.24a17.6,17.6,0,0,1-7.32-6.72c-2.39-3.63-3.52-9.76-2.4-13.92,0.72-2.66,3.24-5.14,3.24-8.4C343.25,613.13,342.62,613.12,342.62,613Z" transform="translate(-227.51 -508.7)"/><path class="cls-1" d="M460.46,619.44c2.75,0,5.17,5.1,5.76,6.72a17.32,17.32,0,0,1,.84,9.36,18.83,18.83,0,0,1-3.48,7.2,16.58,16.58,0,0,1-2.64,2.76c-2,1.36-1.39-.07-3.84,1.32-1.27.72-.86,2.35-2.88,2.88-7.77,2-6.75-14.89-5.64-18.24A17.73,17.73,0,0,1,453,624c0.55-.6,1.8-2.23,2.76-2.64,1.5-.64,3.53-0.2,4.68-1.92C460.7,619.44,460.3,619.68,460.46,619.44Z" transform="translate(-227.51 -508.7)"/><path class="cls-1" d="M302.06,623.76c3.59,1.2,6.22,2.18,10.32,3.36a26.5,26.5,0,0,1,6.72,3.36c4,2.79,6.1,8.88,6.24,13.92,0.06,2,.23,8.57-2.88,8.88-1.76.18-4-2.93-5-3.6a35,35,0,0,0-5-2.64c-9.42-4.19-9.82-14.52-10.32-23.28C302.3,623.84,302.13,625,302.06,623.76Z" transform="translate(-227.51 -508.7)"/><path class="cls-1" d="M369,630.48c2.4,0,1.94-3.15,3.84-3.12s3.12,4.49,3.6,5.28c2.23,3.65,4.81,6.64,4.8,11.28,0,2.29,0,5.12-.79,7.44-1.7,4.73-6.64,7.75-11,5.23s-5.25-7.89-5.51-12.19a12,12,0,0,1,1.54-6.89c1.31-2,3.24-4.33,3.5-7C369.42,630.48,368.94,631.27,369,630.48Z" transform="translate(-227.51 -508.7)"/><path class="cls-1" d="M430.46,630c0,1.75,5.91,5.45,7,7.92a13,13,0,0,1,1,6.48c-0.32,4-1.73,4.41-3.36,7.68-1.55,3.1-2.46,5.54-6.72,7.08a8.45,8.45,0,0,1-3.93.53c-0.32-.06-2.42.24-2.79-0.17,0.19,0.21-1-4.49-1-4.42a25,25,0,0,1-.69-14.3,19.12,19.12,0,0,1,2.64-6.48c0.88-1.35,5-4.09,5-5.52,0.8,0,1.44,1.21,2.88,1.2C430.46,630.16,429.2,630,430.46,630Z" transform="translate(-227.51 -508.7)"/><path class="cls-1" d="M506.54,661.2c-1.11,0-2.73,2.58-3.6,3.12-1.11.69-5.5,1.75-4.32,3.6,1.13,0-4.13-.76-3.6-1,0,0.7-.24-0.44-0.24,1-2.12,0-6.2-2.48-6.62-5-0.31-1.84,1.35-1.68,1.58-3.12,0.28-1.75-.74-2.55-0.72-3.84,0.08-5.09,4.32-7.09,8.64-9.6,2.28-1.33,7.12-5.29,9.84-3.84,1,0.52,2.15,3.77,2.4,4.56a15,15,0,0,1,0,9.12c-0.7,1.8-2.88,3.3-3.36,5C506.38,661.2,506.75,660.45,506.54,661.2Z" transform="translate(-227.51 -508.7)"/><path class="cls-1" d="M477.74,673c-1.65.34-2.19,1.9-3.36,2.4a23.62,23.62,0,0,1-4.2.36c-0.6,0-2.48-.17-3.72-0.12-0.17-6.44-3.84-10.31-1.32-17a25.41,25.41,0,0,1,3-5c1-1.47,2-2.78,3.24-4.2,0.81-1,3.9-5.41,4.68-5.4,1.43,0,4.33,5.58,4.8,6.48a21.07,21.07,0,0,1,2.16,6,16.05,16.05,0,0,1,0,6.48c-0.62,3.85-4.14,6.66-5.28,10.08C476.55,673.21,477.82,672.72,477.74,673Z" transform="translate(-227.51 -508.7)"/><path class="cls-1" d="M402.62,649.2c0,2.9,6.51,6.3,7.68,8.88,0.9,2,.72,6.42.12,8.64-0.85,3.17-3.58,9.81-7.58,11-2.09.61-5.73-.78-7.51-1.74-9.25-5-1.89-29.83,7.29-26.77C402.62,649.36,402.38,649.12,402.62,649.2Z" transform="translate(-227.51 -508.7)"/><path class="cls-1" d="M285.74,656.64c1.45,4.63,5.9,10.89,1,13a12.14,12.14,0,0,1-10.32-.48,19,19,0,0,1-8.16-7.08c-1.35-2.22-1.08-4.55-1.32-7.32a22.72,22.72,0,0,0-1.56-5.28c4.57-.19,8.2,0,12,1.44a15.55,15.55,0,0,1,4.32,2.16c0.89,0.65,3,3.29,4.08,3.6C286.14,657.92,284.79,656.37,285.74,656.64Z" transform="translate(-227.51 -508.7)"/><path class="cls-1" d="M332.06,652.08c6.15-1.16,12.71-1.15,17.52,4.56,2.07,2.45,10.47,11.47,8.4,15.12-1.45,2.56-7.57,1.63-9.6,1.44a14.79,14.79,0,0,1-7-2.4c-3.35-2.28-5.15-5.13-6.72-8.64a8.42,8.42,0,0,1-1-3.84c-0.24-2.66-1-3.78-1.68-6.24C332.55,652,332.25,652.8,332.06,652.08Z" transform="translate(-227.51 -508.7)"/><path class="cls-1" d="M318.62,676.8c-7.48,1.68-11.81.14-16.85-5.94-1.77-2.14-4.91-6.15-5.23-8.22-0.55-3.52.15-6.76-1-10.08,1,0,3.63.91,4.32,1,1.21,0.08,2.35-.33,3.84-0.24,1.75,0.1,6.09,1.89,7.68,2.88,3.81,2.39,7.15,8,8.4,11.52a17.93,17.93,0,0,1,1,2.64c0.57,3.49-1.66,3.59-2.16,6.48C317.59,677,318.77,676,318.62,676.8Z" transform="translate(-227.51 -508.7)"/><path class="cls-1" d="M448.22,655.68c0.94,0,3.52,3.64,4.32,4.8a13.2,13.2,0,0,1,2.4,8.4,5.26,5.26,0,0,0-1,1.44c-0.21.94-.63,1.38-0.93,2.4a14.38,14.38,0,0,1-2.64,5.76c-4,5.27-14.81,8.46-17.52,2.4-2.26-5.06-.41-9.25,1.92-13.2,1.73-2.93,3.08-4.83,5.52-6.48,1.28-.87,2-1.53,3.12-2.16,0.66-.38,1.42-0.08,2.16-0.48s2.64-1.7,2.64-2.88C448.38,655.68,448.22,655.92,448.22,655.68Z" transform="translate(-227.51 -508.7)"/><path class="cls-1" d="M500.3,667.44c-0.73,0-.22-0.73,0,0C500.14,667.44,500.16,667,500.3,667.44Z" transform="translate(-227.51 -508.7)"/><path class="cls-1" d="M368.78,671.52c6.44,4.6,10.86,11,12.24,17.76,1,5.12,2.62,12.75-3.35,14.76s-9.39-.19-11.53-5.4c-1.36-3.29-4-6.45-5-10.08,0.36,0.18,2.69-8.46,3.6-10.08,1.31-2.34,3.39-4.21,4.08-7C369.34,671.92,368.7,671.84,368.78,671.52Z" transform="translate(-227.51 -508.7)"/><path class="cls-1" d="M490.46,672.48c4.65,0,7.08,7.64,7.2,10.8a21,21,0,0,1-.24,4.64,11.88,11.88,0,0,1-1.2,2.56c-0.47,1.84-.38,4-1.68,6,2.4-3.68-4.37,5.49-1.44,1.68a12.38,12.38,0,0,0-1,1,13.37,13.37,0,0,1-2.4,2.88,10,10,0,0,1-5.28,1.2c-2.61,0-3.06-.92-4-2.4-1.18-1.95-2.59-7.1-1.8-9.6a58.65,58.65,0,0,1,2.28-5.52,57.46,57.46,0,0,1,3.48-7c1.51-2.4,5-2.68,6-6.24C490.78,672.48,490.27,673.18,490.46,672.48Z" transform="translate(-227.51 -508.7)"/><path class="cls-1" d="M514.46,699.6s-3.38-1.93-3.84-2.16c-1-.48-2-1.13-3.12-1.56-1.31-.51-3-1-3.84-2.52,3.77-.75,3.12-4.66,3.12-6.72,1.08,0,.93.37,1.44-0.72s-0.81.22,0.71-2.19a21.09,21.09,0,0,1,2.77-3.09c2.25-2.41,4.35-5.13,7-6.84s12.77-2.64,13.56,1.8c0.22,1.21-1.9,6.93-2.4,8.16a31.76,31.76,0,0,1-2.88,5.76,20.42,20.42,0,0,1-6,5.4c-1.86,1.1-5.87,2.25-6.48,4.68C514.3,699.6,514.54,699.28,514.46,699.6Z" transform="translate(-227.51 -508.7)"/><path class="cls-1" d="M423.74,677.28c-0.17,3.91.7,7.23-.84,11.28-1.47,3.88-5.2,8.46-8.52,11.76a8.83,8.83,0,0,1-3.12,2.16c-1.42.35-3.42,0-4.56,0.24-0.52.11-1.34,0.92-1.68,1-2.06.22-5.1-.84-6-2.28-1-1.63,1.43-6-1.68-6.12,0-.34.92-1.65,1-1.2,0.1,1.23.78-2.33,0.53-1.77,0.46-1.06.78-2.8,1.39-4,1.48-2.88,4.36-5.57,7.32-7.68a23.82,23.82,0,0,1,7.21-3.86c1.4-.44,3.05-1.43,5.21-1.06,1.49,0.25,2.44,1.37,3.78,1.56C423.71,677.91,422.15,677.05,423.74,677.28Z" transform="translate(-227.51 -508.7)"/><path class="cls-1" d="M469.58,676.32c0.4,0.4,0,.88,0,0C469.85,676.59,469.58,676.48,469.58,676.32Z" transform="translate(-227.51 -508.7)"/><path class="cls-1" d="M322.94,678.72c3.72,0,9.52,0,13.47,1.88a24.44,24.44,0,0,1,5,3.4c2.37,2.11,2.28,3.87,3.6,6.48s2.44,4.55.72,7.68c-1.24,2.27-4.06,5.27-6.49,5.88-5.92,1.5-11.47-5.53-13.19-9.72-1.09-2.67-.9-5.26-1-7.68-0.05-2.06-2.63-6.4-2.16-7.92C323.42,678.72,322.59,679.87,322.94,678.72Z" transform="translate(-227.51 -508.7)"/><path class="cls-1" d="M453.5,680.64c7,1.68,7.76,10.4,5.76,14.76-1.37,3-6.41,9.06-9.12,10.68,0-2.4-4.22-1.56-5-2.14a7.1,7.1,0,0,1-1.41-2.66c-1-3-.09-4.87,1.08-7.44a25.18,25.18,0,0,1,2.4-4.56c1.68-2.28,6.1-5.39,6.24-8.64C454.35,680.85,453.43,682.33,453.5,680.64Z" transform="translate(-227.51 -508.7)"/><path class="cls-1" d="M429,687.12c5.23,1.16,11.31,3.9,11,10.8a31.38,31.38,0,0,1-2.76,11.52c-2.38,4.54-7.69,10.32-12.6,5a22.65,22.65,0,0,1-3.6-6,10.61,10.61,0,0,1,1.2-10.8c1.9-2.81,5.89-6.39,6.72-10.56C429.74,687.28,428.69,688.8,429,687.12Z" transform="translate(-227.51 -508.7)"/><path class="cls-1" d="M268.94,690c3,0.1,5.92-1,9.36-.72,4,0.29,6.93,1.47,10.32,2.88,1.48,0.62,4.22,1.37,5.76,2.64,2.68,2.22,4.09,5.75,3.12,8.88-0.33,1.07-1.11,4.36-1.82,5.33-3.6,5-12,2-15.94-1.73-2.24-2.11-5.22-4.6-6.72-7.2-0.8-1.38-.5-3.2-1.2-5-0.5-1.33-2.47-3.16-2.88-5C269.45,690,269.13,690.85,268.94,690Z" transform="translate(-227.51 -508.7)"/><path class="cls-1" d="M307.34,692.4a57,57,0,0,1,10.32,2.16,14.46,14.46,0,0,1,7.32,4.92c2.56,3.34,7,7.36,4.92,11.88-1.11,2.4-2.2,2.87-4.8,3.84a13.6,13.6,0,0,1-13.8-2.64c-5.28-5-2.67-12.11-6.6-18a2.89,2.89,0,0,0,2.64-2.16C308.62,692.52,306.84,693.65,307.34,692.4Z" transform="translate(-227.51 -508.7)"/><path class="cls-1" d="M462.62,730.32c-2.7-.6-4.51-3.63-5.64-6a22,22,0,0,1-1.8-10.32,23.48,23.48,0,0,1,6.24-13.68c0.5-.52,3.5-4.29,4.38-4.24,1.35,0.06,4,4.75,4.86,5.92,3.25,4.66,4.08,11.77,3.09,17.53a10.06,10.06,0,0,1-3.45,6.59,32.55,32.55,0,0,1-3.13,2.68,6.81,6.81,0,0,1-3.11.8c-0.63.24-1.68-1.68-1.44,0.72C462.19,730.23,462.56,729.75,462.62,730.32Z" transform="translate(-227.51 -508.7)"/><path class="cls-1" d="M501.5,721.68c-1.2,0-3.28,3.17-4.08,3.84a18.09,18.09,0,0,1-6,3.24c-6.42,1.51-10.28-3.92-9.12-9.72a17.54,17.54,0,0,1,4.32-8.64,27.3,27.3,0,0,1,7.08-5.52c1.84-1.07,5.82-1.95,7.08-3.84,2.88,2.58,3.19,6.7,3.18,10.68,0,3.81-1.56,6.62-2.46,10C501.34,721.68,501.65,721.13,501.5,721.68Z" transform="translate(-227.51 -508.7)"/><path class="cls-1" d="M367.1,710.88c0,0.51,2.54,3.84,3,4.8a23.81,23.81,0,0,1,1.56,3.36,7.06,7.06,0,0,1-1.44,7.44c-1.83,1.89-2.93,1-5.28.72-5.34-.63-9.22-1.91-12.24-6.24-3.25-4.67-2.13-9.14-5.28-13.92,1.67-.37,1.36-4.24,1.2-5.52,3.77-1.42,7.57,2.16,10.08,3.6,1,0.58,1.84.86,3.12,1.56,1.62,0.89,3.8,3.72,5.28,4.2C367.1,711,366,710.51,367.1,710.88Z" transform="translate(-227.51 -508.7)"/><path class="cls-1" d="M390.62,737.52c0.44-2.2-2.73-2.91-4.08-4.32a9,9,0,0,1-2.4-3.12c-1.71-4.54-.68-10.22.48-14.4,1.31-4.71,5.16-15,12.24-9.6,3.29,2.49,4.47,9.57,4.56,13.2,0.15,6-.73,8.37-3.84,13.44-2.41,3.94-2.43,3.67-7,4.8C390.7,737.12,390.94,737.44,390.62,737.52Z" transform="translate(-227.51 -508.7)"/><path class="cls-1" d="M452.78,735.36c-2.5.83-3.83,0.29-3.12,3.84-0.41,0-.39-0.56-1-0.72-1.3,2.46-.7,3.34-4.32,3.12a2.93,2.93,0,0,1-1.44-.24c-1.86-.86-3.32-4.32-4.08-6-2.7-5.93.21-12,1.92-17.16,0.81-2.45.63-4.62,4.08-3.12A24.77,24.77,0,0,1,450,718.5a18.58,18.58,0,0,1,4.8,7.26c1,3.77-2.46,6.23-2,9.6C452.54,735.44,452.7,734.72,452.78,735.36Z" transform="translate(-227.51 -508.7)"/><path class="cls-1" d="M532.22,722.88c-0.1,1.78,1,3.55-.24,4.8,2-2-3.92,1.59-3.12,1.2-0.51.25-.56,1-1,1.2-2.9,1.83-6,4-8.64,4.8-5,1.51-13.42,3-17.76-1.44-4.14-4.24-1.8-6.3,1.2-9.84,2.31-2.73,5.67-4.74,8.88-6.48,3.73-2,8.49-2.94,13.2-.48,2.94,1.54,4.14,5.14,7.44,6.24C532.2,723.29,532,722.8,532.22,722.88Z" transform="translate(-227.51 -508.7)"/><path class="cls-1" d="M404.3,745.92c-1.06-4.71-2.07-7.31-.48-11a29.16,29.16,0,0,1,4.32-6.24c3.92-4.9,7.73-9.22,13.68-10.2,7.22-1.19,4.46,4.44,4.56,8a25.18,25.18,0,0,1-1,8.64c-0.46,1.35-3,3.8-3.6,5-1.08,2.39-1.7,3.55-4.32,4.8a65.14,65.14,0,0,1-6.24,2.4,17.64,17.64,0,0,1-3.6,1c-2.5-.67-0.88-2.4-3.36-2.4C403.95,744.36,404.62,745.92,404.3,745.92Z" transform="translate(-227.51 -508.7)"/><path class="cls-1" d="M347.42,748.56c1.12,0-3.74,2.36-3.84,2.4-0.87.36-1.6,1.08-3,.88a12.37,12.37,0,0,1-5.42-2.56c-3.82-3.5-4.46-10.71-3.6-15.6,0.54-3,0-6.91,2.4-9.12,0.09-.08.38-1.14,0.48-1.2,1.16-.71,4.89.68,6.24,1.44a19.37,19.37,0,0,1,4.2,4.08c4.6,5.33,4.07,12.65,2.52,19.68C347.26,748.56,347.57,747.89,347.42,748.56Z" transform="translate(-227.51 -508.7)"/><path class="cls-1" d="M299.18,723.6c10.42-.18,15.24,2.29,20.4,9.84,1.75,2.55,2.12,4.7,2.4,7.68,0.38,4.08-.71,7.86-5.39,6.69-4-1-9.77-4.78-12.13-8.37-3.19-4.87-3.46-10.37-5.28-15.84C302.72,723.54,299.34,724.08,299.18,723.6Z" transform="translate(-227.51 -508.7)"/><path class="cls-1" d="M506.78,744c-1.36,5.23-9.44,8.14-13.2,8.64A31.81,31.81,0,0,1,483,752a12.24,12.24,0,0,1-1.2-.6c-0.88-.18-0.9-0.5-1.8-0.72-2.13-.53.4,1.16-1.59,0.35-3.43-1.4-4.74-4.29-7.17-5.87-0.83-.54-3.36-1.58-3.12-3.12,0,0.26,4.64-3.56,4.8-3.6,0,0.38,0,1,.48,1,0-3.46,6.23-4.79,8.88-4.8,3.77,0,6.67,1.43,9.6,2.16a31.77,31.77,0,0,1,8.4,2.88c2.24,1.22,3,3.62,6.48,4.32C506.5,745.08,506.38,743.92,506.78,744Z" transform="translate(-227.51 -508.7)"/><path class="cls-1" d="M285,734.64c7.09-.14,13.65,2.59,17,6.68,2.51,3.08,1.48,3.14,1.18,6.51-0.08.89,0.61,2.44,0.07,3.38-1.51,2.61-3.14.73-5,1.44-3.19,1.18-6.33,1.05-10.8-.24a12.66,12.66,0,0,1-6.24-4c-2-2.29-3.28-5-4.56-6.84-1.16-1.64-3.8-2.55-2.58-4.2,0.25-.34,2.94-0.81,3.06-0.84,1.91-.46,6.42-0.5,7.92-1.92C288.19,734.58,284.3,735.32,285,734.64Z" transform="translate(-227.51 -508.7)"/><path class="cls-1" d="M462.62,739.44c0.85,4.24-3.26,4.72-4.32,8.4,1,0,3.34,1.29,4.08,1.44,1.39,0.29,3.46.24,5.28,0.72,3.44,0.9,6,4.75,8,7.44,1.2,1.61,5.41,11.28,6.6,11.28-0.27.8-3,1.81-.24,2.4-4.44,4.44-12.13,1.31-16.92-1-6.36-3-5.29-10-7.8-15.12-2.82-5.73-3.77-.77-6,2.16-3.1,4.06-6.37,9.13-10.56,12.36-1.67,1.29-4.15,2.27-6.14,3.78s-3.43,3.21-5.14,4.62c-2.32,1.91-9.27,3.68-10.08,7.56-3.1-3.1-3.42,5.65-3.6,7.2-0.44,3.78,0,10.14-.24,13.32a71.34,71.34,0,0,0,1.2,16.44c0.87,4,.47,6.23,3.84,5.28,2.58-.73,5.23-2.25,7.8-3.12,0.61-.21,1-1,1.56-1.2s0.7,0.56,1.68.24c0.75-.24,2.05-0.93,2.88-1.2,2.87-1,5.4-5.27,3.12-8.88-1.72-2.73-7.52-.79-10.32-1.44-1.82-.42-11.42-5-5.76-6.24,0-1-4.18-4-.48-3.36,0-1.61-.93-3.51-1-5.28,1.13,0,2.07,1,2.88,1.44,3.61,2.12,3.91,3.54,8.88,4.32-0.7-3.4-3.25-5.19-3.84-8.16-0.84-4.27-.65-8.8-1-14.4,0.65,0,1.92,2,1.92,0,2.22,0,3.55,1.18,5.76,1.92a6.29,6.29,0,0,1,1-1.92,4.59,4.59,0,0,0,2.88,1.68c-0.74,4.43-3.3,9.14-2.76,14,0.45,4.09,1,3.66,4.44,3a23.85,23.85,0,0,1,8.4,0c2.15,0.47,4.83,1.68,6.06.8,2.47-1.77,2.37-4.48,6.42-3.44,1.77,0.45,3.14,1.53,4.68,1.92,0.88,0.22,5.31-1,4,1.8-0.24.5-2.61-.08-3.68,0.94-3.68,3.48,4.23,4.46,3.44,7.58-2.57-.68-4.17-2.56-6.48-2.88-4-.56-6.3,3-9.12,4.56-2,1.1-5.45,1-7.44,2.64-1.08.9-2.65,6.24-3.84,6.24,0.13-.27,16.24.28,17.52,0.72,2.12,0.73,3.75,2.58,6.24,3.12,1.13,0.25,3.41-.44,4.56.36s1.27,2.4,1.44,2.52c1.3,0.92,2.33.1,3.84-.12,6.29-.9,11.7,1.15,14.82,7.12,1.13,2.16,3.55,6.59,1.63,8.84-2.64,3.08-8,1.71-10.93.72-4.1-1.38-7.28-6.17-11.28-9.36-1.26-1-3-.43-3.6-2.4a2.32,2.32,0,0,1,1.2-.72c0.11-.85.56-2.29,0.54-2.72-0.08-1.55,1.47-.37-0.78-0.88-2.91-.66-7.33-0.47-10.08-0.36-1.27.05-6.9,0.54-7,1.92,0,0.42,4.46,4.06,5.16,4.68,4.48,3.92,13.75,11.87,9.72,18.48-3.93,6.45-12.56-.48-14.4-4.8a18.76,18.76,0,0,1-1.68-6c-0.22-2.85.83-7.1,0.15-9.42-1.3-4.44-4.25-1.73-7-.42A33.1,33.1,0,0,0,437.3,834c-5.26,4-9.89,9-14.52,14.4-8.58,10-3.81,23.22-6.42,35.52-0.47,2.22-2,4.26-2.57,6.68-0.79,3.49-.05,8.8.11,11.8,0.39,7.29-.71,16.25-0.72,23.52,0,4.68-.73,8.69-0.72,12.48,0,3.47.72,8.64,1,12.24A117.15,117.15,0,0,0,416.9,971c1.13,4.36,3.16,10.84,4.8,15.12,2,5.23,2.78,9.17,5.64,13.92a8.24,8.24,0,0,1,1.61,3.41c0.16,1.87-2.85-1.77-1.13,2.11a9.3,9.3,0,0,0-1.39,1s-2.52-.26-2.69-0.29c-0.66-.12-2.15-1.24-2.88-1.44-2.58-.7-3.19.46-5.13-0.15-1.46-.46-2.87-2.6-4.11-3.33-2.41-1.41-2-.51-4.08.36-0.38.16-4.07-.28-4.54,0.14-1,.94,1.32,3-2.06,3.22,0-1.77-3.73-1.3-2.4,1.44-2.35-.34-2.63.19-4.8-1.2-0.63-.4-2.26-2.74-2.88-2.88-1.22-.28-2.56,1.7-4.22,1.33-1-.23-2.3-2.29-3.06-2.78-1.49-.95-1.93-0.77-4,0.13-1.8.78-2.93,2-4.8,2.28-2.09.35-5.76-1.27-5.76,2.64-4.62,0-8.37.33-12-4.08,7.14-.41,7.11-7.77,8.4-11.64,2.19-6.54,5.29-14.85,7.44-20.52,2.82-7.45,3.64-16,4.59-25.39,1.09-10.82,1.3-20.28,1.65-31.73,0.24-8,1.06-15.66,1-23.16-0.12-9.26,2.27-18.07,2.16-27.24-0.1-7.94.2-14.49-3.24-20.4a52.69,52.69,0,0,0-3.48-5.76c-2.38-3.05-6.29-5-8.88-7.2-5.31-4.6-11.12-9.27-17-10.92a35.31,35.31,0,0,0-11-1.31c-4.68.15-8.23,0-11.28-4.09A86.37,86.37,0,0,0,337.34,811c3-.57,5.14.05,5.52-3.36a12.16,12.16,0,0,1-8-9.6c-0.25-1.88-.75-5.38-0.12-7.2,0.51-1.48,2.41-.64,1.44-2.64,5.42,0,11.11,4.2,12.48,8.64,0.51,1.65,2.29,10.32-1.68,10.32,0.68,2.05,6,2.73,7.92,3.12,1.49,0.3,3.49.93,5.16,1.44,4.21,1.28,9,4.37,13.08,6.48,1.52,0.78,6.09,5.1,7.09,4.1,0.56-.55.57-6.14,0.59-6.74A31.48,31.48,0,0,1,381,810a1.88,1.88,0,0,0,1.44,1,4,4,0,0,0-.48-2.4,2.47,2.47,0,0,0-1,.48c0-.91-0.24,1.12-0.24-1.44a2.47,2.47,0,0,1,1,.48c0-8.64.79-15.81-5-22.44a22.06,22.06,0,0,0-5.28-4.2,23.84,23.84,0,0,0-2.71-1.61c-0.77-.32-1.47.24-2.09-0.07-2.19-1.1-5.9-4.45-8.88-4.32,0-3-3.22-6.93-4.32-9.12s-3.29-4.29-3.84-6.48c3,0.48,4.12.09,6.24,1,2.75,1.13,6,1.73,8.4,3.12,3.54,2,7,4.06,10.56,6.24,3.24,2,9,6.28,13.2,4.92,5.88-1.91,2.17-14.2,1-18.36-0.44-1.52-1.69-4-2.16-5.76-0.42-1.54-2.71-6.48-1.8-7.8,1.12-1.63,1.74.79,2.76,1.08,3.1,0.88,1.23-.37,2.85-0.68,2.42-.46,3.55-0.33,6,1.16s4.88,1.31,6.84,3.84c1.54,2,1.43,5.72,2.28,7.68a42,42,0,0,0,3.6,6.36c4,5.73,8.94,6.66,14.88,2.76,7.15-4.69,12.35-10.81,19.44-15.84,2.58-1.83,5.54-6.28,8.64-7.2,0.9-.27,8.88-0.13,8.88-3.12-0.3.05,3.43,0.24,1.44,0.24C462.78,740.24,462.22,739.44,462.62,739.44Z" transform="translate(-227.51 -508.7)"/><path class="cls-1" d="M380.78,757c-4.4,0-6.94,3.42-12.48,2.64-1.79-.25-3.48-1.58-5-2.4a14.48,14.48,0,0,1-4.32-2.88c-0.74-.84-4.31-8.64-3.84-8.64,0.17-1.45.74-1.7,0.72-3.84,2.72,0.14,4.37-1.21,6.72-1.44a26.23,26.23,0,0,1,10.68,1.2c6.52,2.34,7.56,10,7.56,15.36C380.3,757,380.78,756.48,380.78,757Z" transform="translate(-227.51 -508.7)"/><path class="cls-1" d="M327.26,761.28a15.88,15.88,0,0,1-8.88,12.6,23.44,23.44,0,0,1-6.22,2,15.24,15.24,0,0,1-4.22-.54c-2-.47-3.94-1.88-6.12-1.32-1.76-7,3.16-10.94,8.64-13.2a18.67,18.67,0,0,1,4.08-1.44c1.75-.29,4.87-1.11,7.2-0.72,1.77,0.3,3.1,2.15,5.52,2.64C327.18,762.08,326.29,761.08,327.26,761.28Z" transform="translate(-227.51 -508.7)"/><path class="cls-1" d="M348.14,763.44c1.86,12.15-7.27,21.09-19.73,19.19-3.48-.53-3.79-4.93-2.25-8.47s3.62-4.34,6-6.17a27.82,27.82,0,0,1,7.08-4.32c3.48-1.33,4.09-.83,8.88-0.24C348.22,764,346.32,763.22,348.14,763.44Z" transform="translate(-227.51 -508.7)"/><path class="cls-1" d="M490.7,773.52c0.61,1.84,3.75.5,4.62,1.75,2.24,3.21-3.95.33-4.62,0.89-3.54,3,2.94,7.2,5,7.2,0,1-1.68.17-2.37,0.17-2.9,0-2.91-1.57-4.11,1.27-0.86,2,.91,6.51,0,8.4-1.12,2.32-5.22,4.08-7.44,1.2-2.37-3.09,1.23-5.29,3.6-6.48a2.25,2.25,0,0,0,1.44,1.44c0-4.36,1.7-9,1.2-13.68a18.09,18.09,0,0,1-.48-3.6c1.16-1.47,2,1.19,3.12,1.44C490.78,773.76,490.11,773.39,490.7,773.52Z" transform="translate(-227.51 -508.7)"/><path class="cls-1" d="M518.78,783.84c0,3.59,6.2,2.27,7,4.56-2.47,0-7-1.26-5.61,3.07,0.59,1.8.26,1.85,2,2.45,0.56,0.19,5.33-1.08,3.6,1.2-3.15,4.15-5.33-4.52-5.84,3-0.18,2.63.2,7.51-2.08,9-3.22,2.16-4.37-1.76-4.08-4.08,0.08-.66,3.36-5.36,3.36-3.84,1.91-.64.43-11.48,0.6-13,0.22-1.89-1-2.4,1.08-2.4C518.78,784,518.62,783.84,518.78,783.84Z" transform="translate(-227.51 -508.7)"/><path class="cls-1" d="M504.38,789.12c0,3.38,5.76,3.1,5.76,5.76-0.88.36-4.15-.38-4.56,0-1.09,1-.9,4.37-1,5.52-0.16,3.12-.16,8.72-2.72,11.08-2.39,2.19-5.17,1.18-6.26-1.94-0.77-2.22-.05-4.47,2.14-5.05,1.86-.5,1.88,1,4.2,1.68,0-6,2.6-12.5.48-18.24a1.82,1.82,0,0,1,1.92,1.2C504.38,789.28,503.66,788.94,504.38,789.12Z" transform="translate(-227.51 -508.7)"/><path class="cls-1" d="M314.3,801.12c-0.68-2-2.63-3.64-3.6-5.76-2.52-5.52.47-5.38,4.56-5.28,5.69,0.14,9.09,1.48,13.14,4.92,2,1.67,4.15,5.59,3.36,8.28-0.57,2-5.81,2.5-8,2.64s-2.19.13-4.44-1.32c-1.65-1.06-3.16-3-5-3.48C314.22,800.88,314.83,801.27,314.3,801.12Z" transform="translate(-227.51 -508.7)"/><path class="cls-1" d="M340.7,809.28q-0.72-.08-0.24-0.72,0.6-.12.24,0.72C340,809,340.7,809,340.7,809.28Z" transform="translate(-227.51 -508.7)"/><path class="cls-1" d="M490.7,813.12c0.24,2.27,1,1.85.14,4a7.82,7.82,0,0,1-4.7,4.41c-3.71,1.4-7.77.82-11.16,0.6-3.7-.24-7.27-1.55-9.48-4.92,1,0,2-1.6,2.64-2.16a23.3,23.3,0,0,1,6.72-4.32c1.48-.62,2.47-1.47,4.14-1.74a10,10,0,0,1,5.94.78c1.59,0.76,3.29,2.88,5.76,3.36C490.84,814.42,489,812.8,490.7,813.12Z" transform="translate(-227.51 -508.7)"/><path class="cls-1" d="M320.3,811.2c0.12,1.63,1.64,1.8,1.92,3.12s-0.55,3.14-.72,3.84c-0.8,3.22-1.74,4.28-4.32,5.76-4.16,2.39-8,3.2-13.76,3.07-4.51-.1-2.62-1.47-1.12-4.27,1-1.82,1.41-3.83,2.88-5.64a26.94,26.94,0,0,1,4.56-4c1.88-1.5,3.65-3.45,6.48-3.12a7.88,7.88,0,0,0,1.92,1.44,3.66,3.66,0,0,0,2.16-.24C320.39,812.4,320,811.28,320.3,811.2Z" transform="translate(-227.51 -508.7)"/><path class="cls-1" d="M496.7,810.48c-0.14.29-.17,1,0.48,0.72,0-.57.39-0.46-0.48-0.72C496.62,810.64,497.18,810.62,496.7,810.48Z" transform="translate(-227.51 -508.7)"/><path class="cls-1" d="M442,812.88c0,1.46-2.95,5.21-3.36,7.68,3.65,1.38,6.64-5.77,3.36-7.68C442,813,442.63,813.26,442,812.88Z" transform="translate(-227.51 -508.7)"/><path class="cls-1" d="M321.74,843.12c-1.69-8.47,2.67-26,15.24-22.08,2,0.62,4.53,4,4.44,6.48-0.14,3.74-2.73,6-5,7.92-5.9,4.82-8,5.92-14.64,7.68C321.66,842.72,322.3,843,321.74,843.12Z" transform="translate(-227.51 -508.7)"/><path class="cls-1" d="M380.54,887.28c-0.42,1.12-.3,1.42.72,1.68,0-.88.77-0.94-0.72-1.68C380.39,887.67,380.86,887.44,380.54,887.28Z" transform="translate(-227.51 -508.7)"/><path class="cls-2" d="M253.18,552.26q3.66-5.09,7.31-10t7.06-9.26q3.41-4.36,6.47-8t5.45-6.11a35.4,35.4,0,0,1,4-3.69q1.59-1.19,2.13-.72a10.62,10.62,0,0,1,1.2,1.27,5.71,5.71,0,0,1,.87,1.46,3.27,3.27,0,0,1,.22,1.56,2.68,2.68,0,0,1-.72,1.53l-1.68,1.84-3.18,3.47q-1.9,2.09-4.2,4.66t-4.77,5.43q-2.47,2.86-4.87,5.82t-4.5,5.76q-1.93,2.62-3.73,5.08l-3.49,4.81a66.94,66.94,0,0,1,2.28,6.54q1.15,3.84,2.37,8.39t2.46,9.55q1.24,5,2.52,10t2.65,9.64q1.37,4.68,2.81,8.62a56.67,56.67,0,0,0,3,6.88,15.57,15.57,0,0,0,3.16,4.39q0.45,0.4,1,.9a6.7,6.7,0,0,1,.87,1,2.44,2.44,0,0,1,.42,1,1.15,1.15,0,0,1-.33,1,3.19,3.19,0,0,1-1.77,1,6.39,6.39,0,0,1-2.36,0,9.81,9.81,0,0,1-2.6-.83,10.36,10.36,0,0,1-2.5-1.66,14.42,14.42,0,0,1-3-4,44.43,44.43,0,0,1-2.57-6q-1.19-3.35-2.22-7.33t-2-8.26a16.58,16.58,0,0,0-4.28-2.86,27,27,0,0,0-5.31-1.84,31,31,0,0,0-5.76-.8,26.13,26.13,0,0,0-5.65.34,20.65,20.65,0,0,0-5,1.52,11.29,11.29,0,0,0-3.82,2.75A2.07,2.07,0,0,1,230,598a3.24,3.24,0,0,1-1,.14,2.62,2.62,0,0,1-1-.37q-1.07-1,.31-4.67a72.56,72.56,0,0,1,4.44-9.26q3.06-5.55,7.46-12.37t9.34-14a4.49,4.49,0,0,1-.18-2,6.68,6.68,0,0,1,.56-2.11,2.82,2.82,0,0,1,1.26-1.37A2.08,2.08,0,0,1,253.18,552.26Zm6.94,42.06-1.79-9q-0.89-4.49-1.79-8.63T254.73,569a53.38,53.38,0,0,0-2-6.14q-6.4,9.25-10.71,16.1t-6.9,11.29a18.63,18.63,0,0,1,6.18-1.2,29.87,29.87,0,0,1,6.7.55,37.76,37.76,0,0,1,6.48,1.88A32.92,32.92,0,0,1,260.12,594.32Z" transform="translate(-227.51 -508.7)"/><path class="cls-2" d="M303.68,555.71a1.06,1.06,0,0,1,.24-0.8,1.18,1.18,0,0,1,.56-0.36,0.57,0.57,0,0,1,.54.15,0.93,0.93,0,0,1,.29.65q0.08,1.85.21,5.11t0.17,7.09q0,3.83-.08,7.94t-0.51,7.63a39.5,39.5,0,0,1-1.13,6.17,6.89,6.89,0,0,1-2,3.61,4.06,4.06,0,0,1-2.91,1.11,4.53,4.53,0,0,1-2.25-.86,8.38,8.38,0,0,1-2-2.29,17.41,17.41,0,0,1-.08,4,15.12,15.12,0,0,1-.91,3.35,6.5,6.5,0,0,1-2,2.79,8.54,8.54,0,0,1-2.42,1.3,7.49,7.49,0,0,1-3.08.41,8.27,8.27,0,0,1-3.38-1,11.16,11.16,0,0,1-3.36-3,17.32,17.32,0,0,1-2.44-4.5,31.06,31.06,0,0,1-1.62-6,39.79,39.79,0,0,1-.54-6.88,31.92,31.92,0,0,1,.81-7,24.71,24.71,0,0,1,2.42-6.38,16.63,16.63,0,0,1,4.32-5.09,6.94,6.94,0,0,1,2.62-1.38,4.86,4.86,0,0,1,2.41,0,6.31,6.31,0,0,1,2.24,1.14,11.9,11.9,0,0,1,2,2.06,9.68,9.68,0,0,1,1.53,3,7.56,7.56,0,0,1,1.12-.42q0.62-.18,1.21-0.31a5.91,5.91,0,0,1,1-.13,0.72,0.72,0,0,1,.6.18,7.57,7.57,0,0,1,.16,1.9q0,1.76.14,4.25t0.34,5.27q0.25,2.78.66,4.95a9.25,9.25,0,0,0,1.13,3.27,1.08,1.08,0,0,0,1.81.26,5,5,0,0,0,1.27-2.8,42.61,42.61,0,0,0,.74-5.17q0.27-3,.36-6.47t0-6.72q0-3.25-.12-5.91T303.68,555.71Zm-13.35,42.56a5.7,5.7,0,0,0,1.81-3,23.48,23.48,0,0,0,.77-4.74,52.62,52.62,0,0,0,.07-5.67q-0.12-3-.29-5.84a13.42,13.42,0,0,1-1.35-.31,2.08,2.08,0,0,1-.71-0.28,4.42,4.42,0,0,1,0-1.28,23,23,0,0,0,0-2.88,20.43,20.43,0,0,0-.51-3.61,8.65,8.65,0,0,0-1.66-3.46,4,4,0,0,0-1.84-1.41,2,2,0,0,0-2,.45,9.8,9.8,0,0,0-3.3,5.31,25.46,25.46,0,0,0-.83,7.42,38.17,38.17,0,0,0,1.07,7.94A35.43,35.43,0,0,0,284,593.8a12.28,12.28,0,0,0,3.1,4.32A2.36,2.36,0,0,0,290.33,598.26Z" transform="translate(-227.51 -508.7)"/><path class="cls-2" d="M330.71,543.57a1.06,1.06,0,0,1,.39-0.75,1.18,1.18,0,0,1,.61-0.26,0.57,0.57,0,0,1,.5.24,0.94,0.94,0,0,1,.16.69q-0.25,1.83-.64,5t-1,7q-0.65,3.77-1.57,7.82a61.89,61.89,0,0,1-2.21,7.58,34.83,34.83,0,0,1-2.95,6.24,10.31,10.31,0,0,1-8.54,5.22,7,7,0,0,1-3.62-1,9.93,9.93,0,0,1-2.75-2.58,26,26,0,0,1-2.09-3.31,22.75,22.75,0,0,1-1.72-4.86,67.86,67.86,0,0,1-1.37-7.08q-0.57-4-.83-8.52t-0.14-9.19a81.36,81.36,0,0,1,.75-9.12,49.53,49.53,0,0,1,1.84-8.27,27.07,27.07,0,0,1,3.1-6.66,12.36,12.36,0,0,1,4.54-4.26,8,8,0,0,1,1.66-.64,4.12,4.12,0,0,1,1.86-.07,4.53,4.53,0,0,1,1.83.83,5.86,5.86,0,0,1,1.62,2,17.13,17.13,0,0,1,1.49,8,61.17,61.17,0,0,1-1.27,11.46,115.16,115.16,0,0,1-3.59,13.5q-2.34,7.14-5.38,14.1a23.64,23.64,0,0,0,1.48,4.48,9.61,9.61,0,0,0,2.09,3.07,4.87,4.87,0,0,0,2.67,1.34,5.52,5.52,0,0,0,3.32-.77,7.76,7.76,0,0,0,2.95-3.15,30.16,30.16,0,0,0,2.32-5.3A63.68,63.68,0,0,0,328,559.9q0.77-3.42,1.29-6.62t0.88-5.79Q330.53,544.89,330.71,543.57ZM316.8,520.18a6.4,6.4,0,0,0-2.44,3,32.17,32.17,0,0,0-2,5.71,66.1,66.1,0,0,0-1.48,7.6q-0.59,4.21-.83,8.65T309.92,554a73,73,0,0,0,.65,8.31,79.56,79.56,0,0,0,4.05-10.25q1.67-5.26,2.7-10.11a82.69,82.69,0,0,0,1.45-9.08,57.24,57.24,0,0,0,.32-7.23,14.25,14.25,0,0,0-.69-4.52Q317.81,519.65,316.8,520.18Z" transform="translate(-227.51 -508.7)"/><path class="cls-2" d="M366.36,533.32a1.06,1.06,0,0,1,.51-0.67,1.18,1.18,0,0,1,.65-0.14,0.57,0.57,0,0,1,.45.33,0.94,0.94,0,0,1,0,.71q-0.57,1.76-1.54,4.84t-2.21,6.66q-1.24,3.58-2.72,7.36t-3.07,6.94a36.67,36.67,0,0,1-3.28,5.4,7.27,7.27,0,0,1-3.33,2.77,5.15,5.15,0,0,1-4.25-.18,7.73,7.73,0,0,1-2.86-2.93A16.43,16.43,0,0,1,343,560a37,37,0,0,1-.84-4.58,2.87,2.87,0,0,1-1.08.25,0.62,0.62,0,0,1-.68-0.44,3.66,3.66,0,0,1-.17-1.9,4.5,4.5,0,0,1,.51-1.36,3.42,3.42,0,0,1,1.06-1,74.9,74.9,0,0,0,6.3-5.3q1.15-1.12,2.19-2.31a19.3,19.3,0,0,0,1.79-2.37,9.81,9.81,0,0,0,1.1-2.27,3.32,3.32,0,0,0,0-2.06,2.88,2.88,0,0,0-1.67-2,4.19,4.19,0,0,0-2.85.06,7.79,7.79,0,0,0-3.49,2.57,27.73,27.73,0,0,0-3.18,4.83,60.61,60.61,0,0,0-2.88,6.34q-1.37,3.5-2.6,7t-2.25,6.93q-1,3.39-1.88,6T331,572.77a3.23,3.23,0,0,1-1.09,1.8,4,4,0,0,1-1.58.19,5.44,5.44,0,0,1-1.42-.3,3.82,3.82,0,0,1-1-.52,1.23,1.23,0,0,1-.43-0.46,10.12,10.12,0,0,1,.46-3.39q0.64-2.82,1.83-7.08t2.74-9.54q1.55-5.28,3.13-10.86t3.07-11.06q1.49-5.49,2.57-10.06t1.57-7.88a11.74,11.74,0,0,0,.08-4.56q-0.07-.23.81-0.32a6,6,0,0,1,2,.19,7.54,7.54,0,0,1,2.32,1.05,4,4,0,0,1,1.62,2.19,7.66,7.66,0,0,1-.15,3.26q-0.44,2.35-1.3,5.36t-1.9,6.25q-1,3.23-1.94,5.95t-1.45,4.43a5.34,5.34,0,0,0-.44,1.68,3.43,3.43,0,0,0,.75-1.09,17.67,17.67,0,0,1,1.74-2.45,19.76,19.76,0,0,1,2.91-2.82,13.09,13.09,0,0,1,4.27-2.22,14,14,0,0,1,2.94-.63,7.46,7.46,0,0,1,2.55.16,4.54,4.54,0,0,1,2,1.06,4.6,4.6,0,0,1,1.24,2,8.58,8.58,0,0,1,.36,3.76,12.79,12.79,0,0,1-1.07,3.68,20.34,20.34,0,0,1-2,3.49,28.19,28.19,0,0,1-2.64,3.14,49.2,49.2,0,0,1-7.8,6.53,39.4,39.4,0,0,0,1.24,6.22,21.47,21.47,0,0,0,.82,2.16,7.18,7.18,0,0,0,1.06,1.74,3.66,3.66,0,0,0,1.37,1,2.45,2.45,0,0,0,1.74,0,5.46,5.46,0,0,0,2.29-2.4,51,51,0,0,0,2.78-5.18q1.47-3.08,3-6.74t2.78-7.06q1.29-3.41,2.26-6.18T366.36,533.32Z" transform="translate(-227.51 -508.7)"/><path class="cls-2" d="M384.95,532.18a1.06,1.06,0,0,1,.6-0.59,1.18,1.18,0,0,1,.66,0,0.57,0.57,0,0,1,.4.39,0.94,0.94,0,0,1-.06.71l-2.28,4.57q-1.46,2.92-3.28,6.29t-3.87,6.91q-2.06,3.53-4.13,6.43a41.12,41.12,0,0,1-4,4.86,6.85,6.85,0,0,1-3.41,2.21,4.81,4.81,0,0,1-2.89-.22,4.93,4.93,0,0,1-1.67-1.27,5.36,5.36,0,0,1-1-2.15,9.85,9.85,0,0,1,.44-4.12,50.86,50.86,0,0,1,1.94-5.52q1.24-3,2.67-6.31t2.65-6.43a46.46,46.46,0,0,0,1.88-5.88,12,12,0,0,0,.35-4.71q0-.3.8-0.5a5.42,5.42,0,0,1,1.9-.07,4.9,4.9,0,0,1,2,.76,2.83,2.83,0,0,1,1.22,2,11.18,11.18,0,0,1-.51,4.65q-0.8,2.87-2.06,6.12t-2.66,6.55q-1.4,3.3-2.36,5.93a22.27,22.27,0,0,0-1.19,4.18q-0.23,1.56.9,1.37a5,5,0,0,0,2.46-1.84,42.65,42.65,0,0,0,3.14-4.17q1.68-2.5,3.44-5.5t3.29-5.87q1.53-2.87,2.75-5.23T384.95,532.18Zm-6.07-13.53a4.43,4.43,0,0,1-1.59.87,6.15,6.15,0,0,1-2.46.38,4.56,4.56,0,0,1-2.42-.85,3.93,3.93,0,0,1-1.46-2.74,6,6,0,0,1,0-2.44,4.32,4.32,0,0,1,.84-1.72,3.94,3.94,0,0,1,1.43-1.09,7.22,7.22,0,0,1,1.8-.54,3.15,3.15,0,0,1,2.82.69,5.55,5.55,0,0,1,1.5,2.43,7.47,7.47,0,0,1,.33,2.9A3.24,3.24,0,0,1,378.88,518.65Z" transform="translate(-227.51 -508.7)"/><path class="cls-2" d="M398,560.6a4.31,4.31,0,0,1-3-.84,5.12,5.12,0,0,1-1.48-1.95,6.78,6.78,0,0,1-.54-2.93,12.55,12.55,0,0,1,1.27-5.43,45.2,45.2,0,0,1,3.18-5.8q1.86-2.89,3.91-5.6t3.44-4.75a12.79,12.79,0,0,0,1.76-3.28q0.36-1.24-1.14-1.21a5.47,5.47,0,0,0-3,1.41,35,35,0,0,0-3.89,3.65q-2.11,2.26-4.43,5.16T389.59,545q-2.25,3-4.38,5.91T381.36,556q-1.72,2.26-2.93,3.63a3.65,3.65,0,0,1-1.68,1.38,4,4,0,0,1-1.57-.27,5.41,5.41,0,0,1-1.27-.69,3.82,3.82,0,0,1-.83-0.79,1.24,1.24,0,0,1-.28-0.56,13.71,13.71,0,0,1,1.19-2.15q1.19-2,3-5t3.88-6.83q2.08-3.76,3.87-7.43a74.36,74.36,0,0,0,3-6.84,14.94,14.94,0,0,0,1.12-5.15q0-.24.81-0.23a4.85,4.85,0,0,1,1.81.44,5.79,5.79,0,0,1,1.86,1.31,3.29,3.29,0,0,1,.89,2.32,9.83,9.83,0,0,1-.71,3.47q-0.74,2-1.63,3.87t-1.56,3.18q-0.66,1.33-.48,1.33a6,6,0,0,0,1.09-1.19q1-1.19,2.49-3t3.46-3.91a53.51,53.51,0,0,1,4.06-3.92,25.86,25.86,0,0,1,4.29-3.06,8.78,8.78,0,0,1,4.08-1.25,3.36,3.36,0,0,1,3,1.2,6,6,0,0,1,1,3.52,9,9,0,0,1-.74,3.44,32.06,32.06,0,0,1-2,4.06q-1.22,2.13-2.7,4.35t-2.91,4.29q-1.43,2.07-2.65,3.9a21.67,21.67,0,0,0-1.83,3.19,4,4,0,0,0-.47,2.14,1.09,1.09,0,0,0,1.34.75,5,5,0,0,0,2.7-1.47,42.63,42.63,0,0,0,3.71-3.68q2-2.23,4.19-4.95t4.09-5.33q1.93-2.62,3.47-4.78t2.3-3.26a1.06,1.06,0,0,1,.68-0.49,1.18,1.18,0,0,1,.66,0,0.57,0.57,0,0,1,.34.44,0.93,0.93,0,0,1-.17.69q-1,1.52-2.85,4.2t-4,5.75q-2.22,3.08-4.73,6.28t-5,5.77A36.78,36.78,0,0,1,402,558.9,7.27,7.27,0,0,1,398,560.6Z" transform="translate(-227.51 -508.7)"/><path class="cls-2" d="M461.14,540.67a1.19,1.19,0,0,1,.77-0.38,0.91,0.91,0,0,1,.64.18,0.64,0.64,0,0,1,.24.5,0.89,0.89,0,0,1-.3.62,42.59,42.59,0,0,1-6.18,6.09,82.55,82.55,0,0,1-7.8,5.58q-4.21,2.67-8.89,5.07t-9.47,4.57q-3.36,3.35-6.94,6.75T416,576.18q-3.59,3.12-7,5.81a75.62,75.62,0,0,1-6.48,4.57,33.42,33.42,0,0,1-5.56,2.85,8.08,8.08,0,0,1-4.24.65q-3.72-.68-5-2.81a7.32,7.32,0,0,1-.69-5.19q0.36-1.95,2.91-3.73a42.07,42.07,0,0,1,6.75-3.67q4.19-1.88,9.67-4T418,566.1q4.7-4,8.45-7.47-0.71.54-1.61,1.14a14,14,0,0,1-1.9,1.05,8.62,8.62,0,0,1-2.1.65,6.07,6.07,0,0,1-2.17,0,8.55,8.55,0,0,1-2.57-1,7.5,7.5,0,0,1-2.34-2,8.21,8.21,0,0,1-1.44-3.25,11.38,11.38,0,0,1,0-4.54,17,17,0,0,1,1.76-4.77,32.25,32.25,0,0,1,3.46-5.19,37.71,37.71,0,0,1,4.81-4.94,32.57,32.57,0,0,1,5.8-4,25.5,25.5,0,0,1,6.39-2.42,16.29,16.29,0,0,1,6.68-.15q3.36,0.62,4.33,2.84a9.25,9.25,0,0,1,.38,5.41,9,9,0,0,1-.43,1.51,12.52,12.52,0,0,1-.76,1.63,7.54,7.54,0,0,1,1.06.56q0.55,0.34,1,.71a5.9,5.9,0,0,1,.79.69,0.72,0.72,0,0,1,.26.57,6.9,6.9,0,0,1-1.14,1.74q-1.08,1.39-2.9,3.52t-4.34,4.85Q437,555.94,434,559a153.56,153.56,0,0,0,14.31-8.14A79.29,79.29,0,0,0,461.14,540.67Zm-70.3,44.23a6.11,6.11,0,0,0,3.41-1,50.37,50.37,0,0,0,5.32-3.23q3-2.07,6.57-4.86t7.14-5.79q-4.95,2-9.29,3.75T396.37,577a42.33,42.33,0,0,0-5.24,2.79q-2,1.28-2.17,2.35a2.93,2.93,0,0,0,0,1.22,2.24,2.24,0,0,0,.53.92A2.41,2.41,0,0,0,390.84,584.91Zm28.88-26.35a5.65,5.65,0,0,0,3.41-.65,23.47,23.47,0,0,0,4.07-2.55,56.89,56.89,0,0,0,4.34-3.69q2.21-2.06,4.23-4.07a8.26,8.26,0,0,1-.67-1.16,2.08,2.08,0,0,1-.26-0.72,3.42,3.42,0,0,1,1-.89A24.77,24.77,0,0,0,438,543a17.75,17.75,0,0,0,2.33-2.74,8.91,8.91,0,0,0,1.47-3.54,4.18,4.18,0,0,0-.12-2.34,2,2,0,0,0-1.62-1.15,9.81,9.81,0,0,0-6.17,1,25.45,25.45,0,0,0-6.12,4.27,38.64,38.64,0,0,0-5.25,6,34.77,34.77,0,0,0-3.63,6.32,12.28,12.28,0,0,0-1.2,5.18A2.36,2.36,0,0,0,419.72,558.56Z" transform="translate(-227.51 -508.7)"/><path class="cls-2" d="M523.39,535.93q5.87,2.21,11.56,4.47t10.78,4.41q5.09,2.16,9.38,4.18t7.32,3.68a35.4,35.4,0,0,1,4.6,2.88q1.57,1.22,1.24,1.87a10.65,10.65,0,0,1-.92,1.49,5.7,5.7,0,0,1-1.18,1.22,3.28,3.28,0,0,1-1.45.61,2.68,2.68,0,0,1-1.66-.3l-2.21-1.15-4.18-2.17q-2.51-1.29-5.59-2.84t-6.49-3.19q-3.4-1.64-6.89-3.2T531,545l-5.87-2.28-5.55-2.12a67,67,0,0,1-5.72,3.9q-3.41,2.11-7.48,4.46t-8.58,4.85q-4.51,2.5-9,5t-8.62,5.07q-4.17,2.54-7.59,4.95a56.64,56.64,0,0,0-5.87,4.67,15.56,15.56,0,0,0-3.42,4.19q-0.27.53-.62,1.17a6.63,6.63,0,0,1-.75,1.1,2.43,2.43,0,0,1-.87.67,1.15,1.15,0,0,1-1-.07,3.19,3.19,0,0,1-1.42-1.45,6.4,6.4,0,0,1-.64-2.27,9.84,9.84,0,0,1,.13-2.72,10.39,10.39,0,0,1,1-2.84,14.42,14.42,0,0,1,3.12-3.94,44.4,44.4,0,0,1,5.08-4q2.93-2,6.5-4.05t7.47-4a16.59,16.59,0,0,0,1.65-4.88,27,27,0,0,0,.4-5.61,31,31,0,0,0-.73-5.77,26.13,26.13,0,0,0-1.8-5.37,20.66,20.66,0,0,0-2.77-4.45,11.29,11.29,0,0,0-3.64-3,2.08,2.08,0,0,1-1.15-.78,3.24,3.24,0,0,1-.4-0.94,2.62,2.62,0,0,1,.08-1.1q0.65-1.29,4.59-.92a72.53,72.53,0,0,1,10.1,1.89q6.15,1.52,13.88,4t15.93,5.39a4.49,4.49,0,0,1,1.89-.69,6.68,6.68,0,0,1,2.19,0,2.82,2.82,0,0,1,1.65.86A2.08,2.08,0,0,1,523.39,535.93Zm-38.81,17.62,8.22-4.06q4.11-2,7.87-4t6.92-3.74a53.39,53.39,0,0,0,5.41-3.49q-10.59-3.78-18.33-6.16T482,528.4a18.63,18.63,0,0,1,2.76,5.65,29.86,29.86,0,0,1,1.21,6.62,37.78,37.78,0,0,1-.14,6.75A33,33,0,0,1,484.58,553.55Z" transform="translate(-227.51 -508.7)"/><path class="cls-2" d="M497.92,588a5,5,0,0,0,3,.48,42.66,42.66,0,0,0,5.18-.66q3-.54,6.34-1.37t6.5-1.74q3.12-.9,5.67-1.68t3.86-1.14a1.05,1.05,0,0,1,.82,0,1.09,1.09,0,0,1,.47.42,0.65,0.65,0,0,1,0,.58,0.83,0.83,0,0,1-.53.47l-4.82,1.59q-3.06,1-6.7,2.11t-7.58,2.09q-3.95,1-7.47,1.54a38.21,38.21,0,0,1-6.32.49,7.27,7.27,0,0,1-4.2-1.08,4.19,4.19,0,0,1-1.81-2.45,5.25,5.25,0,0,1,0-2.43,8.23,8.23,0,0,1,1.36-2.65,13.83,13.83,0,0,1,4.06-3.79,39.27,39.27,0,0,1,4.48-2.29q2.23-1,4.23-2a9.05,9.05,0,0,0,3.31-2.78,1.93,1.93,0,0,0,.41-1.41,8.21,8.21,0,0,0-.4-1.63q-0.31-.9-0.67-1.87a8.39,8.39,0,0,1-.47-2.14,7.18,7.18,0,0,1,.22-2.48,8.53,8.53,0,0,1,1.48-2.86,8.71,8.71,0,0,1,2.86-2.51,10.23,10.23,0,0,1,3.51-1.18,9.75,9.75,0,0,1,3.61.16,8.6,8.6,0,0,1,3.18,1.45,2.3,2.3,0,0,1,.88,1.13,1.09,1.09,0,0,1-.08,1,2.72,2.72,0,0,1-1.47.89l-2.34.7a14.55,14.55,0,0,0-2.64,1.11,8.32,8.32,0,0,0-3.75,4.84,5.58,5.58,0,0,0-.06,2.26,7,7,0,0,0,.68,2,15.52,15.52,0,0,1,.81,1.79,5,5,0,0,1,.33,1.73,3,3,0,0,1-.67,1.78,7.09,7.09,0,0,1-2.29,1.74q-1.68.92-3.79,1.9t-4.24,2a31.84,31.84,0,0,0-3.66,2,6,6,0,0,0-2,2Q496.71,587.09,497.92,588Z" transform="translate(-227.51 -508.7)"/><path class="cls-2" d="M549.66,604.5a1.26,1.26,0,0,1,.8.18,0.91,0.91,0,0,1,.42.51,0.64,0.64,0,0,1-.09.55,0.89,0.89,0,0,1-.6.33q-1.83.28-5,.83t-7.05,1q-3.89.46-8.13,0.68a58.68,58.68,0,0,1-8.21-.13,33.64,33.64,0,0,1-7.35-1.44,13.3,13.3,0,0,1-5.53-3.27,8.46,8.46,0,0,1-1.57-2.37,8.58,8.58,0,0,1-.78-3.23,9.15,9.15,0,0,1,.62-3.69,10.55,10.55,0,0,1,2.6-3.78,17,17,0,0,1,4.18-2.9,30.56,30.56,0,0,1,5.77-2.23,38,38,0,0,1,6.71-1.22,31.11,31.11,0,0,1,7,.12,25.88,25.88,0,0,1,6.56,1.75,16.63,16.63,0,0,1,5.53,3.73q2.19,2.22,2.09,3.83a4.49,4.49,0,0,1-1.47,3,10,10,0,0,1-4.79,2.62,15.46,15.46,0,0,1-6.07.17,22.43,22.43,0,0,1-6.58-2.19,25.8,25.8,0,0,1-6.25-4.46,36.91,36.91,0,0,0-5.17,2.44,18.77,18.77,0,0,0-3.82,2.79,5.7,5.7,0,0,0-1.74,2.89,3,3,0,0,0,1,2.79,8.2,8.2,0,0,0,4.19,1.94,39.4,39.4,0,0,0,6.53.77q3.65,0.15,7.68-.07t7.71-.6q3.67-.38,6.58-0.76T549.66,604.5Zm-5.76-11.84a7.39,7.39,0,0,0-3.28-1.87,16.79,16.79,0,0,0-4.46-.62,28.23,28.23,0,0,0-5.19.44,47.89,47.89,0,0,0-5.44,1.27,16.39,16.39,0,0,0,4.65,3.26,18.08,18.08,0,0,0,4.79,1.47,15.34,15.34,0,0,0,4.32.09,11.4,11.4,0,0,0,3.28-.88,3.36,3.36,0,0,0,1.72-1.48A1.39,1.39,0,0,0,543.9,592.66Z" transform="translate(-227.51 -508.7)"/><path class="cls-2" d="M566.27,630.88a1.26,1.26,0,0,1,.76.31,0.91,0.91,0,0,1,.33.58,0.64,0.64,0,0,1-.18.53,0.89,0.89,0,0,1-.65.23q-1.85,0-5.06,0t-7.12-.21q-3.91-.21-8.13-0.72a58.66,58.66,0,0,1-8.07-1.53,33.64,33.64,0,0,1-7-2.67,13.3,13.3,0,0,1-4.89-4.16,8.46,8.46,0,0,1-1.15-2.6,8.59,8.59,0,0,1-.22-3.32,9.15,9.15,0,0,1,1.24-3.53,10.55,10.55,0,0,1,3.2-3.28,17,17,0,0,1,4.61-2.14,30.57,30.57,0,0,1,6.06-1.21,38,38,0,0,1,6.82-.06,31.09,31.09,0,0,1,6.86,1.31,25.88,25.88,0,0,1,6.17,2.84,16.64,16.64,0,0,1,4.81,4.62q1.78,2.56,1.41,4.14a4.49,4.49,0,0,1-1.95,2.67,10,10,0,0,1-5.17,1.76,15.45,15.45,0,0,1-6-.87,22.44,22.44,0,0,1-6.11-3.28,25.8,25.8,0,0,1-5.39-5.46,37,37,0,0,0-5.51,1.52,18.76,18.76,0,0,0-4.24,2.1A5.7,5.7,0,0,0,529.5,621a3,3,0,0,0,.53,2.92,8.2,8.2,0,0,0,3.79,2.63,39.44,39.44,0,0,0,6.3,1.87q3.57,0.78,7.58,1.24t7.69,0.73q3.68,0.26,6.61.38T566.27,630.88Zm-3.66-12.65a7.39,7.39,0,0,0-2.91-2.4,16.78,16.78,0,0,0-4.29-1.37,28.17,28.17,0,0,0-5.19-.45,47.86,47.86,0,0,0-5.57.32,16.39,16.39,0,0,0,4,4,18.05,18.05,0,0,0,4.47,2.27,15.33,15.33,0,0,0,4.24.82,11.41,11.41,0,0,0,3.38-.3,3.36,3.36,0,0,0,1.94-1.16A1.39,1.39,0,0,0,562.61,618.23Z" transform="translate(-227.51 -508.7)"/><path class="cls-2" d="M324.39,929a4.31,4.31,0,0,1-2.41-.77,6.87,6.87,0,0,1-1.86-1.89,9.87,9.87,0,0,1-1.24-2.67,11.1,11.1,0,0,1-.46-3.23,18.19,18.19,0,0,1,1.89-7.59,58.83,58.83,0,0,1,4.79-8.27c1.94-2.85,4.16-5.83,6.59-8.85,1.79-2.24,3.59-4.52,5.37-6.81a56.12,56.12,0,0,0-6.85,2.53,49.47,49.47,0,0,0-7.08,3.82,24.63,24.63,0,0,0-4.26,3.45c-1.25,1.35-1.26,1.85-1.26,1.87a1.78,1.78,0,0,1-1.37,2,2.13,2.13,0,0,1-.44,0,2.81,2.81,0,0,1-1.6-.56,5.35,5.35,0,0,1-1.57-1.87,6.15,6.15,0,0,1-.69-3,7.78,7.78,0,0,1,2.33-5.27,22,22,0,0,1,6.25-4.44,51.73,51.73,0,0,1,9.7-3.58,93.46,93.46,0,0,1,12.47-2.4c1-1.32,2-2.75,3-4.24s2.08-3.2,3-4.72a38.78,38.78,0,0,0,2.13-4.15,7.4,7.4,0,0,0,.76-2.75,10.87,10.87,0,0,0-.14-1.65,2.55,2.55,0,0,0-.61-1.28,4.16,4.16,0,0,0-1.72-1.06,10.74,10.74,0,0,0-3.61-.48,61.32,61.32,0,0,0-15.53,1.95,78.47,78.47,0,0,0-34.51,19.25,41.74,41.74,0,0,0-5.65,6.59c-1.55,2.35-1.87,3.56-1.87,4.16a1.85,1.85,0,0,1-1.8,1.92l-0.34,0a4.61,4.61,0,0,1-2.23-.65,7.54,7.54,0,0,1-2.29-2,5.44,5.44,0,0,1-1.11-3.4c0-1.06.64-2.54,2-4.66a40.1,40.1,0,0,1,5.66-6.56,79.2,79.2,0,0,1,9.15-7.45,74.41,74.41,0,0,1,12.56-7.06A87.23,87.23,0,0,1,325.33,858a83.54,83.54,0,0,1,18.92-2,37.51,37.51,0,0,1,5.73.43,18.65,18.65,0,0,1,5.07,1.49,10.7,10.7,0,0,1,3.73,2.82,6.83,6.83,0,0,1,1.52,4.48,8.53,8.53,0,0,1-.9,3.25c-0.55,1.24-1.26,2.65-2.11,4.19s-1.79,3.14-2.81,4.81c-0.65,1.06-1.31,2.1-2,3.12,2.79-.16,5.75-0.24,8.82-0.24a5.8,5.8,0,0,1,4.38,1.57,4.91,4.91,0,0,1,1.48,3.45,1.29,1.29,0,0,1-1.22,1.49h-0.11l-0.16,0a6.07,6.07,0,0,1-1.12-.43,14.78,14.78,0,0,0-1.6-.59,7.91,7.91,0,0,0-2.31-.28,82.7,82.7,0,0,0-12,.82c-2.4,3.48-4.88,7-7.38,10.57s-5,7.22-7.08,10.6A89.23,89.23,0,0,0,329,917a17.89,17.89,0,0,0-2,7.26q0,0.62,0,1.3a8.25,8.25,0,0,1-.17,1.37,2.79,2.79,0,0,1-.75,1.39A2.3,2.3,0,0,1,324.39,929Z" transform="translate(-227.51 -508.7)"/><path class="cls-3" d="M344.25,857a36.35,36.35,0,0,1,5.58.42,17.55,17.55,0,0,1,4.8,1.41,9.67,9.67,0,0,1,3.39,2.55,5.83,5.83,0,0,1,1.29,3.84,7.72,7.72,0,0,1-.81,2.85q-0.81,1.83-2.07,4.11t-2.79,4.77q-1.53,2.49-3,4.77,5-.36,10.74-0.36a4.83,4.83,0,0,1,3.66,1.26,3.93,3.93,0,0,1,1.2,2.76c0,0.32-.07.49-0.22,0.49h-0.05a5.53,5.53,0,0,1-.93-0.36,15.61,15.61,0,0,0-1.71-.63,8.83,8.83,0,0,0-2.61-.33,82.58,82.58,0,0,0-12.6.9q-3.72,5.4-7.62,10.92T333.36,907a89.67,89.67,0,0,0-5.28,9.57,18.75,18.75,0,0,0-2.07,7.68q0,0.6,0,1.26a7.18,7.18,0,0,1-.15,1.2,1.8,1.8,0,0,1-.48.9,1.3,1.3,0,0,1-1,.36,3.31,3.31,0,0,1-1.86-.6,5.85,5.85,0,0,1-1.59-1.62,8.83,8.83,0,0,1-1.11-2.4,10.06,10.06,0,0,1-.42-2.94,17.13,17.13,0,0,1,1.8-7.17,57.56,57.56,0,0,1,4.71-8.13q2.91-4.26,6.54-8.79t7.23-9.21a61.49,61.49,0,0,0-9.9,3.39,50.25,50.25,0,0,0-7.23,3.9,25.46,25.46,0,0,0-4.44,3.6,4.63,4.63,0,0,0-1.53,2.55,0.87,0.87,0,0,1-.57,1l-0.23,0a1.83,1.83,0,0,1-1-.38,4.35,4.35,0,0,1-1.26-1.53,5.14,5.14,0,0,1-.57-2.49A6.79,6.79,0,0,1,315,892.6a20.94,20.94,0,0,1,6-4.23,50.52,50.52,0,0,1,9.51-3.51,92.87,92.87,0,0,1,12.75-2.43q1.62-2.16,3.27-4.62t3-4.77a39.6,39.6,0,0,0,2.19-4.26,8.5,8.5,0,0,0,.84-3.15,11.81,11.81,0,0,0-.15-1.8,3.56,3.56,0,0,0-.84-1.77,5.09,5.09,0,0,0-2.13-1.35,11.62,11.62,0,0,0-4-.54,62,62,0,0,0-15.78,2,79.47,79.47,0,0,0-35,19.5,42.53,42.53,0,0,0-5.79,6.75q-2,3.09-2,4.71a0.86,0.86,0,0,1-.9.93h-0.24a3.62,3.62,0,0,1-1.74-.52,6.53,6.53,0,0,1-2-1.77,4.44,4.44,0,0,1-.9-2.79q0-1.26,1.86-4.11a39,39,0,0,1,5.52-6.39,77.83,77.83,0,0,1,9-7.35,73.09,73.09,0,0,1,12.39-7A85.82,85.82,0,0,1,325.56,859a82.17,82.17,0,0,1,18.69-2m0-2a84.55,84.55,0,0,0-19.14,2.06,88.23,88.23,0,0,0-16,5.28,75.43,75.43,0,0,0-12.73,7.15,80.19,80.19,0,0,0-9.26,7.54,41.08,41.08,0,0,0-5.8,6.73c-1.51,2.32-2.19,3.92-2.19,5.2a6.42,6.42,0,0,0,1.31,4,8.53,8.53,0,0,0,2.59,2.3,5.59,5.59,0,0,0,2.71.77l0.44,0a2.85,2.85,0,0,0,2.7-2.92c0-.24.12-1.2,1.71-3.61a40.78,40.78,0,0,1,5.52-6.42,77,77,0,0,1,34.06-19,60.31,60.31,0,0,1,15.27-1.91,9.57,9.57,0,0,1,3.26.41,3.15,3.15,0,0,1,1.31.77,1.58,1.58,0,0,1,.39.78,9.86,9.86,0,0,1,.13,1.49,6.51,6.51,0,0,1-.68,2.36,37.79,37.79,0,0,1-2.08,4c-0.87,1.5-1.86,3.07-2.93,4.67-0.91,1.35-1.82,2.65-2.71,3.86A93.62,93.62,0,0,0,330,882.93a52.73,52.73,0,0,0-9.89,3.66,23,23,0,0,0-6.54,4.66,8.74,8.74,0,0,0-2.6,5.94,7.13,7.13,0,0,0,.81,3.44,6.23,6.23,0,0,0,1.87,2.22,3.78,3.78,0,0,0,2.17.74,3.13,3.13,0,0,0,.65-0.07,2.77,2.77,0,0,0,2.15-2.85,5.47,5.47,0,0,1,1-1.32,23.67,23.67,0,0,1,4.09-3.3,48.51,48.51,0,0,1,6.94-3.74q1.7-.77,3.62-1.46-1.67,2.12-3.34,4.21c-2.44,3-4.67,6-6.63,8.91a59.83,59.83,0,0,0-4.87,8.41,19.17,19.17,0,0,0-2,8,12.1,12.1,0,0,0,.51,3.52,10.86,10.86,0,0,0,1.37,2.94,7.86,7.86,0,0,0,2.14,2.16,5.3,5.3,0,0,0,3,.94,3.28,3.28,0,0,0,2.37-.95,3.78,3.78,0,0,0,1-1.87,9.22,9.22,0,0,0,.2-1.54c0-.48,0-0.93,0-1.36a16.94,16.94,0,0,1,1.88-6.83,88.11,88.11,0,0,1,5.16-9.35c2.1-3.37,4.48-6.92,7-10.56,2.42-3.42,4.81-6.85,7.14-10.22a82.34,82.34,0,0,1,11.45-.75,6.94,6.94,0,0,1,2,.24,13.75,13.75,0,0,1,1.48.54,6.8,6.8,0,0,0,1.33.49,2.2,2.2,0,0,0,.48.05,2.28,2.28,0,0,0,2.22-2.49,5.88,5.88,0,0,0-1.75-4.14,6.75,6.75,0,0,0-5.11-1.88c-2.39,0-4.71,0-6.94.14l0.93-1.51c1-1.68,2-3.31,2.84-4.85s1.59-3,2.15-4.27a9.31,9.31,0,0,0,1-3.66,7.8,7.8,0,0,0-1.75-5.11,11.69,11.69,0,0,0-4.08-3.09,19.63,19.63,0,0,0-5.34-1.58,38.53,38.53,0,0,0-5.89-.44h0Z" transform="translate(-227.51 -508.7)"/><path class="cls-2" d="M369.93,920a5,5,0,0,1-3.68-1.22,5.54,5.54,0,0,1-1.49-2.52q-0.07-.24-0.11-0.49-0.45.5-.93,1a16.16,16.16,0,0,1-3,2.21,7.51,7.51,0,0,1-3.83,1.07,9.56,9.56,0,0,1-3-.53,8.53,8.53,0,0,1-3-1.8,9.3,9.3,0,0,1-2.26-3.25,12.2,12.2,0,0,1-.86-4.84,18.37,18.37,0,0,1,.91-5.33,32.14,32.14,0,0,1,2.54-5.91,40.9,40.9,0,0,1,3.94-5.87,33.08,33.08,0,0,1,5.14-5.17,25.83,25.83,0,0,1,6.09-3.65,17.7,17.7,0,0,1,6.93-1.4,8,8,0,0,1,3.33.63,5.89,5.89,0,0,1,2.27,1.81,7.35,7.35,0,0,1,1.22,2.64,13,13,0,0,1,.36,3.12,9.79,9.79,0,0,1-.39,2.64l0.25,0.09q0.64,0.26,1.22.54a7,7,0,0,1,1.05.63,1.64,1.64,0,0,1,.76,1.31c0,0.38-.1.65-1.25,2.19l-2.51,3.41c-1,1.32-2,2.77-3,4.31s-1.84,2.94-2.5,4.21a8.37,8.37,0,0,0-1,2.9,0.85,0.85,0,0,0,0,.22h0.26a4,4,0,0,0,2.09-1.18,41.75,41.75,0,0,0,3.69-3.52c1.36-1.44,2.79-3.06,4.25-4.81s2.87-3.52,4.18-5.22,2.5-3.28,3.56-4.7,1.84-2.48,2.36-3.2a2,2,0,0,1,1.35-.88,2.67,2.67,0,0,1,.4,0,2,2,0,0,1,.82.17,1.56,1.56,0,0,1,.91,1.18,1.92,1.92,0,0,1-.33,1.42l-3,4.18c-1.29,1.78-2.73,3.69-4.28,5.69s-3.24,4.1-5,6.21-3.51,4-5.19,5.73a40.67,40.67,0,0,1-4.83,4.24A7.73,7.73,0,0,1,369.93,920Zm2.94-31.68a8.88,8.88,0,0,0-5.29,1.93,24.53,24.53,0,0,0-5,5.1,37.35,37.35,0,0,0-4,6.72,34.65,34.65,0,0,0-2.36,6.7,11.38,11.38,0,0,0-.24,4.87,1.37,1.37,0,0,0,1.48,1.35,4.78,4.78,0,0,0,2.71-1.07,22.63,22.63,0,0,0,3.39-3.1,51.84,51.84,0,0,0,3.5-4.33c1-1.39,2-2.77,2.94-4.12l-0.42-.55a2.19,2.19,0,0,1-.58-1.25c0-.45.22-0.75,1.08-1.67a22,22,0,0,0,1.72-2.15,19.57,19.57,0,0,0,1.74-3,7.68,7.68,0,0,0,.74-3.32,3.1,3.1,0,0,0-.41-1.7A1,1,0,0,0,372.87,888.29Z" transform="translate(-227.51 -508.7)"/><path class="cls-3" d="M373.29,883.21a6.94,6.94,0,0,1,2.91.54,4.87,4.87,0,0,1,1.89,1.5,6.31,6.31,0,0,1,1.05,2.28,11.9,11.9,0,0,1,.33,2.88,9.67,9.67,0,0,1-.66,3.3,7.54,7.54,0,0,1,1.14.36q0.6,0.24,1.14.51a6,6,0,0,1,.9.54,0.72,0.72,0,0,1,.36.51,7.58,7.58,0,0,1-1.05,1.59l-2.52,3.42q-1.47,2-3,4.35t-2.55,4.29a9.26,9.26,0,0,0-1.14,3.27,1.08,1.08,0,0,0,1.26,1.32,5,5,0,0,0,2.73-1.41,42.65,42.65,0,0,0,3.78-3.6q2.07-2.19,4.29-4.86t4.2-5.25q2-2.58,3.57-4.71t2.37-3.21a1.06,1.06,0,0,1,.69-0.48l0.25,0a1,1,0,0,1,.41.08,0.57,0.57,0,0,1,.33.45,0.94,0.94,0,0,1-.18.69l-3,4.14q-1.92,2.64-4.26,5.67t-5,6.18q-2.64,3.15-5.13,5.67a39.49,39.49,0,0,1-4.71,4.14,6.89,6.89,0,0,1-3.78,1.62,4.06,4.06,0,0,1-3-.93,4.53,4.53,0,0,1-1.23-2.07,8.38,8.38,0,0,1-.18-3.06A17.39,17.39,0,0,1,363,916a15.1,15.1,0,0,1-2.79,2.07,6.5,6.5,0,0,1-3.33.93,8.54,8.54,0,0,1-2.7-.48,7.51,7.51,0,0,1-2.67-1.59,8.27,8.27,0,0,1-2-2.91,11.17,11.17,0,0,1-.78-4.44,17.31,17.31,0,0,1,.87-5,31,31,0,0,1,2.46-5.73,39.76,39.76,0,0,1,3.84-5.73,31.93,31.93,0,0,1,5-5,24.72,24.72,0,0,1,5.85-3.51,16.62,16.62,0,0,1,6.54-1.32M357.45,916a5.71,5.71,0,0,0,3.3-1.26,23.51,23.51,0,0,0,3.54-3.24,52.47,52.47,0,0,0,3.57-4.41q1.77-2.43,3.39-4.77a13.49,13.49,0,0,1-.87-1.08,2.08,2.08,0,0,1-.39-0.66,4.44,4.44,0,0,1,.81-1,23,23,0,0,0,1.8-2.25,20.47,20.47,0,0,0,1.83-3.15,8.64,8.64,0,0,0,.84-3.75,4,4,0,0,0-.57-2.25,2,2,0,0,0-1.83-.87,9.8,9.8,0,0,0-5.88,2.13,25.43,25.43,0,0,0-5.25,5.31,38.18,38.18,0,0,0-4.08,6.9,35.46,35.46,0,0,0-2.43,6.9,12.27,12.27,0,0,0-.24,5.31,2.36,2.36,0,0,0,2.46,2.13m15.84-34.76a18.69,18.69,0,0,0-7.32,1.48,26.84,26.84,0,0,0-6.32,3.79,34.09,34.09,0,0,0-5.29,5.32,42,42,0,0,0-4,6,33.16,33.16,0,0,0-2.62,6.1,19.35,19.35,0,0,0-1,5.63,13.18,13.18,0,0,0,.94,5.24,10.28,10.28,0,0,0,2.51,3.6,9.52,9.52,0,0,0,3.38,2,10.56,10.56,0,0,0,3.33.58,8.5,8.5,0,0,0,4.34-1.2,17.34,17.34,0,0,0,3-2.16,6.83,6.83,0,0,0,1.34,1.85,6,6,0,0,0,4.38,1.51,8.65,8.65,0,0,0,5-2,41.65,41.65,0,0,0,5-4.35c1.69-1.71,3.45-3.66,5.24-5.79s3.47-4.22,5-6.24,3-3.93,4.29-5.72l3-4.15,0,0,0,0a2.9,2.9,0,0,0,.48-2.14,2.57,2.57,0,0,0-1.48-1.93,3,3,0,0,0-1.23-.25,3.67,3.67,0,0,0-.54,0,3,3,0,0,0-2,1.29q-0.77,1.06-2.35,3.18c-1.06,1.42-2.25,3-3.55,4.69s-2.69,3.43-4.15,5.19-2.86,3.34-4.21,4.77a40.9,40.9,0,0,1-3.6,3.43l-0.24.19c0.12-.27.26-0.57,0.43-0.9,0.65-1.24,1.47-2.63,2.45-4.12s2-3,2.94-4.26l2.51-3.41c1.16-1.55,1.45-2,1.45-2.78a2.59,2.59,0,0,0-1.16-2.11,7.87,7.87,0,0,0-1.21-.73l-0.73-.34a10.1,10.1,0,0,0,.22-2,14,14,0,0,0-.39-3.36,8.33,8.33,0,0,0-1.39-3,6.87,6.87,0,0,0-2.65-2.12,8.93,8.93,0,0,0-3.75-.72h0ZM357.45,914c-0.3,0-.38,0-0.51-0.57a10.43,10.43,0,0,1,.24-4.43,33.64,33.64,0,0,1,2.3-6.51,36.36,36.36,0,0,1,3.87-6.54,23.55,23.55,0,0,1,4.84-4.9,7.8,7.8,0,0,1,4.69-1.74h0.19a2.32,2.32,0,0,1,.21,1.11,6.6,6.6,0,0,1-.65,2.89,18.57,18.57,0,0,1-1.65,2.84,21.12,21.12,0,0,1-1.64,2.05c-0.81.87-1.35,1.45-1.35,2.35a3.07,3.07,0,0,0,.76,1.82c-0.81,1.15-1.65,2.33-2.51,3.51a50.72,50.72,0,0,1-3.43,4.24,21.64,21.64,0,0,1-3.23,3,3.84,3.84,0,0,1-2.13.88h0Z" transform="translate(-227.51 -508.7)"/><path class="cls-2" d="M395.07,920a5.16,5.16,0,0,1-3.58-1.16,6.27,6.27,0,0,1-1.67-2.36,9.25,9.25,0,0,1-.55-3.3,14.89,14.89,0,0,1,1.1-5.85,40.57,40.57,0,0,1,2.31-4.61c0.8-1.38,1.55-2.73,2.22-4a8.1,8.1,0,0,0,.91-3.74,0.93,0.93,0,0,0-.24-0.69,7.23,7.23,0,0,0-1.13-.94q-0.77-.53-1.63-1.1a9.42,9.42,0,0,1-1.85-1.61,8.2,8.2,0,0,1-1.47-2.42,9.54,9.54,0,0,1-.58-3.55,9.74,9.74,0,0,1,.9-4.14,11.28,11.28,0,0,1,2.34-3.32,10.78,10.78,0,0,1,3.31-2.21,9.64,9.64,0,0,1,3.81-.8,3.29,3.29,0,0,1,2,.58,2,2,0,0,1,1,1.68,3.68,3.68,0,0,1-.86,2.19l-1.47,1.95a13.66,13.66,0,0,0-1.37,2.29,7.35,7.35,0,0,0-.14,5.28,4.62,4.62,0,0,0,1.06,1.53,6,6,0,0,0,1.47,1,16.6,16.6,0,0,1,1.82,1,6,6,0,0,1,1.55,1.44,4,4,0,0,1,.71,2.43,7.92,7.92,0,0,1-.9,3.18c-0.54,1.17-1.2,2.46-1.95,3.84s-1.48,2.73-2.21,4.13a30.86,30.86,0,0,0-1.69,3.69,5,5,0,0,0-.43,2.31c0,0.07,0,.22.66,0.22a4,4,0,0,0,2.09-1.18,41.84,41.84,0,0,0,3.69-3.52c1.36-1.44,2.79-3.06,4.25-4.81s2.88-3.52,4.18-5.22,2.5-3.28,3.56-4.7,1.88-2.5,2.44-3.23a2,2,0,0,1,1.28-.85,2.4,2.4,0,0,1,.4,0,2,2,0,0,1,.81.17,1.65,1.65,0,0,1,.92,1.1,1.8,1.8,0,0,1-.28,1.51c-0.74,1-1.72,2.41-3,4.16s-2.64,3.68-4.16,5.7-3.17,4.12-4.89,6.21-3.47,4-5.17,5.74a39.41,39.41,0,0,1-4.93,4.25A8.13,8.13,0,0,1,395.07,920Z" transform="translate(-227.51 -508.7)"/><path class="cls-3" d="M399.27,875.11a2.3,2.3,0,0,1,1.38.39,1.09,1.09,0,0,1,.54.87,2.72,2.72,0,0,1-.66,1.59l-1.47,1.95a14.57,14.57,0,0,0-1.47,2.46,8.32,8.32,0,0,0-.15,6.12,5.58,5.58,0,0,0,1.29,1.86,7,7,0,0,0,1.71,1.17,15.53,15.53,0,0,1,1.71,1,5,5,0,0,1,1.29,1.2,3,3,0,0,1,.51,1.83,7.09,7.09,0,0,1-.81,2.76q-0.81,1.74-1.92,3.78T399,906.19a31.77,31.77,0,0,0-1.74,3.81,6,6,0,0,0-.48,2.79q0.15,1.08,1.65,1.08a5,5,0,0,0,2.73-1.41,42.65,42.65,0,0,0,3.78-3.6q2.07-2.19,4.29-4.86t4.2-5.25q2-2.58,3.57-4.71t2.43-3.21a1.06,1.06,0,0,1,.66-0.48l0.23,0a1,1,0,0,1,.4.08,0.65,0.65,0,0,1,.36.45,0.83,0.83,0,0,1-.15.69q-1.08,1.5-2.94,4.14t-4.14,5.67q-2.28,3-4.86,6.18t-5.1,5.67a38.25,38.25,0,0,1-4.8,4.14,7.27,7.27,0,0,1-4,1.62,4.19,4.19,0,0,1-2.91-.9,5.26,5.26,0,0,1-1.41-2,8.22,8.22,0,0,1-.48-2.94,13.83,13.83,0,0,1,1-5.46,39.3,39.3,0,0,1,2.25-4.5q1.23-2.1,2.25-4.08a9,9,0,0,0,1-4.2,1.93,1.93,0,0,0-.51-1.38,8.19,8.19,0,0,0-1.29-1.08q-0.78-.54-1.65-1.11a8.4,8.4,0,0,1-1.65-1.44,7.17,7.17,0,0,1-1.29-2.13,8.53,8.53,0,0,1-.51-3.18,8.71,8.71,0,0,1,.81-3.72,10.23,10.23,0,0,1,2.13-3,9.74,9.74,0,0,1,3-2,8.6,8.6,0,0,1,3.42-.72m0-2a10.63,10.63,0,0,0-4.21.88,11.78,11.78,0,0,0-3.61,2.42A12.27,12.27,0,0,0,388.9,880a10.74,10.74,0,0,0-1,4.56,10.38,10.38,0,0,0,.66,3.93,9.19,9.19,0,0,0,1.66,2.72,10.42,10.42,0,0,0,2,1.78l1.61,1.08a6.41,6.41,0,0,1,.94.77s0,0,0,0a7,7,0,0,1-.8,3.28c-0.66,1.28-1.4,2.62-2.2,4a41.49,41.49,0,0,0-2.36,4.73,15.88,15.88,0,0,0-1.18,6.24,10.24,10.24,0,0,0,.61,3.65,7.26,7.26,0,0,0,1.93,2.75,6.12,6.12,0,0,0,4.26,1.42,9.07,9.07,0,0,0,5.18-2,40.4,40.4,0,0,0,5.06-4.36c1.72-1.72,3.48-3.67,5.23-5.82s3.37-4.2,4.91-6.24,2.93-3.95,4.18-5.72,2.21-3.13,2.93-4.12l0,0,0,0a2.82,2.82,0,0,0,.42-2.32,2.63,2.63,0,0,0-1.47-1.75,3,3,0,0,0-1.22-.25,3.44,3.44,0,0,0-.55,0,3,3,0,0,0-1.94,1.25c-0.56.72-1.38,1.81-2.43,3.22s-2.28,3-3.55,4.69-2.69,3.43-4.15,5.19-2.86,3.34-4.21,4.77a40.88,40.88,0,0,1-3.6,3.43,7.73,7.73,0,0,1-1,.75,7.75,7.75,0,0,1,.3-1,29.94,29.94,0,0,1,1.63-3.57Q401.87,905,403,903c0.76-1.4,1.43-2.71,2-3.89a8.84,8.84,0,0,0,1-3.6,5,5,0,0,0-.9-3,7,7,0,0,0-1.8-1.69,17.62,17.62,0,0,0-1.93-1.09,5,5,0,0,1-1.22-.84,3.64,3.64,0,0,1-.82-1.21,5.26,5.26,0,0,1-.34-2.12,5.35,5.35,0,0,1,.46-2.32,12.64,12.64,0,0,1,1.27-2.12l1.46-1.94a4.65,4.65,0,0,0,1.07-2.8,3,3,0,0,0-1.37-2.49,4.27,4.27,0,0,0-2.55-.77h0Z" transform="translate(-227.51 -508.7)"/><path class="cls-2" d="M448.17,920a5.69,5.69,0,0,1-3.4-.88,5.9,5.9,0,0,1-1.72-1.85,6.38,6.38,0,0,1-.73-2.73,16.75,16.75,0,0,1,1.49-6.78,46,46,0,0,1,3.43-6.38c1.31-2,2.7-4,4.11-5.75s2.55-3.28,3.48-4.58a10.65,10.65,0,0,0,1.52-2.66l-0.31,0a4.47,4.47,0,0,0-2.4,1.15,32.41,32.41,0,0,0-3.81,3.46c-1.39,1.45-2.88,3.14-4.42,5s-3.13,3.86-4.63,5.8-3,3.91-4.46,5.81-2.75,3.6-3.91,5.08-2.18,2.71-3,3.63c-1.1,1.21-1.79,1.68-2.45,1.68a5,5,0,0,1-1.94-.38,6.45,6.45,0,0,1-1.49-.85,4.75,4.75,0,0,1-1-1,2,2,0,0,1-.45-1.14,8.43,8.43,0,0,1,1-3.42,45.69,45.69,0,0,1,2.3-4.23c0.92-1.53,2-3.16,3.12-4.84l3.36-5q1.65-2.45,3.08-4.67a33.91,33.91,0,0,0,2.19-3.81,7.36,7.36,0,0,0,.77-2.26h-0.08a4.47,4.47,0,0,0-2.4,1.15,31,31,0,0,0-3.77,3.46c-1.37,1.45-2.85,3.14-4.39,5s-3.1,3.84-4.6,5.79-3,3.92-4.44,5.82-2.75,3.6-3.91,5.08-2.17,2.71-3,3.62c-1.08,1.21-1.76,1.69-2.43,1.69a5,5,0,0,1-1.94-.38,6.46,6.46,0,0,1-1.49-.85,4.75,4.75,0,0,1-1-1,2,2,0,0,1-.45-1.14c0-.32,0-0.47,1.32-2.57q1.17-1.86,2.94-4.73c1.18-1.92,2.47-4.09,3.86-6.46s2.69-4.77,3.9-7.15,2.25-4.66,3.11-6.82a19,19,0,0,0,1.43-5.35c0-.47.3-1.16,1.76-1.31l0.48,0a6,6,0,0,1,1.82.31,6.48,6.48,0,0,1,2.23,1.27,3.7,3.7,0,0,1,1.22,2.95,11.29,11.29,0,0,1-.88,3.93c-0.34.89-.69,1.77-1.07,2.62,0.77-.88,1.61-1.79,2.49-2.73a50,50,0,0,1,4.13-3.92,26.56,26.56,0,0,1,4.46-3.09,9.62,9.62,0,0,1,4.56-1.29,4.34,4.34,0,0,1,3.71,1.67,6.85,6.85,0,0,1,1.13,4.13,8.63,8.63,0,0,1-1,3.45l-0.24.51q0.67-.72,1.4-1.48c1.34-1.38,2.75-2.7,4.18-3.91a26.56,26.56,0,0,1,4.46-3.09,9.62,9.62,0,0,1,4.56-1.29,4.34,4.34,0,0,1,3.71,1.67,6.85,6.85,0,0,1,1.13,4.13,12.26,12.26,0,0,1-1.49,5.37,51.35,51.35,0,0,1-3.4,5.75c-1.31,1.94-2.67,3.85-4,5.68s-2.51,3.44-3.41,4.83a8.66,8.66,0,0,0-1.44,3.06,0.68,0.68,0,0,0,0,.12h0a3.94,3.94,0,0,0,.54,0,4,4,0,0,0,2.09-1.18,41.94,41.94,0,0,0,3.69-3.52c1.36-1.44,2.79-3.06,4.25-4.81s2.88-3.53,4.18-5.22,2.5-3.28,3.56-4.7,1.84-2.48,2.36-3.2a2,2,0,0,1,1.35-.88,2.68,2.68,0,0,1,.4,0,2,2,0,0,1,.82.17,1.56,1.56,0,0,1,.91,1.18,1.92,1.92,0,0,1-.33,1.43l-3,4.17c-1.3,1.78-2.74,3.7-4.28,5.69s-3.24,4.11-5,6.21-3.5,4-5.19,5.74a42.37,42.37,0,0,1-4.86,4.24A7.68,7.68,0,0,1,448.17,920Z" transform="translate(-227.51 -508.7)"/><path class="cls-3" d="M422.71,883.16a4.93,4.93,0,0,1,1.51.26,5.46,5.46,0,0,1,1.89,1.08,2.74,2.74,0,0,1,.87,2.19,10.45,10.45,0,0,1-.81,3.57q-0.81,2.13-1.74,4.11t-1.65,3.39q-0.72,1.41-.54,1.41a5.8,5.8,0,0,0,1.08-1.17q1-1.17,2.49-3t3.45-3.84a48.88,48.88,0,0,1,4-3.84,25.46,25.46,0,0,1,4.29-3,8.6,8.6,0,0,1,4.08-1.17,3.38,3.38,0,0,1,2.91,1.26,5.87,5.87,0,0,1,.93,3.54,7.8,7.8,0,0,1-.87,3q-0.87,1.89-1.89,3.69t-1.8,3.12q-0.78,1.32-.6,1.32a5.77,5.77,0,0,0,1.08-1.17q1-1.17,2.49-3t3.51-3.84q2-2,4.11-3.84a25.44,25.44,0,0,1,4.29-3,8.6,8.6,0,0,1,4.08-1.17,3.38,3.38,0,0,1,2.91,1.26,5.87,5.87,0,0,1,.93,3.54,11.24,11.24,0,0,1-1.38,4.92,50,50,0,0,1-3.33,5.64q-2,2.88-4,5.64t-3.45,4.89a9.8,9.8,0,0,0-1.59,3.45q-0.21,1.32,1.53,1.32a5,5,0,0,0,2.73-1.41,42.72,42.72,0,0,0,3.78-3.6q2.07-2.19,4.29-4.86t4.2-5.25q2-2.58,3.57-4.71t2.37-3.21a1.06,1.06,0,0,1,.69-0.48l0.25,0a1,1,0,0,1,.41.08,0.57,0.57,0,0,1,.33.45,0.94,0.94,0,0,1-.18.69l-3,4.14q-1.92,2.64-4.26,5.67t-5,6.18q-2.61,3.15-5.13,5.67a41.19,41.19,0,0,1-4.74,4.14,6.85,6.85,0,0,1-3.72,1.62,4.81,4.81,0,0,1-2.82-.69,4.9,4.9,0,0,1-1.44-1.53,5.34,5.34,0,0,1-.6-2.28,15.65,15.65,0,0,1,1.41-6.33,44.81,44.81,0,0,1,3.36-6.24,69.59,69.59,0,0,1,4.05-5.67q2.1-2.64,3.51-4.62a10.85,10.85,0,0,0,1.71-3.12q0.3-1.14-1.32-1.14a5.47,5.47,0,0,0-3,1.35,33.26,33.26,0,0,0-3.93,3.57q-2.13,2.22-4.47,5.07T440,903.16q-2.31,3-4.47,5.82t-3.9,5.07q-1.74,2.22-3,3.57a3.66,3.66,0,0,1-1.71,1.35,4,4,0,0,1-1.56-.3,5.44,5.44,0,0,1-1.26-.72,3.83,3.83,0,0,1-.81-0.81,1.23,1.23,0,0,1-.27-0.57,7.59,7.59,0,0,1,.87-3,44.42,44.42,0,0,1,2.25-4.14q1.38-2.28,3.09-4.8l3.36-5q1.65-2.46,3.09-4.68a34.7,34.7,0,0,0,2.25-3.93,8,8,0,0,0,.87-2.7,0.89,0.89,0,0,0-1.08-1,5.47,5.47,0,0,0-3,1.35,31.75,31.75,0,0,0-3.9,3.57q-2.1,2.22-4.44,5.07t-4.62,5.82q-2.28,3-4.44,5.82t-3.9,5.07q-1.74,2.22-2.94,3.57a3.54,3.54,0,0,1-1.68,1.35,4,4,0,0,1-1.56-.3A5.44,5.44,0,0,1,406,918a3.83,3.83,0,0,1-.81-0.81,1.24,1.24,0,0,1-.27-0.57,12.59,12.59,0,0,1,1.17-2q1.17-1.86,2.94-4.74t3.87-6.48q2.1-3.6,3.93-7.2t3.15-6.9a19.83,19.83,0,0,0,1.5-5.64q0-.3.87-0.39l0.38,0m0-2a5.67,5.67,0,0,0-.58,0c-2.28.24-2.62,1.64-2.66,2.24a18.06,18.06,0,0,1-1.36,5c-0.85,2.13-1.89,4.4-3.08,6.74s-2.5,4.75-3.87,7.1-2.67,4.53-3.85,6.44-2.15,3.49-2.93,4.72c-1.28,2-1.48,2.45-1.48,3.11a3,3,0,0,0,.63,1.71,5.73,5.73,0,0,0,1.23,1.25,7.45,7.45,0,0,0,1.72,1,6,6,0,0,0,2.33.45c1.14,0,2.1-.81,3.17-2,0.82-.93,1.84-2.16,3-3.66s2.48-3.2,3.92-5.1,2.91-3.83,4.43-5.81,3-3.88,4.58-5.77,3-3.53,4.35-5a29.93,29.93,0,0,1,3.65-3.34l0.23-.16,0,0a32.9,32.9,0,0,1-2.12,3.7c-0.95,1.46-2,3-3.07,4.65l-3.35,5c-1.15,1.7-2.21,3.34-3.15,4.89a46.6,46.6,0,0,0-2.35,4.33,9.35,9.35,0,0,0-1.06,3.85,3,3,0,0,0,.63,1.71,5.73,5.73,0,0,0,1.23,1.25,7.45,7.45,0,0,0,1.72,1,6,6,0,0,0,2.33.45c1.13,0,2.06-.77,3.19-2,0.85-.94,1.88-2.18,3.07-3.68s2.48-3.2,3.92-5.1,3-3.89,4.45-5.8,3.05-3.87,4.62-5.78,3-3.52,4.37-5a32.66,32.66,0,0,1,3.44-3.17c-0.91,1.28-2.06,2.79-3.42,4.5s-2.84,3.76-4.17,5.83a47,47,0,0,0-3.51,6.52,17.71,17.71,0,0,0-1.58,7.13v0.09a7.35,7.35,0,0,0,.83,3.12v0l0,0a6.9,6.9,0,0,0,2,2.16,6.64,6.64,0,0,0,4,1.07,8.59,8.59,0,0,0,4.9-2,43.36,43.36,0,0,0,5-4.34c1.72-1.72,3.48-3.67,5.26-5.81s3.42-4.2,5-6.23,3-3.92,4.29-5.72l3-4.15,0,0,0,0a2.9,2.9,0,0,0,.48-2.15,2.57,2.57,0,0,0-1.48-1.93,3,3,0,0,0-1.23-.25,3.67,3.67,0,0,0-.54,0,3,3,0,0,0-2,1.29q-0.77,1.06-2.35,3.18c-1.06,1.42-2.25,3-3.55,4.69s-2.69,3.43-4.15,5.19-2.86,3.34-4.21,4.77a41,41,0,0,1-3.6,3.43l-0.31.25c0.16-.29.35-0.61,0.59-1,0.89-1.38,2-3,3.37-4.78s2.76-3.77,4.08-5.72a52.28,52.28,0,0,0,3.46-5.87,13.23,13.23,0,0,0,1.59-5.81,7.81,7.81,0,0,0-1.32-4.73,5.3,5.3,0,0,0-4.52-2.07,10.6,10.6,0,0,0-5,1.41,27.55,27.55,0,0,0-4.63,3.2c-0.93.79-1.85,1.61-2.75,2.48q0-.15,0-0.29a7.81,7.81,0,0,0-1.32-4.73,5.3,5.3,0,0,0-4.52-2.07,10.6,10.6,0,0,0-5,1.41,27.57,27.57,0,0,0-4.63,3.2c-1.15,1-2.26,2-3.33,3.08a9.48,9.48,0,0,0,.29-2.21,4.68,4.68,0,0,0-1.56-3.7,7.48,7.48,0,0,0-2.58-1.47,7,7,0,0,0-2.13-.36h0Z" transform="translate(-227.51 -508.7)"/><path class="cls-2" d="M469.52,920a9.16,9.16,0,0,1-3.84-.75,8.23,8.23,0,0,1-2.69-1.92,7.6,7.6,0,0,1-1.59-2.69,9,9,0,0,1-.5-2.9,4,4,0,0,1,.53-2.24,2,2,0,0,1,1.54-1h0.13a1.9,1.9,0,0,1,1.51.8,3,3,0,0,1,.58,1.91,3.72,3.72,0,0,0,.84,2.36,3.37,3.37,0,0,0,2.78,1,3.26,3.26,0,0,0,2.95-1.35,9.31,9.31,0,0,0,1.34-4.2,31.46,31.46,0,0,0,0-6.16c-0.22-2.31-.52-4.63-0.89-6.89s-0.74-4.44-1.08-6.41a30.12,30.12,0,0,1-.52-4.88,8.8,8.8,0,0,1,1-4.19,11.94,11.94,0,0,1,6.12-5.5,10.52,10.52,0,0,1,3.91-.79,3.29,3.29,0,0,1,2,.58,2,2,0,0,1,1,1.68,3.55,3.55,0,0,1-.95,2.23q-0.71.86-1.54,1.93a15.22,15.22,0,0,0-1.46,2.31,5.82,5.82,0,0,0-.61,2.72,28.91,28.91,0,0,0,.46,5.16c0.32,1.75.67,3.51,1,5.22s0.73,3.48,1.06,5.19a28.83,28.83,0,0,1,.5,5.32c0,0.45,0,.91-0.06,1.38l0.63-.68c1-1.1,2.05-2.3,3.13-3.57s2.12-2.57,3.15-3.92,2-2.64,2.9-3.86l2.4-3.27,1.64-2.27a2,2,0,0,1,1.31-.88,2.39,2.39,0,0,1,.4,0,2,2,0,0,1,.81.17,1.65,1.65,0,0,1,.92,1.1,1.8,1.8,0,0,1-.28,1.51q-1.11,1.54-2.85,4.14c-1.19,1.77-2.55,3.69-4,5.71s-3.16,4.12-4.93,6.23a56.12,56.12,0,0,1-5.56,5.77,32.67,32.67,0,0,1-5.94,4.27,12.93,12.93,0,0,1-6.24,1.74h-0.9Z" transform="translate(-227.51 -508.7)"/><path class="cls-3" d="M481.64,875.11a2.3,2.3,0,0,1,1.38.39,1.09,1.09,0,0,1,.54.87,2.6,2.6,0,0,1-.72,1.59q-0.72.87-1.56,1.95a16.17,16.17,0,0,0-1.56,2.46,6.78,6.78,0,0,0-.72,3.18,29.76,29.76,0,0,0,.48,5.34q0.48,2.64,1.05,5.25t1,5.16a27.7,27.7,0,0,1,.48,5.13,16.05,16.05,0,0,1-.15,2.13,12.66,12.66,0,0,1-.45,2.07,28.83,28.83,0,0,0,2.91-2.82q1.53-1.68,3.15-3.6t3.18-4q1.56-2,2.91-3.87l2.4-3.27,1.65-2.28a1.06,1.06,0,0,1,.66-0.48l0.23,0a1,1,0,0,1,.4.08,0.65,0.65,0,0,1,.36.45,0.83,0.83,0,0,1-.15.69q-1.08,1.5-2.85,4.14t-4,5.67q-2.25,3-4.89,6.18a54.77,54.77,0,0,1-5.46,5.67,31.53,31.53,0,0,1-5.76,4.14,11.89,11.89,0,0,1-5.76,1.62h-0.9a8.14,8.14,0,0,1-3.42-.66,7.21,7.21,0,0,1-2.37-1.68,6.58,6.58,0,0,1-1.38-2.34,8,8,0,0,1-.45-2.58,3.08,3.08,0,0,1,.36-1.68,1.09,1.09,0,0,1,.78-0.57h0.05a1,1,0,0,1,.73.42,2,2,0,0,1,.36,1.29,4.73,4.73,0,0,0,1,3,5.1,5.1,0,0,0,7.35-.45,10.23,10.23,0,0,0,1.5-4.65,32.33,32.33,0,0,0,0-6.36q-0.33-3.51-.9-7t-1.08-6.42a29.42,29.42,0,0,1-.51-4.71,7.77,7.77,0,0,1,.93-3.72,11,11,0,0,1,2.37-3,10.87,10.87,0,0,1,3.24-2,9.49,9.49,0,0,1,3.54-.72m0-2a11.52,11.52,0,0,0-4.28.86,12.94,12.94,0,0,0-6.63,6,9.79,9.79,0,0,0-1.17,4.66,31,31,0,0,0,.54,5q0.51,3,1.08,6.41c0.37,2.24.67,4.54,0.88,6.82a30.49,30.49,0,0,1,0,6,8.34,8.34,0,0,1-1.18,3.75,2.22,2.22,0,0,1-2.12.91,2.69,2.69,0,0,1-2-.58,2.72,2.72,0,0,1-.63-1.74,4,4,0,0,0-.8-2.54,2.9,2.9,0,0,0-2.29-1.17h-0.2a3,3,0,0,0-2.3,1.46,4.91,4.91,0,0,0-.7,2.79,10,10,0,0,0,.56,3.22,8.59,8.59,0,0,0,1.8,3,9.23,9.23,0,0,0,3,2.15,10.14,10.14,0,0,0,4.25.84h0.9a13.91,13.91,0,0,0,6.73-1.87,33.68,33.68,0,0,0,6.13-4.4,57,57,0,0,0,5.66-5.88c1.78-2.12,3.45-4.23,5-6.27s2.88-4,4.08-5.75,2.1-3.1,2.81-4.09l0,0,0,0a2.82,2.82,0,0,0,.41-2.32,2.63,2.63,0,0,0-1.47-1.75,3,3,0,0,0-1.22-.25,3.44,3.44,0,0,0-.55,0,3,3,0,0,0-2,1.29l-1.64,2.27L492,895.2c-0.87,1.19-1.85,2.48-2.89,3.84s-2.07,2.64-3.12,3.89c-0.66.79-1.32,1.55-2,2.27a29.91,29.91,0,0,0-.49-4.26c-0.33-1.72-.68-3.48-1.06-5.22s-0.72-3.44-1-5.18a27.89,27.89,0,0,1-.45-5,4.78,4.78,0,0,1,.49-2.26,14.24,14.24,0,0,1,1.36-2.16c0.55-.7,1.06-1.34,1.52-1.9a4.51,4.51,0,0,0,1.18-2.87,3,3,0,0,0-1.37-2.49,4.27,4.27,0,0,0-2.55-.77h0Z" transform="translate(-227.51 -508.7)"/></svg>
