<svg id="Layer_1" data-name="Layer 1" xmlns="http://www.w3.org/2000/svg" viewBox="0 0 399.04 552.11"><defs><style>.cls-1{fill:#FFF;}</style></defs><title>Talking Tree</title><path d="M182.6,95.61c2.8,2.4,4.7,1.7,6.7,4.3a39.39,39.39,0,0,1,5.5,10.1c1.6,4.4,2.2,15-4.9,16.2-4.3.7-9.3-6.2-11.2-10-1.8-3.4-1.7-6.7-.5-10.6,1.3-3.6,4.2-5.4,4.4-10C183.1,96,182.6,96.51,182.6,95.61Z"/><path d="M247.4,126.31c-4.5,0-5.8,2.8-9.6-1.4-1.8-2-1.9-3-2.4-5.5a17.93,17.93,0,0,1,4.8-16.3c3.4-3.5,5.1-6,8.2-1,1.2,2.1,1.9,4.5,3,6.2,0.5,0.8,1.2,1.6,1.6,2.4,0.7,2,.4,5.5,0,7.2a8.57,8.57,0,0,1-1.2,3.4c-2.2,2.1-4.4.4-4.4,5C246.9,126.31,247.4,124.11,247.4,126.31Z"/><path d="M215.7,110.71c0,1.3,2.3,3.4,3,4.7a17.74,17.74,0,0,1,2.7,11.9c-0.3,3.6-1.5,5-2.5,7.6-0.8,1.9-.6,2.5-2.7,3.9-2.5,1.7-4.3,5.1-7,2.9-1.2-1-.8-1.8-1.7-2.9-1.3-1.8-3.2-1.8-4-4.3-0.6-1.9-.4-3.1-0.1-5.5s1-3.3,1.4-4.8c0.9-3.4,2.2-4.6,4.3-7.4,1.8-2.4,3.7-5.7,6.6-6.1C215.7,110.81,214.7,110.81,215.7,110.71Z"/><path d="M301.9,111.91c2,0,3.9,12.4,3.9,14.2a13.85,13.85,0,0,1-2,7.6c-0.2.4-1.6,3.3-1.7,3.4-0.3,0-.7-0.1-1-0.1-1.3-.2-2.2.5-2.6,2-0.5.3-.5-0.2-1,0a11.55,11.55,0,0,1-3.4,1.2,8.81,8.81,0,0,1-8.6-1.9c-2.5-2.5-5.4-5.2-4.6-9.1a14.83,14.83,0,0,1,4.8-8.6c3.2-3,5.6-3.8,9.1-5,1.6-.6,6.5-1.4,7.1-3.7C302.1,111.91,301.7,112.51,301.9,111.91Z"/><path d="M147.8,117.21c4.2,1.1,11.5,7.4,13,11.3a33.68,33.68,0,0,1,1.4,7.7c0.2,1.3.7,3.6,0.1,5.1-0.1.2-5.3,4.6-3.5,5.2-2.8,0-2.2.8-4.6-.2a17.54,17.54,0,0,1-7.3-6.7c-2.4-3.6-3.5-9.8-2.4-13.9,0.8-2.8,3.3-5.3,3.3-8.5C148.5,117.31,147.8,117.31,147.8,117.21Z"/><path d="M265.7,123.61c2.8,0,5.2,5.1,5.8,6.7a16.57,16.57,0,0,1,.8,9.4,18.57,18.57,0,0,1-3.5,7.2,23.28,23.28,0,0,1-2.6,2.8c-2,1.4-1.4-.1-3.8,1.3-1.3.7-.9,2.3-2.9,2.9-7.8,2-6.8-14.9-5.6-18.2a18.71,18.71,0,0,1,4.4-7.4,10.07,10.07,0,0,1,2.8-2.6c1.4-.8,3.4-0.3,4.6-2.1C265.9,123.61,265.5,123.91,265.7,123.61Z"/><path d="M107.3,128c3.6,1.2,6.2,2.2,10.3,3.4a23.54,23.54,0,0,1,6.7,3.4c4,2.8,6.1,8.9,6.2,13.9,0.1,2,.2,8.6-2.9,8.9-1.8.2-4-2.9-5-3.6a29.6,29.6,0,0,0-5-2.6c-9.4-4.3-9.8-14.7-10.3-23.4C107.5,128,107.3,129.21,107.3,128Z"/><path d="M174.2,134.71c2.4,0,1.9-3.1,3.8-3.1s3.1,4.5,3.6,5.3c2.2,3.6,4.8,6.6,4.8,11.3a23.37,23.37,0,0,1-.8,7.4c-1.7,4.7-6.6,7.7-11,5.2-4.2-2.4-5.3-7.9-5.5-12.2a12.57,12.57,0,0,1,1.5-6.9c1.4-2,3.4-4.3,3.6-7C174.6,134.71,174.1,135.51,174.2,134.71Z"/><path d="M235.7,134.21c0,1.7,5.9,5.4,7,7.9a14,14,0,0,1,1,6.5c-0.3,4-1.7,4.4-3.4,7.7-1.5,3.1-2.5,5.5-6.7,7.1a7.55,7.55,0,0,1-3.9.5c-0.3-.1-2.4.2-2.8-0.2a39.27,39.27,0,0,0-1-4.4,25.27,25.27,0,0,1-.7-14.3,21.6,21.6,0,0,1,2.6-6.5c0.9-1.4,5-4.1,5-5.5,0.8,0,1.4,1.2,2.9,1.2C235.7,134.41,234.4,134.21,235.7,134.21Z"/><path d="M311.7,165.41c-1.1,0-2.7,2.6-3.6,3.1-1.1.7-5.5,1.7-4.3,3.6,1.1,0-4.1-.8-3.6-1,0,0.7-.2-0.4-0.2,1-2.1,0-6.2-2.5-6.6-5-0.3-1.8,1.4-1.7,1.6-3.1,0.3-1.8-.7-2.5-0.7-3.8,0.1-5.1,4.3-7.1,8.6-9.6,2.3-1.3,7.1-5.3,9.8-3.8,1,0.5,2.2,3.8,2.4,4.6a14.82,14.82,0,0,1,0,9.1c-0.7,1.7-2.9,3.2-3.4,4.9C311.6,165.41,311.9,164.71,311.7,165.41Z"/><path d="M282.9,177.21c-1.6.3-2.2,1.9-3.4,2.4a21.94,21.94,0,0,1-4.2.4c-0.6,0-2.5-.2-3.7-0.1-0.2-6.4-3.8-10.3-1.3-17a22.88,22.88,0,0,1,3-5,42.34,42.34,0,0,1,3.2-4.2c0.8-1,3.9-5.4,4.7-5.4,1.4,0,4.3,5.6,4.8,6.5a21.94,21.94,0,0,1,2.2,6,15.81,15.81,0,0,1,0,6.5c-0.6,3.6-4.1,6.4-5.3,9.9C281.7,177.41,283,176.91,282.9,177.21Z"/><path d="M207.8,153.41c0,2.9,6.5,6.3,7.7,8.9,0.9,2,.7,6.4.1,8.6-0.9,3.2-3.6,9.8-7.6,11-2.1.6-5.7-.8-7.5-1.7-9.2-5-1.9-29.9,7.3-26.8C207.8,153.61,207.6,153.31,207.8,153.41Z"/><path d="M90.9,160.81c1.4,4.6,5.9,10.9,1,13a12,12,0,0,1-10.3-.5,19.51,19.51,0,0,1-8.2-7.1c-1.4-2.2-1.1-4.6-1.3-7.3a21.42,21.42,0,0,0-1.6-5.3c4.6-.2,8.2,0,12,1.4a17.47,17.47,0,0,1,4.3,2.2c1,0.7,3,3.3,4.1,3.6C91.3,162.11,90,160.61,90.9,160.81Z"/><path d="M137.3,156.31c6.2-1.2,12.7-1.2,17.5,4.6,2.1,2.5,10.5,11.5,8.4,15.1-1.4,2.6-7.6,1.6-9.6,1.4a15,15,0,0,1-7-2.4c-3.3-2.3-5.1-5.1-6.7-8.6a9.29,9.29,0,0,1-1-3.8c-0.2-2.7-1-3.9-1.6-6.3C137.8,156.21,137.5,157,137.3,156.31Z"/><path d="M123.8,181c-7.5,1.7-11.8.1-16.8-5.9-1.8-2.1-4.9-6.1-5.2-8.2-0.5-3.5.1-6.8-1-10.1a39.24,39.24,0,0,1,4.3,1c1.2,0.1,2.3-.3,3.8-0.2,1.7,0.1,6.1,1.9,7.7,2.9,3.8,2.4,7.2,8,8.4,11.5,0.2,0.7.8,1.8,1,2.6,0.6,3.4-1.7,3.5-2.2,6.4C122.8,181.21,124,180.21,123.8,181Z"/><path d="M253.4,159.91c0.9,0,3.5,3.6,4.3,4.8a13.22,13.22,0,0,1,2.4,8.4,6.38,6.38,0,0,0-1,1.4c-0.2.9-.6,1.4-0.9,2.4a15.77,15.77,0,0,1-2.6,5.8c-4,5.3-14.8,8.5-17.5,2.4-2.3-5.1-.4-9.2,1.9-13.2a18.67,18.67,0,0,1,5.5-6.5c1.3-.9,2-1.5,3.1-2.2,0.7-.4,1.4-0.1,2.2-0.5s2.6-1.6,2.6-2.8C253.6,159.91,253.4,160.11,253.4,159.91Z"/><path d="M305.5,171.61c-0.7,0-.2-0.7,0,0C305.3,171.61,305.4,171.21,305.5,171.61Z"/><path d="M174,175.71c6.4,4.6,10.9,11,12.2,17.8,1,5.1,2.6,12.7-3.3,14.8s-9.4-.2-11.5-5.4c-1.4-3.3-4-6.4-5-10.1,0.4,0.2,2.7-8.5,3.6-10.1,1.2-2.4,3.3-4.2,4-7C174.5,176.11,173.9,176,174,175.71Z"/><path d="M295.7,176.71c4.7,0,7.1,7.6,7.2,10.8a24.64,24.64,0,0,1-.2,4.6,17.3,17.3,0,0,1-1.2,2.6c-0.5,1.8-.4,4-1.7,6,2.4-3.7-4.4,5.5-1.4,1.7-0.1.2-.8,0.7-1,1a16.07,16.07,0,0,1-2.4,2.9,9.85,9.85,0,0,1-5.3,1.2c-2.6,0-3.1-.9-4-2.4-1.2-1.9-2.6-7.1-1.8-9.6a57,57,0,0,1,2.3-5.5,50.8,50.8,0,0,1,3.5-7c1.5-2.5,5-2.8,6-6.3C296,176.71,295.5,177.41,295.7,176.71Z"/><path d="M319.7,203.81s-3.4-1.9-3.8-2.2c-1-.5-2-1.1-3.1-1.6-1.3-.5-3-1-3.8-2.5,3.8-.8,3.1-4.7,3.1-6.7,1.1,0,.9.4,1.4-0.7s-0.8.2,0.7-2.2a27,27,0,0,1,2.8-3.1c2.2-2.4,4.4-5.1,7-6.8s12.8-2.6,13.6,1.8c0.2,1.2-1.9,6.9-2.4,8.2a34.89,34.89,0,0,1-2.9,5.8,19.44,19.44,0,0,1-6,5.4c-2,1-6,2.2-6.6,4.6C319.5,203.81,319.7,203.51,319.7,203.81Z"/><path d="M228.9,181.51c-0.2,3.9.7,7.2-.8,11.3-1.5,3.9-5.2,8.5-8.5,11.8a9.29,9.29,0,0,1-3.1,2.2c-1.4.4-3.4,0-4.6,0.2-0.5.1-1.3,0.9-1.7,1-2.1.2-5.1-.8-6-2.3s1.4-6-1.7-6.1c0-.3.9-1.7,1-1.2,0.1,1.2.8-2.3,0.5-1.8,0.5-1.1.8-2.8,1.4-4,1.5-2.9,4.4-5.6,7.3-7.7a24.09,24.09,0,0,1,7.2-3.9c1.4-.4,3.1-1.4,5.2-1.1,1.5,0.3,2.5,1.4,3.8,1.6C228.9,182.11,227.4,181.31,228.9,181.51Z"/><path d="M274.8,180.51c0.4,0.4,0,.9,0,0C275.1,180.81,274.8,180.71,274.8,180.51Z"/><path d="M128.1,182.91c3.7,0,9.5,0,13.5,1.9a23.1,23.1,0,0,1,5,3.4c2.4,2.1,2.3,3.9,3.6,6.5s2.4,4.6.7,7.7c-1.2,2.3-4.1,5.3-6.5,5.9-5.9,1.5-11.5-5.5-13.2-9.7-1.1-2.7-.9-5.3-1-7.7,0-2.1-2.5-6.5-2.1-8C128.6,182.91,127.8,184.11,128.1,182.91Z"/><path d="M258.7,184.81c7,1.7,7.8,10.4,5.8,14.8-1.4,3-6.4,9.1-9.1,10.7,0-2.4-4.2-1.6-5-2.1a7.76,7.76,0,0,1-1.4-2.7c-1-3-.1-4.9,1.1-7.4a28.8,28.8,0,0,1,2.4-4.6c1.6-2.3,6.1-5.4,6.2-8.7C259.6,185,258.6,186.51,258.7,184.81Z"/><path d="M234.2,191.31c5.2,1.2,11.3,3.9,11,10.8-0.1,3.2-1.1,8.4-2.8,11.5-2.4,4.5-7.7,10.3-12.6,5a21.77,21.77,0,0,1-3.6-6,10.68,10.68,0,0,1,1.2-10.8c2-2.7,6-6.3,6.8-10.5C234.9,191.51,233.9,193,234.2,191.31Z"/><path d="M74.1,194.21c3,0.1,5.9-1,9.4-.7,4,0.3,6.9,1.5,10.3,2.9,1.5,0.6,4.2,1.4,5.8,2.6,2.7,2.2,4.1,5.8,3.1,8.9-0.3,1.1-1.1,4.4-1.8,5.3-3.6,5-12,2-15.9-1.7-2.2-2.1-5.2-4.6-6.7-7.2-0.8-1.4-.5-3.2-1.2-5-0.6-1.4-2.5-3.2-3-5.1C74.6,194.21,74.3,195,74.1,194.21Z"/><path d="M112.5,196.61a53.59,53.59,0,0,1,10.3,2.2,14.42,14.42,0,0,1,7.3,4.9c2.6,3.3,7,7.4,4.9,11.9-1.1,2.4-2.2,2.9-4.8,3.8a13.54,13.54,0,0,1-13.8-2.6c-5.3-5-2.7-12.1-6.6-18a2.88,2.88,0,0,0,2.7-2.2C113.8,196.71,112,197.91,112.5,196.61Z"/><path d="M267.8,234.51c-2.7-.6-4.5-3.6-5.6-6a22.34,22.34,0,0,1-1.8-10.3c0.2-4.4,2.7-9.9,6.2-13.7,0.5-.5,3.5-4.3,4.4-4.2,1.4,0.1,4,4.7,4.9,5.9,3.2,4.7,4.1,11.8,3.1,17.5a10.05,10.05,0,0,1-3.5,6.6,40,40,0,0,1-3.1,2.7,7.5,7.5,0,0,1-3.1.8c-0.7.2-1.7-1.7-1.5,0.7C267.4,234.41,267.8,234,267.8,234.51Z"/><path d="M306.7,225.91c-1.2,0-3.3,3.2-4.1,3.8a16.44,16.44,0,0,1-6,3.2c-6.4,1.5-10.3-3.9-9.1-9.7a17.15,17.15,0,0,1,4.3-8.6,28.28,28.28,0,0,1,7.1-5.5c1.8-1.1,5.8-1.9,7.1-3.8,2.9,2.6,3.2,6.7,3.2,10.7,0,3.7-1.6,6.5-2.5,9.9C306.5,225.91,306.8,225.31,306.7,225.91Z"/><path d="M172.3,215.11c0,0.5,2.5,3.8,3,4.8a21.1,21.1,0,0,1,1.6,3.4,7.22,7.22,0,0,1-1.4,7.4c-1.8,1.9-2.9,1-5.3.7-5.3-.6-9.2-1.9-12.2-6.2-3.2-4.7-2.1-9.1-5.3-13.9,1.7-.4,1.4-4.2,1.2-5.5,3.8-1.4,7.6,2.2,10.1,3.6,1,0.6,1.8.9,3.1,1.6,1.5,0.8,3.7,3.6,5.2,4.1C172.3,215.21,171.2,214.71,172.3,215.11Z"/><path d="M195.8,241.71c0.4-2.2-2.7-2.9-4.1-4.3-0.9-1-1.9-1.7-2.4-3.1-1.7-4.5-.7-10.2.5-14.4,1.3-4.7,5.2-15,12.2-9.6,3.3,2.5,4.5,9.6,4.6,13.2,0.1,6-.7,8.4-3.8,13.4-2.4,4-2.5,3.7-7,4.8C195.9,241.31,196.1,241.61,195.8,241.71Z"/><path d="M258,239.61c-2.5.8-3.8,0.3-3.1,3.8-0.4,0-.4-0.6-1-0.7-1.3,2.5-.7,3.3-4.3,3.1a2.4,2.4,0,0,1-1.4-.2c-1.9-.9-3.3-4.3-4.1-6-2.7-5.9.2-12,1.9-17.2,0.8-2.4.6-4.6,4.1-3.1a25.67,25.67,0,0,1,5.2,3.4,17.79,17.79,0,0,1,4.8,7.3c0.9,3.7-2.5,6.2-2.1,9.6C257.7,239.61,257.9,238.91,258,239.61Z"/><path d="M337.4,227.11c-0.1,1.8,1,3.5-.2,4.8,2-2-3.9,1.6-3.1,1.2-0.5.2-.6,1-1,1.2-2.9,1.8-6,4-8.6,4.8-5,1.5-13.4,3-17.8-1.4-4.1-4.2-1.8-6.3,1.2-9.8,2.3-2.7,5.7-4.7,8.9-6.5a13.92,13.92,0,0,1,13.2-.5c2.9,1.5,4.1,5.1,7.4,6.2C337.4,227.51,337.2,227,337.4,227.11Z"/><path d="M209.5,250.11c-1.1-4.7-2.1-7.3-.5-11,1-2.3,2.9-4.4,4.3-6.2,3.9-4.9,7.7-9.2,13.7-10.2,7.2-1.2,4.5,4.4,4.6,8a23.31,23.31,0,0,1-1,8.6c-0.5,1.4-3,3.8-3.6,5-1.1,2.4-1.7,3.5-4.3,4.8-1.6.7-4.3,1.7-6.2,2.4a19.74,19.74,0,0,1-3.6,1c-2.5-.6-0.9-2.4-3.4-2.4C209.1,248.61,209.8,250.11,209.5,250.11Z"/><path d="M152.6,252.81c1.1,0-3.7,2.4-3.8,2.4-0.9.4-1.6,1.1-3,.9a11.87,11.87,0,0,1-5.4-2.6c-3.8-3.5-4.5-10.7-3.6-15.6,0.5-3,0-6.9,2.4-9.1,0.1-.1.4-1.1,0.5-1.2,1.2-.7,4.9.7,6.2,1.4,1.5,0.8,3,2.7,4.2,4.1,4.6,5.3,4.1,12.6,2.5,19.7C152.5,252.81,152.8,252.11,152.6,252.81Z"/><path d="M104.4,227.81c10.4-.2,15.2,2.3,20.4,9.8a15.17,15.17,0,0,1,2.4,7.7c0.4,4.1-.7,7.9-5.4,6.7-4-1-9.8-4.8-12.1-8.4-3.2-4.8-3.5-10.3-5.3-15.8C107.9,227.71,104.5,228.31,104.4,227.81Z"/><path d="M312,248.21c-1.4,5.2-9.4,8.1-13.2,8.6a30.84,30.84,0,0,1-10.6-.6,13.35,13.35,0,0,0-1.2-.6c-0.9-.2-0.9-0.5-1.8-0.7-2.1-.5.4,1.2-1.6,0.3-3.4-1.4-4.7-4.3-7.2-5.9-0.8-.5-3.4-1.6-3.1-3.1,0,0.3,4.6-3.6,4.8-3.6,0,0.4,0,1,.5,1,0-3.5,6.2-4.8,8.9-4.8,3.8,0,6.7,1.4,9.6,2.2a29.85,29.85,0,0,1,8.4,2.9c2.2,1.2,3,3.6,6.5,4.3C311.7,249.31,311.6,248.11,312,248.21Z"/><path d="M90.2,238.81c7.1-.1,13.7,2.6,17,6.7,2.5,3.1,1.5,3.1,1.2,6.5-0.1.9,0.6,2.4,0.1,3.4-1.5,2.6-3.1.7-5,1.4-3.2,1.2-6.3,1.1-10.8-.2a12,12,0,0,1-6.2-4c-2-2.3-3.3-5-4.6-6.8-1.2-1.6-3.8-2.6-2.6-4.2a12.9,12.9,0,0,1,3.1-.8c1.8-.5,6.3-0.5,7.8-2C93.4,238.81,89.5,239.51,90.2,238.81Z"/><path d="M267.8,243.61c0.8,4.2-3.3,4.7-4.3,8.4,1,0,3.3,1.3,4.1,1.4,1.4,0.3,3.5.2,5.3,0.7,3.4,0.9,6,4.7,8,7.4,1.2,1.6,5.4,11.3,6.6,11.3-0.3.8-3,1.8-.2,2.4-4.4,4.4-12.1,1.3-16.9-1-6.4-3-5.3-10-7.8-15.1-2.8-5.7-3.8-.8-6,2.2-3.1,4.1-6.4,9.1-10.6,12.4-1.7,1.3-4.2,2.3-6.1,3.8s-3.4,3.2-5.1,4.6c-2.3,1.9-9.3,3.7-10.1,7.6-3.1-3.1-3.4,5.7-3.6,7.2-0.4,3.8,0,10.1-.2,13.3a70.54,70.54,0,0,0,1.2,16.4c0.9,4,.5,6.2,3.8,5.3,2.6-.7,5.2-2.2,7.8-3.1,0.6-.2,1-1,1.6-1.2s0.7,0.6,1.7.2c0.8-.2,2.1-0.9,2.9-1.2,2.9-1,5.4-5.3,3.1-8.9-1.7-2.7-7.5-.8-10.3-1.4-1.8-.4-11.4-5-5.8-6.2,0-1-4.2-4-.5-3.4,0-1.6-.9-3.5-1-5.3,1.1,0,2.1,1,2.9,1.4,3.6,2.1,3.9,3.5,8.9,4.3-0.7-3.4-3.3-5.2-3.8-8.2-0.8-4.3-.6-8.8-1-14.4,0.6,0,1.9,2,1.9,0,2.2,0,3.5,1.2,5.8,1.9a5.73,5.73,0,0,1,1-1.9,4.39,4.39,0,0,0,2.9,1.7c-0.7,4.4-3.3,9.1-2.8,14,0.5,4.1,1,3.7,4.4,3a23.69,23.69,0,0,1,8.4,0c2.2,0.5,4.8,1.7,6.1.8,2.5-1.8,2.4-4.5,6.4-3.4,1.8,0.5,3.1,1.5,4.7,1.9,0.9,0.2,5.3-1,4,1.8-0.2.5-2.6-.1-3.7,0.9-3.7,3.5,4.2,4.5,3.4,7.6-2.6-.7-4.2-2.6-6.5-2.9-4-.6-6.3,3-9.1,4.6-2,1.1-5.4,1-7.4,2.6-1.1.9-2.6,6.2-3.8,6.2,0.1-.3,16.2.3,17.5,0.7,2.1,0.7,3.8,2.6,6.2,3.1,1.1,0.2,3.4-.4,4.6.4a4.85,4.85,0,0,1,1.4,2.5c1.3,0.9,2.3.1,3.8-.1,6.3-.9,11.7,1.2,14.8,7.1,1.1,2.2,3.6,6.6,1.6,8.8-2.6,3.1-8,1.7-10.9.7-4.1-1.4-7.3-6.2-11.3-9.4-1.3-1-3-.4-3.6-2.4a2.13,2.13,0,0,1,1.2-.7,20,20,0,0,0,.5-2.7c-0.1-1.5,1.5-.4-0.8-0.9-2.9-.7-7.3-0.5-10.1-0.4-1.3.1-6.9,0.5-7,1.9,0,0.4,4.5,4.1,5.2,4.7,4.5,3.9,13.7,11.9,9.7,18.5s-12.6-.5-14.4-4.8a20.64,20.64,0,0,1-1.7-6c-0.2-2.9.8-7.1,0.1-9.4-1.3-4.4-4.2-1.7-7-.4a31.76,31.76,0,0,0-5.5,3.4c-5.3,4-9.9,9-14.5,14.4-8.6,10-3.8,23.2-6.4,35.5-0.5,2.2-2,4.3-2.6,6.7-0.8,3.5-.1,8.8.1,11.8,0.4,7.3-.7,16.2-0.7,23.5,0,4.7-.7,8.7-0.7,12.5,0,3.5.7,8.6,1,12.2a123.78,123.78,0,0,0,3.5,20.4c1.1,4.4,3.2,10.8,4.8,15.1,2,5.2,2.8,9.2,5.6,13.9a8.22,8.22,0,0,1,1.6,3.4c0.2,1.9-2.8-1.8-1.1,2.1a12.14,12.14,0,0,0-1.4,1s-2.5-.3-2.7-0.3c-0.7-.1-2.2-1.2-2.9-1.4-2.6-.7-3.2.5-5.1-0.2-1.5-.5-2.9-2.6-4.1-3.3-2.4-1.4-2-.5-4.1.4-0.4.2-4.1-.3-4.5,0.1-1,.9,1.3,3-2.1,3.2,0-1.8-3.7-1.3-2.4,1.4-2.3-.3-2.6.2-4.8-1.2-0.6-.4-2.3-2.7-2.9-2.9-1.2-.3-2.6,1.7-4.2,1.3-1-.2-2.3-2.3-3.1-2.8-1.5-.9-1.9-0.8-4,0.1-1.8.8-2.9,2-4.8,2.3-2.1.3-5.8-1.3-5.8,2.6-4.6,0-8.4.3-12-4.1,7.1-.4,7.1-7.8,8.4-11.6,2.2-6.5,5.3-14.8,7.4-20.5,2.8-7.5,3.6-16,4.6-25.4,1.1-10.8,1.3-20.3,1.7-31.7,0.2-8,1.1-15.7,1-23.2-0.1-9.3,2.3-18.1,2.2-27.2-0.1-7.9.2-14.5-3.2-20.4-1.1-1.8-2.2-4.1-3.5-5.8-2.4-3.1-6.3-5-8.9-7.2-5.3-4.6-11.1-9.3-17-10.9a35.35,35.35,0,0,0-11-1.3c-4.7.2-8.2,0-11.3-4.1a78.32,78.32,0,0,0,10.1-1.7c3-.6,5.1.1,5.5-3.4a12,12,0,0,1-8-9.6c-0.2-1.9-.7-5.4-0.1-7.2,0.5-1.5,2.4-.6,1.4-2.6,5.4,0,11.1,4.2,12.5,8.6,0.5,1.6,2.3,10.3-1.7,10.3,0.7,2.1,6,2.7,7.9,3.1,1.5,0.3,3.5.9,5.2,1.4,4.2,1.3,9,4.4,13.1,6.5,1.5,0.8,6.1,5.1,7.1,4.1,0.6-.6.6-6.1,0.6-6.7a26.79,26.79,0,0,1,.2-5.5,1.81,1.81,0,0,0,1.4,1c0.3-.8-0.2-1.6-0.5-2.4a3.13,3.13,0,0,0-1,.5c0-.9-0.2,1.1-0.2-1.4a3.13,3.13,0,0,1,1,.5c0-8.6.8-15.8-5-22.4a21.34,21.34,0,0,0-5.3-4.2,21.41,21.41,0,0,0-2.7-1.6c-0.8-.3-1.5.2-2.1-0.1-2.2-1.1-5.9-4.5-8.9-4.3,0-3-3.2-6.9-4.3-9.1s-3.3-4.3-3.8-6.5c3,0.5,4.1.1,6.2,1,2.8,1.1,6,1.7,8.4,3.1,3.5,2,7,4.1,10.6,6.2,3.2,2,9,6.3,13.2,4.9,5.9-1.9,2.2-14.2,1-18.4-0.4-1.5-1.7-4-2.2-5.8-0.4-1.5-2.7-6.5-1.8-7.8,1.1-1.6,1.7.8,2.8,1.1,3.1,0.9,1.2-.4,2.9-0.7,2.4-.5,3.6-0.3,6,1.2s4.9,1.3,6.8,3.8c1.5,2,1.4,5.7,2.3,7.7a44.06,44.06,0,0,0,3.6,6.4c4,5.7,8.9,6.7,14.9,2.8,7.1-4.7,12.3-10.8,19.4-15.8,2.6-1.8,5.5-6.3,8.6-7.2,0.9-.3,8.9-0.1,8.9-3.1-0.4.5,3.3,0.6,1.3,0.6C268,244.41,267.4,243.61,267.8,243.61Z"/><path d="M186,261.21c-4.4,0-6.9,3.4-12.5,2.6-1.8-.3-3.5-1.6-5-2.4a14.17,14.17,0,0,1-4.3-2.9c-0.7-.8-4.3-8.6-3.8-8.6,0.2-1.4.7-1.7,0.7-3.8,2.7,0.1,4.4-1.2,6.7-1.4a27.39,27.39,0,0,1,10.7,1.2c6.4,2.2,7.5,9.9,7.5,15.3C185.5,261.21,186,260.71,186,261.21Z"/><path d="M132.5,265.51a15.69,15.69,0,0,1-8.9,12.6,21.46,21.46,0,0,1-6.2,2,17.91,17.91,0,0,1-4.2-.5c-2-.5-3.9-1.9-6.1-1.3-1.8-7,3.2-10.9,8.6-13.2a16.59,16.59,0,0,1,4.1-1.4c1.7-.3,4.9-1.1,7.2-0.7,1.7,0.1,3,2,5.5,2.5C132.4,266.31,131.5,265.31,132.5,265.51Z"/><path d="M153.3,267.61c1.9,12.1-7.3,21.1-19.7,19.2-3.5-.5-3.8-4.9-2.3-8.5,1.5-3.4,3.6-4.3,6-6.2a26.44,26.44,0,0,1,7.1-4.3c3.5-1.2,4.2-.7,8.9-0.2C153.4,268.21,151.5,267.41,153.3,267.61Z"/><path d="M295.9,277.71c0.6,1.8,3.7.5,4.6,1.7,2.2,3.2-3.9.3-4.6,0.9-3.5,3,2.9,7.2,5,7.2,0,1-1.7.2-2.4,0.2-2.9,0-2.9-1.6-4.1,1.3-0.9,2,.9,6.5,0,8.4-1.1,2.3-5.2,4.1-7.4,1.2-2.4-3.1,1.2-5.3,3.6-6.5a2.17,2.17,0,0,0,1.4,1.4c0-4.4,1.7-9,1.2-13.7a16.4,16.4,0,0,1-.5-3.6c1.2-1.4,2.1,1.3,3.2,1.5C296,278,295.3,277.61,295.9,277.71Z"/><path d="M324,288c0,3.6,6.2,2.3,7,4.6-2.5,0-7-1.3-5.6,3.1,0.6,1.8.3,1.8,2,2.4,0.6,0.2,5.3-1.1,3.6,1.2-3.2,4.2-5.3-4.5-5.8,3-0.2,2.6.2,7.5-2.1,9-3.2,2.2-4.4-1.8-4.1-4.1,0.1-.7,3.4-5.4,3.4-3.8,1.9-.6.4-11.5,0.6-13,0.1-1.8-1.1-2.4,1-2.4C324,288.21,323.8,288,324,288Z"/><path d="M309.6,293.31c0,3.4,5.8,3.1,5.8,5.8-0.9.4-4.2-.4-4.6,0-1.1,1-.9,4.4-1,5.5-0.2,3.1-.2,8.7-2.7,11.1-2.4,2.2-5.2,1.2-6.3-1.9-0.8-2.2-.1-4.5,2.1-5.1,1.9-.5,1.9,1,4.2,1.7,0-6,2.6-12.5.5-18.2a1.71,1.71,0,0,1,2,1.1C309.6,293.51,308.9,293.11,309.6,293.31Z"/><path d="M119.5,305.31c-0.7-2-2.6-3.6-3.6-5.8-2.5-5.5.5-5.4,4.6-5.3,5.7,0.1,9.1,1.5,13.1,4.9,2,1.7,4.1,5.6,3.4,8.3-0.6,2-5.8,2.5-8,2.6s-2.2.1-4.4-1.3c-1.7-1-3.2-2.9-5.1-3.4C119.4,305.11,120,305.51,119.5,305.31Z"/><path d="M145.9,313.51c-0.5-.1-0.6-0.3-0.2-0.7,0.4-.1.4,0.1,0.2,0.7C145.2,313.21,145.9,313.21,145.9,313.51Z"/><path d="M295.9,317.31c0.2,2.3,1,1.9.1,4a7.88,7.88,0,0,1-4.7,4.4c-3.7,1.4-7.8.8-11.2,0.6-3.7-.2-7.3-1.6-9.5-4.9,1,0,2-1.6,2.6-2.2a23.3,23.3,0,0,1,6.7-4.3c1.5-.6,2.5-1.5,4.1-1.7a9.41,9.41,0,0,1,5.9.8c1.8,0.7,3.5,2.8,6,3.3C296,318.61,294.2,317,295.9,317.31Z"/><path d="M125.5,315.41c0.1,1.6,1.6,1.8,1.9,3.1s-0.5,3.1-.7,3.8c-0.8,3.2-1.7,4.3-4.3,5.8-4.2,2.4-8,3.2-13.8,3.1-4.5-.1-2.6-1.5-1.1-4.3,1-1.8,1.4-3.8,2.9-5.6a30,30,0,0,1,4.6-4c1.9-1.5,3.7-3.4,6.5-3.1a7.79,7.79,0,0,0,1.9,1.4c1.2,0.2.8,0.1,2.1-.2C125.6,316.61,125.2,315.51,125.5,315.41Z"/><path d="M301.9,314.71c-0.1.3-.2,1,0.5,0.7,0-.6.4-0.5-0.5-0.7C301.8,314.81,302.4,314.81,301.9,314.71Z"/><path d="M247.2,317.11c0,1.5-2.9,5.2-3.4,7.7,3.7,1.3,6.7-5.8,3.4-7.7C247.2,317.21,247.8,317.51,247.2,317.11Z"/><path d="M126.9,347.31c-1.7-8.5,2.7-26,15.2-22.1,2,0.6,4.5,4,4.4,6.5-0.1,3.7-2.7,6-5,7.9-5.8,4.9-8,6-14.6,7.7C126.9,346.91,127.5,347.21,126.9,347.31Z"/><path d="M185.7,391.51c-0.4,1.1-.3,1.4.7,1.7,0.1-.9.8-1-0.7-1.7C185.6,391.91,186.1,391.61,185.7,391.51Z"/><path d="M75.1,153.41a5.7,5.7,0,0,1-1.3-.1,19,19,0,0,1-2.9-.9,12.71,12.71,0,0,1-2.7-1.8,15,15,0,0,1-3.2-4.3,50.83,50.83,0,0,1-2.6-6.1,71.68,71.68,0,0,1-2.2-7.4c-0.7-2.6-1.3-5.2-1.9-8a14.74,14.74,0,0,0-3.8-2.5,38.25,38.25,0,0,0-5.1-1.8,34.34,34.34,0,0,0-5.6-.8H42.6a19.31,19.31,0,0,0-4.2.4,24.28,24.28,0,0,0-4.8,1.4,9.71,9.71,0,0,0-3.4,2.5,3.2,3.2,0,0,1-1.6,1.3,5,5,0,0,1-1.2.2H27.3a3.81,3.81,0,0,1-1.5-.5H25.7l-0.1-.1c-1.4-1.3-.7-3.9,0-5.8a75.51,75.51,0,0,1,4.5-9.4c2-3.7,4.6-7.9,7.5-12.4s5.9-9,9.1-13.6a5.92,5.92,0,0,1-.1-1.9,8.44,8.44,0,0,1,.6-2.4,4.24,4.24,0,0,1,1.7-1.8,2.66,2.66,0,0,1,1.2-.3,4.4,4.4,0,0,1,1,.2c2.3-3.2,4.6-6.3,6.9-9.4,2.4-3.3,4.8-6.4,7.1-9.3s4.4-5.6,6.5-8,3.9-4.5,5.5-6.2a32,32,0,0,1,4.1-3.8,4.63,4.63,0,0,1,2.3-1.1,1.5,1.5,0,0,1,1.1.4,8.64,8.64,0,0,1,1.3,1.4,7.54,7.54,0,0,1,1,1.7,3.4,3.4,0,0,1,.3,2,3.46,3.46,0,0,1-1,2.1c-0.3.3-.8,0.9-1.7,1.9s-1.9,2.1-3.2,3.5-2.7,2.9-4.2,4.7-3.1,3.5-4.8,5.4-3.3,3.8-4.9,5.8-3.1,3.9-4.5,5.7-2.5,3.4-3.7,5.1c-1.1,1.5-2.1,2.9-3.2,4.4,0.7,1.7,1.4,3.8,2.1,6.1q1.2,3.9,2.4,8.4c0.8,3,1.6,6.2,2.5,9.6s1.7,6.7,2.5,10,1.7,6.5,2.6,9.6,1.8,6,2.8,8.6a55.56,55.56,0,0,0,2.9,6.8,16.76,16.76,0,0,0,2.9,4.1,9,9,0,0,0,1,.9,10.59,10.59,0,0,1,1,1.2,5.34,5.34,0,0,1,.6,1.4,2.14,2.14,0,0,1-.6,1.8,4.1,4.1,0,0,1-2.3,1.3A1.81,1.81,0,0,0,75.1,153.41Zm-34.6-39.1a30.53,30.53,0,0,1,6,.6,51.23,51.23,0,0,1,6.7,1.9,33.4,33.4,0,0,1,3.8,1.7l-1.4-6.8c-0.6-3-1.2-5.9-1.8-8.6s-1.2-5.3-1.8-7.6a34.94,34.94,0,0,0-1.3-4.2c-3.8,5.5-7,10.4-9.6,14.5-2.2,3.5-4,6.5-5.6,9.1a17.52,17.52,0,0,1,4-.5A3.08,3.08,0,0,1,40.5,114.31Z"/><path class="cls-1" d="M83.4,40.61a0.48,0.48,0,0,1,.4.1A15.39,15.39,0,0,1,85,42a6,6,0,0,1,.9,1.5,2.85,2.85,0,0,1,.2,1.6,3,3,0,0,1-.7,1.5c-0.3.3-.8,0.9-1.7,1.8s-1.9,2.1-3.2,3.5-2.7,2.9-4.2,4.7-3.1,3.5-4.8,5.4-3.3,3.8-4.9,5.8-3.1,3.9-4.5,5.8c-1.3,1.7-2.5,3.4-3.7,5.1s-2.4,3.2-3.5,4.8A67.56,67.56,0,0,1,57.2,90q1.2,3.9,2.4,8.4c0.8,3,1.6,6.2,2.5,9.5s1.7,6.7,2.5,10,1.7,6.5,2.7,9.6,1.8,6,2.8,8.6,2,4.9,3,6.9a14.72,14.72,0,0,0,3.2,4.4,9,9,0,0,0,1,.9c0.3,0.3.6,0.7,0.9,1a2.11,2.11,0,0,1,.4,1,1.93,1.93,0,0,1-.3,1,3.54,3.54,0,0,1-1.8,1,4.87,4.87,0,0,1-1.2.1,3.75,3.75,0,0,1-1.1-.1,9.61,9.61,0,0,1-2.6-.8,10.06,10.06,0,0,1-2.5-1.7,14.41,14.41,0,0,1-3-4,43.07,43.07,0,0,1-2.6-6c-0.8-2.2-1.5-4.7-2.2-7.3s-1.3-5.4-2-8.3a17.05,17.05,0,0,0-4.3-2.9,23.65,23.65,0,0,0-5.3-1.8,36.81,36.81,0,0,0-5.8-.8H42.6a21.19,21.19,0,0,0-4.4.4,19.43,19.43,0,0,0-5,1.5,11.87,11.87,0,0,0-3.8,2.7,1.86,1.86,0,0,1-1.1.9,2.77,2.77,0,0,1-.9.1H27.3a2.11,2.11,0,0,1-1-.4c-0.7-.6-0.6-2.2.3-4.7a72.48,72.48,0,0,1,4.4-9.3c2-3.7,4.5-7.8,7.5-12.4s6-9.2,9.3-14a4.27,4.27,0,0,1-.2-2,6.46,6.46,0,0,1,.6-2.1A3,3,0,0,1,49.5,78a1.85,1.85,0,0,1,.7-0.2,2.42,2.42,0,0,1,1.3.4c2.4-3.4,4.9-6.7,7.3-10s4.8-6.4,7.1-9.3,4.4-5.6,6.5-8,3.9-4.4,5.5-6.1a30.32,30.32,0,0,1,4-3.7,5.27,5.27,0,0,1,1.5-.5m-50,75.9a20.09,20.09,0,0,1,6.2-1.2h0.9a28.56,28.56,0,0,1,5.8.6,37.18,37.18,0,0,1,6.5,1.9,26.62,26.62,0,0,1,5.6,2.8l-1.8-9c-0.6-3-1.2-5.9-1.8-8.6s-1.2-5.3-1.8-7.7a48.58,48.58,0,0,0-2-6.1c-4.3,6.2-7.8,11.5-10.7,16.1s-5.2,8.2-6.9,11.2m50-77.9a4.62,4.62,0,0,0-2.9,1.3,33.79,33.79,0,0,0-4.2,3.9c-1.6,1.7-3.5,3.8-5.5,6.2s-4.3,5.1-6.5,8-4.7,6-7.1,9.3c-2.1,2.9-4.3,5.8-6.5,8.8H50.2a2.93,2.93,0,0,0-1.6.4,4.91,4.91,0,0,0-2.2,2.3,7.67,7.67,0,0,0-.7,2.7,5.43,5.43,0,0,0,0,1.8c-3.1,4.5-6.1,9-8.9,13.3-2.9,4.6-5.5,8.8-7.5,12.5a86.57,86.57,0,0,0-4.6,9.5c-0.8,2.1-1.6,5.2.2,6.9l0.1,0.1,0.2,0.1a4.26,4.26,0,0,0,1.8.6h0.4a7.72,7.72,0,0,0,1.5-.2,4,4,0,0,0,2.1-1.6,9.1,9.1,0,0,1,3.1-2.2,21.47,21.47,0,0,1,4.5-1.4,27.28,27.28,0,0,1,4.1-.3h1.2a33.27,33.27,0,0,1,5.4.7,25.76,25.76,0,0,1,4.9,1.7,13.35,13.35,0,0,1,3.3,2.1c0.6,2.6,1.2,5.2,1.8,7.7,0.7,2.7,1.5,5.2,2.3,7.5a39.8,39.8,0,0,0,2.7,6.2,17.18,17.18,0,0,0,3.4,4.6,12.09,12.09,0,0,0,3,2,13.9,13.9,0,0,0,3.1,1,7.57,7.57,0,0,0,1.5.1,7.77,7.77,0,0,0,1.6-.2,4.65,4.65,0,0,0,2.8-1.6,3.05,3.05,0,0,0,.8-2.6,4.9,4.9,0,0,0-.7-1.9,6.88,6.88,0,0,0-1.1-1.3l-1-1a13.8,13.8,0,0,1-2.7-3.8,52,52,0,0,1-2.9-6.6c-0.9-2.6-1.9-5.4-2.8-8.5s-1.8-6.3-2.6-9.6-1.7-6.6-2.5-10-1.7-6.6-2.5-9.6-1.6-5.9-2.4-8.4C58.7,87,58,85,57.4,83.41c0.9-1.3,1.9-2.6,2.8-3.9,1.2-1.6,2.4-3.3,3.7-5.1s2.9-3.7,4.4-5.7,3.2-3.9,4.8-5.8,3.3-3.7,4.7-5.4,2.9-3.3,4.2-4.6,2.3-2.5,3.2-3.5,1.4-1.6,1.7-1.9a4.74,4.74,0,0,0,1.2-2.7,5.24,5.24,0,0,0-.3-2.5,10.59,10.59,0,0,0-1.2-2,10.28,10.28,0,0,0-1.4-1.5c-0.6,0-1.2-.2-1.8-0.2h0Zm-45.9,74.8c1.3-2.1,2.8-4.5,4.4-7.2,2.3-3.7,5.1-8,8.4-12.8,0.2,0.7.4,1.5,0.6,2.2,0.6,2.3,1.2,4.9,1.8,7.6s1.2,5.6,1.8,8.6l1,4.8-2.1-.9a40.73,40.73,0,0,0-6.8-2,31.79,31.79,0,0,0-6.2-.6h-1a5.82,5.82,0,0,1-1.9.3h0Z"/><path d="M85,129.91H84.4a9.84,9.84,0,0,1-3.8-1.2,12.41,12.41,0,0,1-3.7-3.3,17.82,17.82,0,0,1-2.6-4.8,37.42,37.42,0,0,1-1.7-6.2,32.09,32.09,0,0,1-.5-7,33.79,33.79,0,0,1,.8-7.2,23.75,23.75,0,0,1,2.5-6.6,17,17,0,0,1,4.6-5.4,8.79,8.79,0,0,1,3-1.6,7.85,7.85,0,0,1,1.4-.2,7.72,7.72,0,0,1,1.5.2,7.07,7.07,0,0,1,2.6,1.3,15.25,15.25,0,0,1,2.2,2.2,7.28,7.28,0,0,1,1.3,2.3,0.35,0.35,0,0,0,.2-0.1l1.3-.3c0.4-.1.9-0.1,1.2-0.2h0a1.56,1.56,0,0,1,1.4.6c0.2,0.3.3,0.6,0.4,2.5,0,1.2.1,2.6,0.1,4.2s0.2,3.4.3,5.2,0.4,3.4.6,4.9a7.44,7.44,0,0,0,1,2.9,0.2,0.2,0,0,1,.1.2l0.2-.2a4.39,4.39,0,0,0,.9-2.2,50.25,50.25,0,0,0,.7-5c0.2-2,.3-4.1.4-6.4s0.1-4.5,0-6.7-0.1-4.1-.1-5.9-0.1-3.1-.1-4a2.15,2.15,0,0,1,.5-1.5,1.79,1.79,0,0,1,1-.6h0.4a1.5,1.5,0,0,1,1.1.4,1.47,1.47,0,0,1,.6,1.3c0.1,1.3.1,3,.2,5.2s0.1,4.6.2,7.1,0,5.2-.1,8-0.3,5.3-.5,7.7a44.28,44.28,0,0,1-1.2,6.3,7.91,7.91,0,0,1-2.3,4.1,5.1,5.1,0,0,1-3.2,1.3H96.9a5,5,0,0,1-2.7-1.1c-0.1-.1-0.3-0.2-0.4-0.3,0,0.5-.1.9-0.1,1.3a16.15,16.15,0,0,1-1,3.6,7.55,7.55,0,0,1-2.3,3.2,10,10,0,0,1-2.7,1.5A7.22,7.22,0,0,1,85,129.91Zm-0.7-37.1a1.6,1.6,0,0,0-.8.3,9,9,0,0,0-3,4.8,23.46,23.46,0,0,0-.8,7.1,39.6,39.6,0,0,0,1,7.7,32.71,32.71,0,0,0,2.3,6.7,12.09,12.09,0,0,0,2.8,4,2.11,2.11,0,0,0,1.1.5h0a1.22,1.22,0,0,0,.9-0.4,5.93,5.93,0,0,0,1.5-2.5,19.32,19.32,0,0,0,.7-4.5c0.1-1.7.1-3.6,0.1-5.6-0.1-1.7-.1-3.4-0.2-5.1-0.2-.1-0.5-0.1-0.7-0.2A2.22,2.22,0,0,1,88,105c-0.3-.3-0.3-0.7-0.2-2a13,13,0,0,0,0-2.8,14,14,0,0,0-.5-3.4,8.92,8.92,0,0,0-1.5-3.1,2.86,2.86,0,0,0-1.4-1.1C84.4,92.91,84.3,92.81,84.3,92.81Z"/><path class="cls-1" d="M102.8,80.71a0.76,0.76,0,0,1,.4.2,0.78,0.78,0,0,1,.3.7c0.1,1.2.1,2.9,0.2,5.1s0.1,4.5.2,7.1,0,5.2-.1,7.9-0.3,5.3-.5,7.6a46.41,46.41,0,0,1-1.1,6.2c-0.5,1.8-1.1,3-2,3.6a4.09,4.09,0,0,1-2.6,1.1H97.3a4,4,0,0,1-2.2-.9,7.7,7.7,0,0,1-2-2.3,17.7,17.7,0,0,1-.1,4,24.59,24.59,0,0,1-.9,3.4,6.29,6.29,0,0,1-2,2.8,9.21,9.21,0,0,1-2.4,1.3,6.9,6.9,0,0,1-2.5.4H84.6a9.34,9.34,0,0,1-3.4-1,10.36,10.36,0,0,1-3.4-3,18.91,18.91,0,0,1-2.4-4.5,32.74,32.74,0,0,1-1.6-6,38.65,38.65,0,0,1-.5-6.9,32.66,32.66,0,0,1,.8-7,23.47,23.47,0,0,1,2.4-6.4A16.26,16.26,0,0,1,80.8,89a7.42,7.42,0,0,1,2.6-1.4,4.87,4.87,0,0,1,1.2-.1,5,5,0,0,1,1.2.2,6.5,6.5,0,0,1,2.2,1.1,10.07,10.07,0,0,1,2,2.1,10.51,10.51,0,0,1,1.5,3,3.58,3.58,0,0,1,1.1-.4l1.2-.3a3.75,3.75,0,0,1,1-.1h0a0.85,0.85,0,0,1,.6.2,8.65,8.65,0,0,1,.2,1.9c0,1.2.1,2.6,0.1,4.2s0.2,3.4.3,5.3a47.9,47.9,0,0,0,.7,4.9,10.57,10.57,0,0,0,1.1,3.3,1.07,1.07,0,0,0,1.8.2,5.18,5.18,0,0,0,1.3-2.8,32.82,32.82,0,0,0,.7-5.2c0.2-2,.3-4.2.4-6.5s0.1-4.6,0-6.7-0.1-4.1-.1-5.9-0.1-3.1-.1-4a1.88,1.88,0,0,1,.2-0.8,2.09,2.09,0,0,1,.6-0.4,0.31,0.31,0,0,1,.2-0.1M87,125a2.4,2.4,0,0,0,1.5-.6,5.89,5.89,0,0,0,1.8-3,30.61,30.61,0,0,0,.8-4.7c0.1-1.8.1-3.7,0.1-5.7s-0.2-4-.3-5.8l-1.4-.3a1.1,1.1,0,0,1-.7-0.3v-1.3a14,14,0,0,0,0-2.9,25.79,25.79,0,0,0-.5-3.6,8.16,8.16,0,0,0-1.7-3.5,4.42,4.42,0,0,0-1.8-1.4,1.27,1.27,0,0,0-.6-0.1,2.65,2.65,0,0,0-1.4.5,9.33,9.33,0,0,0-3.3,5.3,25.48,25.48,0,0,0-.8,7.4,35.8,35.8,0,0,0,1.1,7.9,27.78,27.78,0,0,0,2.4,6.9,11.64,11.64,0,0,0,3.1,4.3,2.21,2.21,0,0,0,1.7.9m15.8-46.3a1.27,1.27,0,0,0-.6.1,2.9,2.9,0,0,0-1.5.9,3.1,3.1,0,0,0-.8,2.3c0,0.9.1,2.2,0.1,3.9s0.1,3.7.1,5.9v6.6c-0.1,2.3-.2,4.4-0.4,6.3a44.11,44.11,0,0,1-.7,4.9,0.37,0.37,0,0,1-.1.3c-0.1-.3-0.1-0.6-0.2-1a31.39,31.39,0,0,1-.6-4.8,48.05,48.05,0,0,1-.3-5.2c-0.1-1.7-.1-3.1-0.1-4.2-0.1-1.9-.1-2.5-0.6-3.1a2.59,2.59,0,0,0-2.1-.9H94.9a7.84,7.84,0,0,0-1.4.2c-0.3.1-.5,0.1-0.8,0.2a9.91,9.91,0,0,0-1.1-1.7A13.63,13.63,0,0,0,89.2,87a8.93,8.93,0,0,0-2.9-1.5,7.32,7.32,0,0,0-3.4,0,9.38,9.38,0,0,0-3.4,1.8A18.73,18.73,0,0,0,74.7,93a24,24,0,0,0-2.6,6.9,36.65,36.65,0,0,0-.9,7.5,42,42,0,0,0,.6,7.2,37.25,37.25,0,0,0,1.7,6.4,21.16,21.16,0,0,0,2.7,5,12.74,12.74,0,0,0,4,3.5,9.75,9.75,0,0,0,4.2,1.3h0.7a11.27,11.27,0,0,0,3.2-.5,14.29,14.29,0,0,0,3-1.6,8.8,8.8,0,0,0,2.7-3.6,17,17,0,0,0,1-3.5,7.94,7.94,0,0,0,2.2.6h0.5a6.18,6.18,0,0,0,3.9-1.6c1.2-.9,2-2.4,2.7-4.6a47.53,47.53,0,0,0,1.2-6.5c0.3-2.4.4-5,.5-7.8s0.1-5.5.1-8-0.1-4.9-.2-7.1-0.2-3.9-.2-5.1h0a3.15,3.15,0,0,0-1-2,3.4,3.4,0,0,0-1.9-.8h0ZM87,123a5.19,5.19,0,0,1-.5-0.3,9.83,9.83,0,0,1-2.6-3.6,30.84,30.84,0,0,1-2.2-6.5,38.6,38.6,0,0,1-1-7.5,21.52,21.52,0,0,1,.8-6.8A8.08,8.08,0,0,1,84.1,94a0.2,0.2,0,0,1,.2-0.1,2.76,2.76,0,0,1,.9.7,6.78,6.78,0,0,1,1.3,2.7,20.34,20.34,0,0,1,.5,3.3v2.6c-0.1,1.2-.2,2,0.4,2.7a3.23,3.23,0,0,0,1.7,1c0.1,1.4.1,2.8,0.2,4.3a33.26,33.26,0,0,1-.1,5.5,24.13,24.13,0,0,1-.7,4.3,3.76,3.76,0,0,1-1.1,2H87Z"/><path d="M113.6,109.51a7.3,7.3,0,0,1-4.1-1.2,11.38,11.38,0,0,1-3-2.8c-0.8-1.1-1.5-2.3-2.2-3.4a18.52,18.52,0,0,1-1.8-5.1c-0.5-2.1-1-4.5-1.4-7.2a76.18,76.18,0,0,1-.8-8.6c-0.2-3.1-.2-6.2-0.1-9.3a69.89,69.89,0,0,1,.8-9.2,49.44,49.44,0,0,1,1.9-8.4,27.41,27.41,0,0,1,3.2-6.9,13.41,13.41,0,0,1,4.9-4.6,10.66,10.66,0,0,1,1.9-.7,5.85,5.85,0,0,1,1.3-.2,3.4,3.4,0,0,1,1,.1,4.87,4.87,0,0,1,2.2,1,6,6,0,0,1,1.9,2.4c1.1,2,1.6,4.9,1.6,8.4a58,58,0,0,1-1.3,11.7,120.18,120.18,0,0,1-3.6,13.6A146.8,146.8,0,0,1,110.7,93a31.36,31.36,0,0,0,1.3,4,8.6,8.6,0,0,0,1.9,2.8,4.29,4.29,0,0,0,2.1,1.1h0.4a4.35,4.35,0,0,0,2.3-.7,6.35,6.35,0,0,0,2.5-2.8,30.08,30.08,0,0,0,2.2-5.1,57.91,57.91,0,0,0,1.8-6.3c0.5-2.3.9-4.5,1.3-6.6s0.6-4.1.9-5.8,0.4-3,.5-3.9a1.86,1.86,0,0,1,.8-1.4,3.45,3.45,0,0,1,1.1-.5h0.1a1.43,1.43,0,0,1,1.2.6,2.33,2.33,0,0,1,.4,1.4c-0.2,1.3-.4,2.9-0.6,5s-0.6,4.5-1,7-1,5.2-1.6,7.9a77.82,77.82,0,0,1-2.2,7.7,38.21,38.21,0,0,1-3,6.4,10.56,10.56,0,0,1-4.2,4.2,11.19,11.19,0,0,1-5.1,1.5h-0.2Zm1.8-62.2a5.71,5.71,0,0,0-2,2.6,27,27,0,0,0-1.9,5.5,62,62,0,0,0-1.5,7.5,80.79,80.79,0,0,0-.8,8.6,86.11,86.11,0,0,0-.1,8.8c0,1.6.1,3.1,0.2,4.6,0.9-2.2,1.8-4.5,2.5-6.8,1.1-3.5,2-6.8,2.7-10a63.91,63.91,0,0,0,1.4-9,45.74,45.74,0,0,0,.3-7.1,17.23,17.23,0,0,0-.6-4.2A0.59,0.59,0,0,0,115.4,47.31Z"/><path class="cls-1" d="M114.1,42.91a2.2,2.2,0,0,1,.8.1,4.76,4.76,0,0,1,1.8.8,5.62,5.62,0,0,1,1.6,2,17.53,17.53,0,0,1,1.5,8,56.2,56.2,0,0,1-1.3,11.5,105.15,105.15,0,0,1-3.6,13.5q-2.4,7.2-5.4,14.1a23.72,23.72,0,0,0,1.5,4.5,10.52,10.52,0,0,0,2.1,3.1,4.3,4.3,0,0,0,2.7,1.3h0.5a6.67,6.67,0,0,0,2.8-.8,7.06,7.06,0,0,0,2.9-3.2,29.09,29.09,0,0,0,2.3-5.3,59.76,59.76,0,0,0,1.8-6.4c0.5-2.3.9-4.5,1.3-6.6s0.6-4.1.9-5.8,0.4-3,.5-3.9a0.84,0.84,0,0,1,.4-0.7,1.69,1.69,0,0,1,.6-0.3h0a1.06,1.06,0,0,1,.5.2,1.45,1.45,0,0,1,.2.7c-0.2,1.2-.4,2.9-0.6,5s-0.6,4.4-1,7-1,5.1-1.6,7.8a56.2,56.2,0,0,1-2.2,7.6,35.86,35.86,0,0,1-2.9,6.2,9.85,9.85,0,0,1-3.8,3.8,10.75,10.75,0,0,1-4.7,1.4h-0.1a6.91,6.91,0,0,1-3.6-1,9.77,9.77,0,0,1-2.8-2.6,30.25,30.25,0,0,1-2.1-3.3,22.78,22.78,0,0,1-1.7-4.9c-0.5-2.1-1-4.4-1.4-7.1a74.36,74.36,0,0,1-.8-8.5c-0.2-3-.2-6.1-0.1-9.2a68.38,68.38,0,0,1,.8-9.1,50.6,50.6,0,0,1,1.8-8.3,25.84,25.84,0,0,1,3.1-6.7,14.08,14.08,0,0,1,4.5-4.3,4.28,4.28,0,0,1,1.7-.6,4.05,4.05,0,0,0,1.1,0m-5.3,45.7a90.46,90.46,0,0,0,4.1-10.2c1.1-3.5,2-6.9,2.7-10.1a65.18,65.18,0,0,0,1.4-9.1,47,47,0,0,0,.3-7.2,15.08,15.08,0,0,0-.7-4.5,1.48,1.48,0,0,0-1.1-1.1,0.9,0.9,0,0,0-.5.1,6.35,6.35,0,0,0-2.4,3,33.66,33.66,0,0,0-2,5.7,68.18,68.18,0,0,0-1.5,7.6,80.79,80.79,0,0,0-.8,8.6,88.08,88.08,0,0,0-.1,8.9,54.93,54.93,0,0,0,.6,8.3m5.3-47.7a8.75,8.75,0,0,0-1.6.2,10.23,10.23,0,0,0-2.1.8,14.51,14.51,0,0,0-5.3,4.9,27.2,27.2,0,0,0-3.3,7.1,51.91,51.91,0,0,0-1.9,8.6c-0.4,3-.7,6.2-0.8,9.3s0,6.3.1,9.4,0.5,6,.9,8.7,0.9,5.2,1.4,7.3a26.32,26.32,0,0,0,1.9,5.3,34.78,34.78,0,0,0,2.2,3.6,12.09,12.09,0,0,0,3.3,3.1,8.83,8.83,0,0,0,4.6,1.3h0.1a12.29,12.29,0,0,0,10.2-6.2,33.69,33.69,0,0,0,3.1-6.6,59.21,59.21,0,0,0,2.3-7.8c0.6-2.7,1.2-5.4,1.6-7.9s0.8-4.9,1.1-7.1,0.5-3.7.6-5h0a2.93,2.93,0,0,0-.6-2.1,2.33,2.33,0,0,0-2-1h-0.2a3.49,3.49,0,0,0-1.7.6,3,3,0,0,0-1.2,2.1c-0.1.9-.3,2.2-0.5,3.9s-0.5,3.6-.9,5.7-0.8,4.3-1.3,6.5-1.1,4.3-1.7,6.2a24.84,24.84,0,0,1-2.2,4.9,6.41,6.41,0,0,1-2.1,2.4,4.12,4.12,0,0,1-1.9.6H116a2.72,2.72,0,0,1-1.6-.8,7.19,7.19,0,0,1-1.6-2.4,16,16,0,0,1-1.2-3.5c1.9-4.5,3.7-9.1,5.2-13.7a123,123,0,0,0,3.7-13.7,58.18,58.18,0,0,0,1.3-11.8c0-3.8-.5-6.7-1.7-8.9a7.63,7.63,0,0,0-2.2-2.7,6.82,6.82,0,0,0-2.6-1.2c-0.4,0-.8-0.1-1.2-0.1h0Zm-4,39.2c-0.1-2.9,0-5.8.1-8.6s0.4-5.7.8-8.5,0.9-5.2,1.4-7.4a31.83,31.83,0,0,1,1.9-5.3,6.35,6.35,0,0,1,.7-1.2c0.1,0.6.2,1.6,0.3,2.9a44.51,44.51,0,0,1-.3,7,85.11,85.11,0,0,1-1.4,8.9q-1.05,4.8-2.7,9.9c-0.2.7-.5,1.5-0.8,2.3h0Z"/><path d="M126.8,102h-0.4a8.47,8.47,0,0,1-1.7-.4,5.39,5.39,0,0,1-1.3-.7,2.17,2.17,0,0,1-.8-0.9c-0.1-.4-0.2-1.1.4-3.9,0.4-1.9,1.1-4.3,1.8-7.1s1.7-6,2.7-9.6,2.1-7.1,3.1-10.9,2.1-7.4,3.1-11.1,1.9-7,2.6-10,1.2-5.6,1.6-7.8a10.5,10.5,0,0,0,.1-4.1l-0.1-.5,0.3-.5a1.81,1.81,0,0,1,1.5-.7h0.6a11,11,0,0,1,1.8.2,6.82,6.82,0,0,1,2.6,1.2,5,5,0,0,1,2,2.7,8.18,8.18,0,0,1-.1,3.8c-0.3,1.6-.7,3.4-1.3,5.5s-1.2,4.1-1.9,6.3-1.3,4.1-1.9,6c-0.1.2-.1,0.4-0.2,0.6a19.92,19.92,0,0,1,2.1-1.9,15.4,15.4,0,0,1,4.6-2.4,18.35,18.35,0,0,1,3.2-.7h0.9a11.07,11.07,0,0,1,1.9.2,5.64,5.64,0,0,1,2.4,1.3,5.26,5.26,0,0,1,1.5,2.5,10,10,0,0,1,.4,4.2,19.88,19.88,0,0,1-1.1,4,27.06,27.06,0,0,1-2.1,3.7,29.72,29.72,0,0,1-2.7,3.3,52,52,0,0,1-7.4,6.3,53.3,53.3,0,0,0,1.1,5.5,11.92,11.92,0,0,0,.8,2,9.88,9.88,0,0,0,.9,1.5,2.54,2.54,0,0,0,1,.8,0.6,0.6,0,0,0,.4.1h0a1.27,1.27,0,0,0,.6-0.1c0.1,0,.7-0.3,1.7-2a39.41,39.41,0,0,0,2.7-5.1,70.84,70.84,0,0,0,2.9-6.7c1-2.4,1.9-4.7,2.8-7s1.6-4.3,2.3-6.2,1.1-3.2,1.4-4a2.35,2.35,0,0,1,1-1.3,1.93,1.93,0,0,1,1-.3h0.2a1.59,1.59,0,0,1,1.2.9,1.79,1.79,0,0,1,.1,1.5c-0.4,1.2-.9,2.8-1.5,4.9s-1.4,4.3-2.2,6.7-1.8,4.9-2.7,7.4-2,4.9-3.1,7a34.77,34.77,0,0,1-3.4,5.5,8,8,0,0,1-3.8,3.1,7.1,7.1,0,0,1-2.4.4,4.41,4.41,0,0,1-2.6-.7,8.48,8.48,0,0,1-3.2-3.3,16.42,16.42,0,0,1-1.8-4.7c-0.3-1.2-.5-2.4-0.7-3.6h-0.2a1.75,1.75,0,0,1-1.7-1.1,4.08,4.08,0,0,1-.2-2.4,8.51,8.51,0,0,1,.6-1.7,4.67,4.67,0,0,1,1.4-1.4,55,55,0,0,0,6.1-5.2c0.7-.7,1.5-1.5,2.1-2.2a16.29,16.29,0,0,0,1.7-2.2,7.45,7.45,0,0,0,1-2,2,2,0,0,0,0-1.5,1.85,1.85,0,0,0-1.1-1.3,2.48,2.48,0,0,0-.9-0.1,6.88,6.88,0,0,0-1.3.2,6.24,6.24,0,0,0-3,2.3,25.52,25.52,0,0,0-3.1,4.7c-1,1.9-1.9,4-2.8,6.2s-1.8,4.6-2.6,7-1.6,4.7-2.2,6.9-1.3,4.3-1.9,6-1.1,3.2-1.5,4.3c-0.6,1.5-1.1,2.2-1.7,2.4A8.75,8.75,0,0,1,126.8,102Z"/><path class="cls-1" d="M140.3,34.91a10,10,0,0,1,1.6.2,6.06,6.06,0,0,1,2.3,1.1,3.66,3.66,0,0,1,1.6,2.2,8,8,0,0,1-.2,3.3,51.77,51.77,0,0,1-1.3,5.4c-0.6,2-1.2,4.1-1.9,6.2s-1.3,4.1-1.9,5.9-1.1,3.3-1.4,4.4a3.28,3.28,0,0,0-.4,1.7h0a3.08,3.08,0,0,0,.8-1.1,22.18,22.18,0,0,1,1.7-2.4,19.49,19.49,0,0,1,2.9-2.8,13.41,13.41,0,0,1,4.3-2.2,16.66,16.66,0,0,1,2.9-.6h0.8a8.8,8.8,0,0,1,1.7.2,4.9,4.9,0,0,1,2,1.1,3.74,3.74,0,0,1,1.2,2,9.88,9.88,0,0,1,.4,3.8,13,13,0,0,1-1.1,3.7,17.52,17.52,0,0,1-2,3.5,26.63,26.63,0,0,1-2.6,3.1,46.37,46.37,0,0,1-7.8,6.5,40.18,40.18,0,0,0,1.2,6.2,14.28,14.28,0,0,0,.8,2.2,5.55,5.55,0,0,0,1.1,1.7,3.32,3.32,0,0,0,1.4,1,2.35,2.35,0,0,0,.8.2,2.92,2.92,0,0,0,.9-0.2,5.78,5.78,0,0,0,2.3-2.4,47.39,47.39,0,0,0,2.8-5.2c1-2.1,2-4.3,3-6.7s1.9-4.8,2.8-7.1,1.6-4.3,2.3-6.2,1.1-3.2,1.4-4a1.79,1.79,0,0,1,.5-0.7,1.27,1.27,0,0,1,.6-0.1h0.1a0.68,0.68,0,0,1,.5.3,0.85,0.85,0,0,1,0,.7q-0.6,1.8-1.5,4.8c-0.6,2.1-1.4,4.3-2.2,6.7s-1.7,4.8-2.7,7.4a74.73,74.73,0,0,1-3.1,6.9,42.58,42.58,0,0,1-3.3,5.4,7.49,7.49,0,0,1-3.3,2.8,9.54,9.54,0,0,1-2.1.4,4.65,4.65,0,0,1-2.1-.5,8.06,8.06,0,0,1-2.9-2.9,15.5,15.5,0,0,1-1.7-4.4,27.81,27.81,0,0,1-.8-4.6,4.51,4.51,0,0,1-1.1.3h0a0.49,0.49,0,0,1-.6-0.4,4.4,4.4,0,0,1-.2-1.9,5.78,5.78,0,0,1,.5-1.4,2.66,2.66,0,0,1,1.1-1,72.83,72.83,0,0,0,6.3-5.3c0.8-.8,1.5-1.5,2.2-2.3a18.76,18.76,0,0,0,1.8-2.4,8,8,0,0,0,1.1-2.3,3.75,3.75,0,0,0,0-2.1,3.12,3.12,0,0,0-1.7-2,4.08,4.08,0,0,0-2.8.1,7.45,7.45,0,0,0-3.5,2.6,26.66,26.66,0,0,0-3.2,4.8,62.1,62.1,0,0,0-2.9,6.3c-0.9,2.3-1.8,4.7-2.6,7s-1.6,4.7-2.3,6.9-1.3,4.3-1.9,6-1.1,3.2-1.5,4.3a3.15,3.15,0,0,1-1.1,1.8,5.07,5.07,0,0,1-1.3.2h-0.3a3.19,3.19,0,0,1-1.4-.3,4.61,4.61,0,0,1-1-.5,0.6,0.6,0,0,1-.4-0.5,9.34,9.34,0,0,1,.5-3.4c0.4-1.9,1-4.2,1.8-7.1s1.7-6,2.7-9.5,2.1-7.1,3.1-10.9,2.1-7.4,3.1-11.1,1.8-7,2.6-10.1,1.2-5.7,1.6-7.9a11.9,11.9,0,0,0,.1-4.6c0-.2.2-0.3,0.8-0.3-0.2.1,0,.1,0.1,0.1m0-2h-0.7a3.45,3.45,0,0,0-2.3,1.1,2.25,2.25,0,0,0-.2,1.8,12.79,12.79,0,0,1-.2,3.7c-0.3,2.1-.8,4.7-1.5,7.7s-1.6,6.4-2.6,10-2,7.4-3.1,11-2.1,7.4-3.1,10.8-1.9,6.7-2.7,9.6-1.4,5.2-1.9,7.2c-0.6,2.8-.6,3.8-0.4,4.4a2.67,2.67,0,0,0,1.1,1.4,5.3,5.3,0,0,0,1.5.8,5.85,5.85,0,0,0,1.9.4h0.5a6.79,6.79,0,0,0,1.9-.3c1.1-.4,1.8-1.5,2.3-3,0.4-1.1.9-2.6,1.5-4.4s1.2-3.8,1.9-6.1,1.4-4.5,2.2-6.9a0.35,0.35,0,0,1,.1-0.2,2.52,2.52,0,0,0,1.9,1.7c0.2,0.9.4,1.9,0.6,2.9a17.87,17.87,0,0,0,1.9,4.9,9.85,9.85,0,0,0,3.6,3.7,6.5,6.5,0,0,0,3.1.8,8.57,8.57,0,0,0,2.7-.5,9,9,0,0,0,4.3-3.5,47.4,47.4,0,0,0,3.5-5.7c1.1-2.2,2.2-4.5,3.2-7.1s1.9-5,2.7-7.4,1.6-4.7,2.2-6.7,1.2-3.7,1.5-4.8h0a3,3,0,0,0-.2-2.2,2.47,2.47,0,0,0-2-1.4h-0.3a2.3,2.3,0,0,0-1.4.4,3.11,3.11,0,0,0-1.5,1.8c-0.3.8-.7,2.1-1.4,4s-1.4,3.9-2.2,6.1-1.8,4.7-2.8,7-1.9,4.6-2.9,6.6a32.21,32.21,0,0,1-2.7,5,5,5,0,0,1-1.3,1.6h-0.3a2.65,2.65,0,0,1-.6-0.5,7.38,7.38,0,0,1-.8-1.3,11.77,11.77,0,0,1-.7-2,38,38,0,0,1-1-4.7,48.11,48.11,0,0,0,7.1-6.1,31.68,31.68,0,0,0,2.8-3.4,20.81,20.81,0,0,0,2.2-3.8,16.2,16.2,0,0,0,1.2-4.3,10.32,10.32,0,0,0-.4-4.6,7.15,7.15,0,0,0-1.8-2.9,6.38,6.38,0,0,0-2.8-1.5,7.8,7.8,0,0,0-2.2-.3,3.4,3.4,0,0,0-1,.1,14.71,14.71,0,0,0-3.4.7,14.36,14.36,0,0,0-4.3,2.1c0.3-1,.7-2,1-3.1,0.7-2.1,1.3-4.3,1.9-6.3s1-3.9,1.3-5.5a8.52,8.52,0,0,0,.1-4.2,6.21,6.21,0,0,0-2.4-3.3,9.28,9.28,0,0,0-2.9-1.3,9.36,9.36,0,0,1-1.7,0h0Zm-0.9,42.3c0.9-2.1,1.8-4.1,2.7-5.9a23.34,23.34,0,0,1,2.9-4.5,5.41,5.41,0,0,1,2.6-1.9,4.4,4.4,0,0,1,1-.2,0.9,0.9,0,0,1,.5.1,0.79,0.79,0,0,1,.5.7,1.07,1.07,0,0,1,0,.8,7.57,7.57,0,0,1-.9,1.8,14.61,14.61,0,0,1-1.6,2.1c-0.7.7-1.4,1.5-2.1,2.2-1.7,1.5-3.5,3.1-5.6,4.8h0Z"/><path d="M162.5,91.21a4.64,4.64,0,0,1-2.1-.4,5.48,5.48,0,0,1-3.2-4.1,9.68,9.68,0,0,1,.5-4.6,42.67,42.67,0,0,1,2-5.6q1.2-3,2.7-6.3c0.9-2.2,1.8-4.3,2.6-6.4a38.1,38.1,0,0,0,1.8-5.8,11,11,0,0,0,.3-4.3c-0.1-.5,0-1.3,1.6-1.6A5.7,5.7,0,0,1,170,52a2.77,2.77,0,0,1,.9.1,6.31,6.31,0,0,1,2.5.9,3.89,3.89,0,0,1,1.7,2.7,14,14,0,0,1-.5,5.1,50.48,50.48,0,0,1-2.1,6.2q-1.2,3.3-2.7,6.6c-0.9,2.2-1.7,4.2-2.3,5.9a19,19,0,0,0-1.1,4v0.2a5,5,0,0,0,1.6-1.4,43.24,43.24,0,0,0,3.1-4.1c1.1-1.6,2.2-3.5,3.4-5.4s2.3-3.9,3.3-5.8,1.9-3.6,2.7-5.2,1.4-2.7,1.8-3.5a1.79,1.79,0,0,1,1.2-1.1,2,2,0,0,1,.7-0.1,0.9,0.9,0,0,1,.5.1,1.57,1.57,0,0,1,1.1,1,2,2,0,0,1-.1,1.5c-0.6,1.1-1.3,2.7-2.3,4.6s-2.1,4.1-3.3,6.3-2.5,4.6-3.9,6.9A73.49,73.49,0,0,1,172,84a45.86,45.86,0,0,1-4.1,5,7.16,7.16,0,0,1-4,2.5A2.38,2.38,0,0,0,162.5,91.21ZM173,47.11a5.34,5.34,0,0,1-2.9-1,5,5,0,0,1-1.9-3.4,6.57,6.57,0,0,1,0-2.8,6.81,6.81,0,0,1,1-2.1,6.23,6.23,0,0,1,1.8-1.4,6.64,6.64,0,0,1,2-.6,2.77,2.77,0,0,1,.9-0.1,3.62,3.62,0,0,1,2.7,1,7.15,7.15,0,0,1,1.8,2.9,9.35,9.35,0,0,1,.4,3.3,4.2,4.2,0,0,1-1.1,2.7,6.32,6.32,0,0,1-1.9,1.1,6.9,6.9,0,0,1-2.5.4H173Z"/><path class="cls-1" d="M174,36.71a2.79,2.79,0,0,1,2,.8,6.08,6.08,0,0,1,1.5,2.4,7.2,7.2,0,0,1,.3,2.9,3.43,3.43,0,0,1-.8,2.1,4.49,4.49,0,0,1-1.6.9,5.38,5.38,0,0,1-2.2.4h-0.3a4.07,4.07,0,0,1-2.4-.8,4,4,0,0,1-1.5-2.7,6.4,6.4,0,0,1,0-2.4,5.39,5.39,0,0,1,.8-1.7,4.86,4.86,0,0,1,1.4-1.1A6.07,6.07,0,0,1,173,37a1.72,1.72,0,0,1,1-.3m-3.9,16.2a2.2,2.2,0,0,1,.8.1,3.86,3.86,0,0,1,2,.8,2.49,2.49,0,0,1,1.2,2,11.45,11.45,0,0,1-.5,4.6,44.3,44.3,0,0,1-2.1,6.1q-1.2,3.3-2.7,6.6c-0.9,2.2-1.7,4.2-2.4,5.9a28.58,28.58,0,0,0-1.2,4.2c-0.1.9,0.1,1.4,0.7,1.4h0.2a4.9,4.9,0,0,0,2.5-1.8,32.78,32.78,0,0,0,3.1-4.2c1.1-1.7,2.3-3.5,3.4-5.5s2.3-4,3.3-5.9,1.9-3.7,2.8-5.2l1.8-3.6a1.7,1.7,0,0,1,.6-0.6,0.76,0.76,0,0,1,.4-0.1h0.2a0.78,0.78,0,0,1,.4.4,0.63,0.63,0,0,1-.1.7c-0.5,1.1-1.3,2.6-2.3,4.6l-3.3,6.3q-1.8,3.3-3.9,6.9c-1.4,2.4-2.8,4.5-4.1,6.4a35.12,35.12,0,0,1-4,4.9,7.16,7.16,0,0,1-3.4,2.2,5.29,5.29,0,0,1-1.2.1,4.31,4.31,0,0,1-1.7-.3,4.53,4.53,0,0,1-1.7-1.3,5,5,0,0,1-1-2.2,10.45,10.45,0,0,1,.4-4.1c0.5-1.7,1.1-3.5,1.9-5.5s1.7-4.1,2.7-6.3,1.8-4.3,2.6-6.4a57.08,57.08,0,0,0,1.9-5.9,11.13,11.13,0,0,0,.3-4.7c0-.2.2-0.4,0.8-0.5a11,11,0,0,1,1.6-.1m3.9-18.2h0a4.1,4.1,0,0,0-1.1.1,8.78,8.78,0,0,0-2.3.7,6.92,6.92,0,0,0-2.2,1.6,5.32,5.32,0,0,0-1.2,2.5,8.92,8.92,0,0,0-.1,3.3,6,6,0,0,0,2.3,4.1,7.33,7.33,0,0,0,3.5,1.2h0.4a8.68,8.68,0,0,0,2.8-.5,6.05,6.05,0,0,0,2.3-1.3,5,5,0,0,0,1.4-3.3,9.38,9.38,0,0,0-.4-3.7,7.93,7.93,0,0,0-2-3.3,4.39,4.39,0,0,0-3.4-1.4h0Zm-3.9,16.2a8.75,8.75,0,0,0-1.6.2c-2.5.6-2.4,2.4-2.3,2.8a9.2,9.2,0,0,1-.3,3.9,39.85,39.85,0,0,1-1.8,5.6c-0.8,2-1.7,4.2-2.6,6.4s-1.8,4.3-2.7,6.3-1.5,4-2,5.7a11.45,11.45,0,0,0-.5,5h0a7,7,0,0,0,1.3,2.9h0a8.36,8.36,0,0,0,2.3,1.8,5.1,5.1,0,0,0,2.5.5,9.15,9.15,0,0,0,1.6-.1,8.1,8.1,0,0,0,4.5-2.8,38.12,38.12,0,0,0,4.2-5.1q2.1-3,4.2-6.6c1.4-2.4,2.7-4.7,3.9-7s2.3-4.4,3.3-6.3,1.7-3.5,2.3-4.6h0a2.84,2.84,0,0,0,.1-2.2,2.78,2.78,0,0,0-1.8-1.7,1.7,1.7,0,0,0-.7-0.1,5.16,5.16,0,0,0-1.1.2,3.26,3.26,0,0,0-1.8,1.6c-0.4.8-1,2-1.8,3.5s-1.7,3.3-2.7,5.2-2.1,3.8-3.2,5.8a63.63,63.63,0,0,1-3.4,5.4c-0.7,1-1.3,1.9-1.9,2.7,0-.1.1-0.3,0.1-0.4,0.6-1.7,1.4-3.7,2.3-5.8l2.7-6.6a46.49,46.49,0,0,0,2.1-6.3,14.16,14.16,0,0,0,.6-5.5,4.68,4.68,0,0,0-2.1-3.4,7.91,7.91,0,0,0-2.9-1.1,1.72,1.72,0,0,1-.8.1h0Z"/><path d="M174.9,88.21a5.23,5.23,0,0,1-1.8-.3,5.3,5.3,0,0,1-1.5-.8,3.14,3.14,0,0,1-1-1,2.11,2.11,0,0,1-.5-1.1c0-.3,0-0.5,1.3-2.7,0.8-1.3,1.8-3,3-5s2.5-4.3,3.9-6.8,2.7-5,3.8-7.4,2.1-4.7,2.9-6.7a15.82,15.82,0,0,0,1.1-4.8,1.14,1.14,0,0,1,.3-0.8,1.79,1.79,0,0,1,1.4-.4,6.35,6.35,0,0,1,2.3.5,7.82,7.82,0,0,1,2.2,1.5,4.51,4.51,0,0,1,1.2,3,10,10,0,0,1-.8,3.8,16.68,16.68,0,0,1-.8,2c0.8-.9,1.6-1.8,2.5-2.7a51.38,51.38,0,0,1,4.1-4,31.21,31.21,0,0,1,4.5-3.2,9.39,9.39,0,0,1,4.6-1.4h0.2a4.13,4.13,0,0,1,3.6,1.6,8,8,0,0,1,1.2,4.1,9.61,9.61,0,0,1-.8,3.8,39,39,0,0,1-2,4.2c-0.8,1.4-1.7,2.9-2.7,4.4s-2,2.9-2.9,4.3-1.8,2.7-2.6,3.9a16.44,16.44,0,0,0-1.7,3,3.14,3.14,0,0,0-.4,1.5h0.3c0.2,0,.8-0.1,2.1-1.2a30.39,30.39,0,0,0,3.6-3.6c1.3-1.5,2.7-3.1,4.1-4.9s2.8-3.6,4.1-5.3,2.4-3.3,3.5-4.8l2.3-3.2a2.35,2.35,0,0,1,1.3-.9h0.4c0.3,0,.5.1,0.8,0.1a1.44,1.44,0,0,1,.9,1.2,1.62,1.62,0,0,1-.3,1.4c-0.7,1-1.7,2.4-2.9,4.2s-2.6,3.7-4,5.8-3.1,4.2-4.8,6.3-3.4,4.1-5,5.8a60.4,60.4,0,0,1-4.8,4.4,8.39,8.39,0,0,1-4.6,1.9h-0.2a5.14,5.14,0,0,1-3.4-1.1,7.61,7.61,0,0,1-1.8-2.3,8.45,8.45,0,0,1-.6-3.3,13,13,0,0,1,1.4-5.8,38.35,38.35,0,0,1,3.3-5.9l3.9-5.7c1.4-1.8,2.5-3.4,3.4-4.7a12.59,12.59,0,0,0,1.6-2.9H204a4.12,4.12,0,0,0-2.4,1.2c-1.1.9-2.4,2.1-3.8,3.5s-2.9,3.2-4.4,5.1-3.1,3.9-4.5,5.9-3,4-4.4,5.9-2.7,3.7-3.9,5.2-2.2,2.7-3,3.7c-1.1,1.2-1.8,1.7-2.4,1.7Z"/><path class="cls-1" d="M207.6,50.81a3.23,3.23,0,0,1,2.8,1.2,6.61,6.61,0,0,1,1,3.5,9.37,9.37,0,0,1-.7,3.4,38.06,38.06,0,0,1-2,4.1,50.74,50.74,0,0,1-2.7,4.3c-1,1.5-2,2.9-2.9,4.3s-1.8,2.7-2.7,3.9a22.14,22.14,0,0,0-1.8,3.2,3.9,3.9,0,0,0-.5,2.1,1.11,1.11,0,0,0,1.3.8h0.1a4.62,4.62,0,0,0,2.7-1.5,42.85,42.85,0,0,0,3.7-3.7c1.4-1.5,2.7-3.1,4.2-4.9s2.8-3.6,4.1-5.3,2.4-3.3,3.5-4.8,1.8-2.5,2.3-3.3a1.16,1.16,0,0,1,.7-0.5H221a0.6,0.6,0,0,1,.4.1,0.42,0.42,0,0,1,.3.4,1,1,0,0,1-.2.7c-0.7,1-1.7,2.4-2.9,4.2s-2.5,3.7-4,5.8-3.1,4.1-4.7,6.3a74.83,74.83,0,0,1-5,5.8,34.74,34.74,0,0,1-4.7,4.2,7.1,7.1,0,0,1-4,1.7H196a4.65,4.65,0,0,1-2.8-.8,5.25,5.25,0,0,1-1.5-1.9,5.4,5.4,0,0,1-.5-2.9,12.54,12.54,0,0,1,1.3-5.4,41.8,41.8,0,0,1,3.2-5.8c1.2-1.9,2.5-3.8,3.9-5.6s2.5-3.4,3.4-4.8a19.2,19.2,0,0,0,1.8-3.3c0.2-.8-0.1-1.2-1.1-1.2h-0.1a5.62,5.62,0,0,0-3,1.4,25.89,25.89,0,0,0-3.9,3.7,62.61,62.61,0,0,0-4.4,5.2c-1.5,1.9-3.1,3.9-4.6,5.9s-3,4-4.4,5.9-2.7,3.6-3.9,5.1-2.1,2.7-2.9,3.6a3.92,3.92,0,0,1-1.7,1.4h-0.1a4,4,0,0,1-1.5-.3,5.39,5.39,0,0,1-1.3-.7,3,3,0,0,1-.8-0.8,1.1,1.1,0,0,1-.3-0.6,20.8,20.8,0,0,1,1.2-2.2c0.8-1.3,1.8-3,3-5s2.5-4.3,3.9-6.8,2.7-5,3.9-7.4,2.2-4.7,3-6.8a12.75,12.75,0,0,0,1.1-5.2c0-.2.2-0.2,0.7-0.2h0.1a7.42,7.42,0,0,1,1.8.4,5.86,5.86,0,0,1,1.9,1.3,3.17,3.17,0,0,1,.9,2.3,10.28,10.28,0,0,1-.7,3.5c-0.5,1.4-1,2.6-1.6,3.9s-1.1,2.3-1.6,3.2a3.2,3.2,0,0,0-.5,1.3h0A7.13,7.13,0,0,0,189,66c0.6-.8,1.5-1.8,2.5-3s2.2-2.5,3.5-3.9a37.8,37.8,0,0,1,4.1-3.9,31.08,31.08,0,0,1,4.3-3.1,9.77,9.77,0,0,1,4.1-1.3h0.1m0-2h-0.2a9.92,9.92,0,0,0-5,1.5,27.93,27.93,0,0,0-4.6,3.3c-1.2,1.1-2.4,2.2-3.5,3.4a5,5,0,0,0,.1-1.7,5,5,0,0,0-1.5-3.7,8.32,8.32,0,0,0-2.5-1.8,6.51,6.51,0,0,0-2.6-.6h-0.1a2.9,2.9,0,0,0-2.1.7,2.2,2.2,0,0,0-.6,1.5,12,12,0,0,1-1,4.4,59.09,59.09,0,0,1-2.9,6.7c-1.2,2.4-2.5,4.9-3.8,7.3s-2.7,4.7-3.9,6.8-2.2,3.7-3,5c-1.3,2.2-1.5,2.6-1.5,3.2a2.94,2.94,0,0,0,.7,1.7,5.12,5.12,0,0,0,1.3,1.2,9.49,9.49,0,0,0,1.7,1,5.38,5.38,0,0,0,2.2.4h0.1c1.1,0,2-.8,3.1-2.1,0.8-.9,1.8-2.2,3-3.7s2.4-3.2,3.9-5.2,2.9-3.9,4.4-5.9,3-3.9,4.5-5.9,3-3.6,4.3-5c1.1-1.1,2.1-2.1,3-2.9q-1.35,1.95-3.3,4.5c-1.4,1.8-2.7,3.8-4,5.7a40.21,40.21,0,0,0-3.3,6.1,13.63,13.63,0,0,0-1.4,6.3,8.73,8.73,0,0,0,.7,3.7,7.32,7.32,0,0,0,2,2.7,5.94,5.94,0,0,0,4.1,1.3h0.2a8.48,8.48,0,0,0,5.1-2.1,39.37,39.37,0,0,0,4.9-4.5,62,62,0,0,0,5.1-5.9q2.55-3.3,4.8-6.3c1.5-2.1,2.9-4,4.1-5.8s2.1-3.2,2.8-4.2h0a3.15,3.15,0,0,0,.4-2.2,2.47,2.47,0,0,0-1.5-1.9,2.54,2.54,0,0,0-1.2-.2,1.27,1.27,0,0,0-.6.1,2.9,2.9,0,0,0-2,1.3l-2.3,3.2c-1,1.4-2.2,3-3.5,4.8s-2.6,3.5-4,5.3-2.8,3.4-4.1,4.8-2.5,2.6-3.5,3.5a15.07,15.07,0,0,1,1.2-2c0.8-1.2,1.7-2.5,2.6-3.9s2-2.9,2.9-4.3,1.9-3,2.8-4.5a24.21,24.21,0,0,0,2.1-4.3,11.78,11.78,0,0,0,.9-4.2,7.72,7.72,0,0,0-1.4-4.7c-0.4-.8-1.7-1.9-4.1-1.9h0Z"/><path d="M191.8,117.31a4.1,4.1,0,0,1-1.1-.1q-4.2-.75-5.7-3.3a8.22,8.22,0,0,1-.8-5.9c0.3-1.6,1.4-3,3.3-4.4a46.33,46.33,0,0,1,6.9-3.8c2.8-1.3,6.1-2.6,9.7-4s7.4-2.9,11.4-4.5c1.1-.9,2.1-1.8,3.2-2.7-0.3,0-.6.1-0.9,0.1a6.15,6.15,0,0,1-1.3-.1,9.51,9.51,0,0,1-2.9-1.1,8.15,8.15,0,0,1-2.6-2.3,8.46,8.46,0,0,1-1.6-3.6,13.4,13.4,0,0,1,0-4.9,17.92,17.92,0,0,1,1.9-5.1,28.18,28.18,0,0,1,3.6-5.4,39.12,39.12,0,0,1,4.9-5.1,33.58,33.58,0,0,1,6-4.1,27.94,27.94,0,0,1,6.6-2.5,18.26,18.26,0,0,1,7.1-.1c2.6,0.5,4.3,1.6,5.1,3.4a9.94,9.94,0,0,1,.4,6,15.43,15.43,0,0,1-.5,1.7,2,2,0,0,1-.4.8,0.35,0.35,0,0,1,.2.1,4.44,4.44,0,0,1,1.1.8,3.63,3.63,0,0,1,.9.8,1.64,1.64,0,0,1,.5,1.4,6,6,0,0,1-1.3,2.2c-0.7.9-1.7,2.1-2.9,3.6s-2.7,3.1-4.4,4.9c-0.4.5-.9,0.9-1.3,1.4,3-1.7,6-3.4,8.9-5.3a72.51,72.51,0,0,0,12.6-10.1,2.67,2.67,0,0,1,1.4-.7h0.1a1.59,1.59,0,0,1,1.2.4,1.61,1.61,0,0,1,.6,1.3,1.84,1.84,0,0,1-.6,1.3,41.23,41.23,0,0,1-6.3,6.2,65.73,65.73,0,0,1-7.9,5.6,96.12,96.12,0,0,1-9,5.1c-3.1,1.6-6.2,3.1-9.4,4.5-2.2,2.2-4.5,4.4-6.8,6.6s-4.8,4.5-7.2,6.5-4.8,4-7.1,5.8a57,57,0,0,1-6.6,4.6,30.7,30.7,0,0,1-5.7,2.9A4.71,4.71,0,0,1,191.8,117.31Zm10.8-16.4c-2.9,1.1-5.4,2.2-7.6,3.2a55.62,55.62,0,0,0-5.1,2.7c-1.5,1-1.7,1.5-1.7,1.7a1.1,1.1,0,0,0,0,.8,0.91,0.91,0,0,0,.3.5,1.55,1.55,0,0,0,.8.3h0.2a6.85,6.85,0,0,0,2.6-.9,49.55,49.55,0,0,0,5.2-3.2c2-1.4,4.2-3,6.5-4.8,0.7-.5,1.3-1.1,2-1.6C204.6,100.11,203.6,100.51,202.6,100.91Zm34.1-40.6a10.11,10.11,0,0,0-4.2,1.1,27.32,27.32,0,0,0-5.9,4.1,32.32,32.32,0,0,0-5.1,5.9,32.47,32.47,0,0,0-3.5,6.1,10.49,10.49,0,0,0-1.1,4.7,1.35,1.35,0,0,0,1.2,1.6h0.5a5.61,5.61,0,0,0,2.3-.6,29.56,29.56,0,0,0,3.9-2.4c1.4-1.1,2.8-2.3,4.3-3.6,1.3-1.2,2.5-2.3,3.6-3.5l-0.3-.6a1.74,1.74,0,0,1-.3-1.3c0.1-.5.4-0.8,1.4-1.5a14.55,14.55,0,0,0,2.1-1.8,14.35,14.35,0,0,0,2.2-2.6,7.1,7.1,0,0,0,1.3-3.1A3.53,3.53,0,0,0,239,61a1.11,1.11,0,0,0-.9-0.5A3.4,3.4,0,0,0,236.7,60.31Z"/><path class="cls-1" d="M236.4,55.11a15.26,15.26,0,0,1,3,.3c2.2,0.4,3.7,1.4,4.3,2.8a9.53,9.53,0,0,1,.4,5.4,8.33,8.33,0,0,1-.4,1.5,11.94,11.94,0,0,1-.8,1.6,4.07,4.07,0,0,1,1.1.6,8.65,8.65,0,0,1,1,.7,5.72,5.72,0,0,1,.8.7,0.86,0.86,0,0,1,.3.6A5.79,5.79,0,0,1,245,71c-0.7.9-1.7,2.1-2.9,3.5s-2.7,3-4.3,4.8l-5.5,5.8A145.18,145.18,0,0,0,246.6,77a79.64,79.64,0,0,0,12.8-10.2,1.23,1.23,0,0,1,.8-0.4h0.1a1.42,1.42,0,0,1,.6.2,0.48,0.48,0,0,1,.2.5,0.86,0.86,0,0,1-.3.6,39.89,39.89,0,0,1-6.2,6.1c-2.4,1.9-5,3.8-7.8,5.6s-5.8,3.5-8.9,5.1-6.3,3.1-9.5,4.6c-2.2,2.2-4.6,4.5-6.9,6.7s-4.8,4.4-7.2,6.5-4.7,4-7,5.8-4.5,3.3-6.5,4.6a33.51,33.51,0,0,1-5.6,2.9,9.37,9.37,0,0,1-3.4.7,2.77,2.77,0,0,1-.9-0.1c-2.5-.5-4.1-1.4-5-2.8a7.36,7.36,0,0,1-.7-5.2c0.2-1.3,1.2-2.5,2.9-3.7a49,49,0,0,1,6.7-3.7c2.8-1.3,6-2.6,9.7-4s7.5-2.9,11.6-4.6c3.1-2.7,6-5.2,8.5-7.5-0.5.4-1,.7-1.6,1.1s-1.2.7-1.9,1.1a17.24,17.24,0,0,1-2.1.7,6.1,6.1,0,0,1-2.2,0,10.61,10.61,0,0,1-2.6-1,7.4,7.4,0,0,1-2.3-2,7.05,7.05,0,0,1-1.4-3.3,11.31,11.31,0,0,1,0-4.5,19.18,19.18,0,0,1,1.8-4.8,31.62,31.62,0,0,1,3.5-5.2,36.91,36.91,0,0,1,4.8-4.9,33.21,33.21,0,0,1,5.8-4,26.2,26.2,0,0,1,6.4-2.4,22.06,22.06,0,0,1,3.6-.4m-17.8,29.7a6,6,0,0,0,2.7-.7,32.31,32.31,0,0,0,4.1-2.5,47.17,47.17,0,0,0,4.3-3.7c1.4-1.4,2.9-2.7,4.2-4.1a7.46,7.46,0,0,1-.7-1.2,2.6,2.6,0,0,1-.3-0.7,4.91,4.91,0,0,1,1-.9,29,29,0,0,0,2.2-1.9,20.4,20.4,0,0,0,2.3-2.7,10.91,10.91,0,0,0,1.5-3.5,4.32,4.32,0,0,0-.1-2.3,2.26,2.26,0,0,0-1.6-1.2,7.57,7.57,0,0,0-1.5-.1,10.18,10.18,0,0,0-4.6,1.2,24.26,24.26,0,0,0-6.1,4.3,43.71,43.71,0,0,0-5.3,6,29.49,29.49,0,0,0-3.6,6.3,11.07,11.07,0,0,0-1.2,5.2c0.1,1.5.7,2.3,2,2.5h0.7m-7.1,11.5c-3.3,1.3-6.4,2.6-9.3,3.8s-5.4,2.2-7.6,3.2a34,34,0,0,0-5.2,2.8,5,5,0,0,0-2.2,2.3,2.44,2.44,0,0,0,0,1.2,2.62,2.62,0,0,0,.5.9,2.26,2.26,0,0,0,1.3.6h0.4a6.51,6.51,0,0,0,3-1c1.5-.8,3.3-1.9,5.3-3.2s4.2-3,6.6-4.9,4.8-3.7,7.2-5.7m24.9-43.2a18.41,18.41,0,0,0-4.1.5,25.11,25.11,0,0,0-6.9,2.6,42.24,42.24,0,0,0-6.2,4.2,41.62,41.62,0,0,0-5.1,5.2,35.35,35.35,0,0,0-3.7,5.5,19.49,19.49,0,0,0-2,5.3,11.8,11.8,0,0,0,0,5.3,11.33,11.33,0,0,0,1.8,4,8.33,8.33,0,0,0,3,2.6,12.13,12.13,0,0,0,3,1.1,5.24,5.24,0,0,0-1.1,1c-3.9,1.6-7.7,3.1-11.3,4.4s-7,2.8-9.8,4a41.07,41.07,0,0,0-7.1,3.9c-2.1,1.5-3.4,3.2-3.7,5a9.71,9.71,0,0,0,.9,6.6c1.1,1.9,3.3,3.2,6.3,3.8a4.87,4.87,0,0,0,1.2.1,11.29,11.29,0,0,0,4.1-.9,36.55,36.55,0,0,0,5.9-3c2.1-1.3,4.3-2.9,6.7-4.7s4.7-3.8,7.1-5.9,4.8-4.3,7.2-6.6,4.6-4.4,6.7-6.5c3.1-1.4,6.2-2.9,9.2-4.5,3.2-1.6,6.2-3.4,9.1-5.2a81.48,81.48,0,0,0,8-5.7,42.51,42.51,0,0,0,6.4-6.3,2.74,2.74,0,0,0,.8-2,2.61,2.61,0,0,0-1-2,2.79,2.79,0,0,0-1.8-.6h-0.2a3.31,3.31,0,0,0-2.1.9,80,80,0,0,1-12.5,9.9c-1.1.7-2.1,1.4-3.2,2a17.38,17.38,0,0,0,1.3-1.5c1.3-1.5,2.2-2.7,3-3.6a5.91,5.91,0,0,0,1.5-2.6,2.42,2.42,0,0,0-.8-2.3,5.31,5.31,0,0,0-1.1-.9c-0.2-.2-0.5-0.3-0.7-0.5v-0.1a16.69,16.69,0,0,0,.5-1.8,11.1,11.1,0,0,0-.5-6.6c-0.9-2.1-2.9-3.5-5.8-4-0.7,0-1.9-.1-3-0.1h0Zm-17.8,29.7h-0.3c-0.3-.1-0.4-0.1-0.4-0.7a11.82,11.82,0,0,1,1-4.3,27.81,27.81,0,0,1,3.4-5.9,39.26,39.26,0,0,1,5-5.7,21.85,21.85,0,0,1,5.6-3.9,9.36,9.36,0,0,1,3.8-1,4.87,4.87,0,0,1,1.2.1h0.2a3.75,3.75,0,0,1,0,1.1,9.61,9.61,0,0,1-1.1,2.8,17.15,17.15,0,0,1-2.1,2.4,23,23,0,0,1-2,1.7,3.56,3.56,0,0,0-1.8,2.1,3.13,3.13,0,0,0,.4,1.9c-1,1-2,2-3.1,3q-2.1,1.95-4.2,3.6a19.78,19.78,0,0,1-3.7,2.3,5.36,5.36,0,0,1-1.9.5h0Zm-29.5,26a6,6,0,0,1,1.3-1.1,32.08,32.08,0,0,1,5-2.6c1.2-.6,2.5-1.1,4-1.8-1,.7-1.9,1.4-2.8,2a46.57,46.57,0,0,1-5.1,3.1,6.75,6.75,0,0,1-2.1.8h0a0.37,0.37,0,0,1-.3-0.1v-0.3h0Z"/><path d="M258.8,108a1.93,1.93,0,0,1-1-.3,4.35,4.35,0,0,1-1.9-1.9,7.71,7.71,0,0,1-.7-2.6,15.3,15.3,0,0,1,.1-3,11.24,11.24,0,0,1,1-3.1,15.16,15.16,0,0,1,3.3-4.2,37.68,37.68,0,0,1,5.2-4.1c2-1.4,4.2-2.7,6.6-4.1s4.7-2.6,7.2-3.9a18.08,18.08,0,0,0,1.4-4.3,31.17,31.17,0,0,0,.4-5.4,35.72,35.72,0,0,0-.7-5.6,28.79,28.79,0,0,0-1.7-5.2,17.54,17.54,0,0,0-2.6-4.2,10.35,10.35,0,0,0-3.3-2.7,3,3,0,0,1-1.6-1.2A6.12,6.12,0,0,1,270,51a2.86,2.86,0,0,1,.1-1.6v-0.2q0.75-1.5,3.9-1.5a10.29,10.29,0,0,1,1.7.1,82.2,82.2,0,0,1,10.2,1.9c4.1,1,8.8,2.4,13.9,4s10.2,3.4,15.5,5.2a4.78,4.78,0,0,1,1.8-.6,5.7,5.7,0,0,1,1.3-.1,4.87,4.87,0,0,1,1.2.1,4.32,4.32,0,0,1,2.2,1.2,2.65,2.65,0,0,1,.7,2c3.6,1.4,7.3,2.8,10.8,4.2,3.8,1.5,7.4,3,10.8,4.4s6.5,2.8,9.4,4.2,5.3,2.6,7.4,3.7a27.66,27.66,0,0,1,4.7,3c0.6,0.5,2.2,1.7,1.5,3.1a14,14,0,0,1-1,1.6,4.66,4.66,0,0,1-1.4,1.4,4.55,4.55,0,0,1-1.9.8h-0.5a3.29,3.29,0,0,1-1.7-.4c-0.4-.2-1.1-0.6-2.2-1.2s-2.5-1.3-4.2-2.2-3.5-1.8-5.6-2.8-4.2-2.1-6.5-3.2-4.6-2.2-6.9-3.2-4.5-2-6.7-2.8c-2-.8-4-1.5-5.9-2.3-1.7-.7-3.4-1.3-5-1.9q-2.25,1.65-5.4,3.6-3.45,2.1-7.5,4.5c-2.7,1.6-5.6,3.2-8.6,4.9s-6,3.3-9,5-5.9,3.4-8.6,5-5.3,3.3-7.5,4.9a61.89,61.89,0,0,0-5.8,4.6,14.85,14.85,0,0,0-3.2,3.9l-0.6,1.2a14.62,14.62,0,0,1-.9,1.3,4.7,4.7,0,0,1-1.2.9C259.4,107.91,259.1,108,258.8,108Zm23.6-51.7a20.44,20.44,0,0,1,1.5,3.7,26.24,26.24,0,0,1,1.2,6.8,39.61,39.61,0,0,1-.1,6.9c-0.2,1.4-.4,2.8-0.7,4.1l6.2-3.1c2.7-1.3,5.3-2.7,7.9-4s4.8-2.5,6.9-3.7c1.4-.8,2.6-1.6,3.8-2.3-6.3-2.2-11.8-4.1-16.5-5.5Z"/><path class="cls-1" d="M274.1,48.61a9.15,9.15,0,0,1,1.6.1,68.31,68.31,0,0,1,10.1,1.9c4.1,1,8.7,2.3,13.9,4S310.2,58,315.6,60a4.72,4.72,0,0,1,1.9-.7,4.87,4.87,0,0,1,1.2-.1,3.08,3.08,0,0,1,1,.1,2.36,2.36,0,0,1,1.6.9,2.19,2.19,0,0,1,.3,2c3.9,1.5,7.8,3,11.6,4.5s7.4,3,10.8,4.4,6.5,2.8,9.4,4.2,5.3,2.6,7.3,3.7a34.63,34.63,0,0,1,4.6,2.9c1,0.8,1.5,1.4,1.2,1.9l-0.9,1.5a6.79,6.79,0,0,1-1.2,1.2,3.39,3.39,0,0,1-1.5.6h-0.4a3.45,3.45,0,0,1-1.3-.3c-0.4-.2-1.1-0.6-2.2-1.1s-2.5-1.3-4.2-2.2-3.5-1.8-5.6-2.8-4.2-2.1-6.5-3.2-4.6-2.2-6.9-3.2-4.6-2-6.7-2.8-4-1.6-5.9-2.3-3.7-1.4-5.5-2.1A55.12,55.12,0,0,1,312,71q-3.45,2.1-7.5,4.5c-2.7,1.6-5.6,3.2-8.6,4.9s-6,3.3-9,5-5.8,3.4-8.6,5.1-5.3,3.3-7.6,4.9a64,64,0,0,0-5.9,4.7,14.89,14.89,0,0,0-3.4,4.2,13.39,13.39,0,0,0-.6,1.2,4.44,4.44,0,0,1-.8,1.1,5.5,5.5,0,0,1-.9.7,0.6,0.6,0,0,1-.4.1,1.42,1.42,0,0,1-.6-0.2,2.94,2.94,0,0,1-1.4-1.5,5.58,5.58,0,0,1-.6-2.3,12.43,12.43,0,0,1,.1-2.7,9.38,9.38,0,0,1,1-2.8,13.26,13.26,0,0,1,3.1-3.9,37.77,37.77,0,0,1,5.1-4c2-1.3,4.1-2.7,6.5-4.1s4.9-2.7,7.5-4A14.87,14.87,0,0,0,281,77a26,26,0,0,0,.4-5.6,38.25,38.25,0,0,0-.7-5.8,24.48,24.48,0,0,0-1.8-5.4,19.46,19.46,0,0,0-2.8-4.4,12.52,12.52,0,0,0-3.6-3,2.29,2.29,0,0,1-1.2-.8,3.55,3.55,0,0,1-.4-0.9A2.16,2.16,0,0,1,271,50c0.4-1.1,1.4-1.4,3.1-1.4m8.7,31.1c2.7-1.4,5.5-2.7,8.2-4.1s5.4-2.7,7.9-4,4.8-2.5,6.9-3.7a56.75,56.75,0,0,0,5.4-3.5c-7.1-2.5-13.2-4.6-18.3-6.2s-9.4-2.8-12.7-3.7a19,19,0,0,1,2.8,5.7,35,35,0,0,1,1.2,6.6,37.35,37.35,0,0,1-.1,6.7,28.3,28.3,0,0,1-1.3,6.2m-8.7-33.1c-0.9,0-3.7,0-4.8,2.1l-0.1.2-0.1.2A4.15,4.15,0,0,0,269,51v0.2a4.71,4.71,0,0,0,.6,1.5,3.94,3.94,0,0,0,2.1,1.6,10.92,10.92,0,0,1,2.9,2.4,18,18,0,0,1,2.5,4,24.48,24.48,0,0,1,1.7,5,33.28,33.28,0,0,1,.7,5.4,22.38,22.38,0,0,1-.4,5.2,12.07,12.07,0,0,1-1.2,3.8c-2.4,1.2-4.8,2.5-7,3.8-2.4,1.4-4.6,2.8-6.6,4.1a49.05,49.05,0,0,0-5.3,4.2,15.3,15.3,0,0,0-3.5,4.5,10.42,10.42,0,0,0-1.1,3.4,9.16,9.16,0,0,0-.1,3.3,9.47,9.47,0,0,0,.8,3,5.12,5.12,0,0,0,2.3,2.3,4.19,4.19,0,0,0,1.5.4,5,5,0,0,0,1.2-.2,6.1,6.1,0,0,0,1.6-1.2,7.1,7.1,0,0,0,1-1.4,12.75,12.75,0,0,1,.7-1.2,11.37,11.37,0,0,1,3-3.6,59.81,59.81,0,0,1,5.7-4.5c2.2-1.6,4.8-3.2,7.5-4.9s5.6-3.4,8.6-5,6-3.4,9-5,5.9-3.3,8.6-4.9,5.2-3.1,7.5-4.5c1.9-1.2,3.6-2.3,5-3.3,1.5,0.6,3,1.1,4.5,1.7,1.9,0.7,3.8,1.5,5.9,2.3s4.4,1.8,6.6,2.8,4.6,2.1,6.8,3.2,4.5,2.2,6.5,3.2,3.9,2,5.6,2.8,3.1,1.6,4.2,2.2,1.9,1,2.2,1.2a4.19,4.19,0,0,0,2.2.5,1.7,1.7,0,0,0,.7-0.1,4.78,4.78,0,0,0,2.3-1,8.08,8.08,0,0,0,1.6-1.6,17.39,17.39,0,0,0,1.1-1.8c0.7-1.4.1-2.9-1.8-4.3a32.89,32.89,0,0,0-4.9-3.1c-2-1.1-4.5-2.4-7.4-3.7s-6.1-2.8-9.5-4.2-7-2.9-10.8-4.4c-3.3-1.3-6.8-2.7-10.2-4a3.4,3.4,0,0,0-.9-2,4.82,4.82,0,0,0-2.8-1.5,6.15,6.15,0,0,0-1.4-.1,7.57,7.57,0,0,0-1.5.1,8.44,8.44,0,0,0-1.7.5c-5.2-1.8-10.3-3.6-15.2-5.1-5.2-1.7-9.9-3-14-4a71.16,71.16,0,0,0-10.4-1.9,3.16,3.16,0,0,0-1.9-.5h0Zm11.6,29.5c0.1-.7.2-1.5,0.3-2.2a33.61,33.61,0,0,0,.1-7.1,34.16,34.16,0,0,0-1.3-7.1c-0.2-.6-0.4-1.3-0.6-1.9q3.6,1.05,8.1,2.4c4.2,1.3,9,2.9,14.5,4.8-0.6.4-1.3,0.8-2,1.2-2.1,1.2-4.4,2.4-6.8,3.7s-5.1,2.6-7.8,4l-4.5,2.2h0Z"/><path d="M294.6,118.41a8.07,8.07,0,0,1-4.8-1.3,5,5,0,0,1-2.2-3.1,5.67,5.67,0,0,1,.1-2.9,10.53,10.53,0,0,1,1.5-3,15.5,15.5,0,0,1,4.4-4.1,32.89,32.89,0,0,1,4.6-2.3c1.5-.6,2.9-1.3,4.2-1.9a7.06,7.06,0,0,0,2.9-2.5,1.23,1.23,0,0,0,.2-0.7,10.26,10.26,0,0,0-.4-1.4c-0.2-.6-0.4-1.2-0.7-1.9a6,6,0,0,1-.5-2.4,6.89,6.89,0,0,1,.3-2.8,10.63,10.63,0,0,1,1.6-3.2,9.54,9.54,0,0,1,3.2-2.8,10.58,10.58,0,0,1,3.9-1.3,7.57,7.57,0,0,1,1.5-.1,11.34,11.34,0,0,1,2.5.3,10.19,10.19,0,0,1,3.5,1.6,3.57,3.57,0,0,1,1.2,1.6,2.19,2.19,0,0,1-.2,1.9,3.7,3.7,0,0,1-2,1.3c-0.7.2-1.5,0.4-2.3,0.7a16.26,16.26,0,0,0-2.5,1,5.38,5.38,0,0,0-2.1,1.9,7.29,7.29,0,0,0-1.2,2.3,6.23,6.23,0,0,0-.1,1.9,4.92,4.92,0,0,0,.6,1.7c0.3,0.6.6,1.3,0.9,1.9a5.22,5.22,0,0,1,.4,2.1,4,4,0,0,1-.9,2.4,7.29,7.29,0,0,1-2.6,2c-1.1.6-2.4,1.3-3.8,1.9s-2.8,1.3-4.2,2a21.74,21.74,0,0,0-3.5,2,5.16,5.16,0,0,0-1.7,1.6c0,0.1-.1.2,0.4,0.6a2.78,2.78,0,0,0,1.7.3h0.6q2.1-.15,5.1-0.6c1.9-.4,4.1-0.8,6.3-1.4s4.4-1.1,6.5-1.7,4-1.2,5.7-1.7,3-.9,3.9-1.1a1.7,1.7,0,0,1,.7-0.1,1.88,1.88,0,0,1,.8.2,2.36,2.36,0,0,1,.9.8,1.69,1.69,0,0,1,.1,1.4,1.58,1.58,0,0,1-1.1,1c-1.2.4-2.8,0.9-4.8,1.6s-4.3,1.4-6.7,2.1-5,1.4-7.6,2.1-5.2,1.2-7.6,1.6a45.4,45.4,0,0,1-6,.5h-0.7Z"/><path class="cls-1" d="M314.4,81.81a8.33,8.33,0,0,1,2.2.3,11.52,11.52,0,0,1,3.2,1.4,2.33,2.33,0,0,1,.9,1.1,1.1,1.1,0,0,1-.1,1,2.75,2.75,0,0,1-1.5.9c-0.7.2-1.5,0.4-2.3,0.7a14.45,14.45,0,0,0-2.6,1.1,7.1,7.1,0,0,0-2.4,2.2,6.6,6.6,0,0,0-1.3,2.7,6,6,0,0,0-.1,2.3,8,8,0,0,0,.7,2,14.17,14.17,0,0,1,.8,1.8,5.55,5.55,0,0,1,.3,1.7,2.74,2.74,0,0,1-.7,1.8,8,8,0,0,1-2.3,1.7c-1.1.6-2.4,1.2-3.8,1.9s-2.8,1.3-4.2,2-2.6,1.4-3.7,2a5.39,5.39,0,0,0-2,2,1.36,1.36,0,0,0,.7,1.8,4.35,4.35,0,0,0,2.3.5h0.7a39.6,39.6,0,0,0,5.2-.7c2-.4,4.1-0.8,6.3-1.4s4.4-1.1,6.5-1.7,4-1.2,5.7-1.7,3-.9,3.9-1.1a0.76,0.76,0,0,1,.4-0.1,0.6,0.6,0,0,1,.4.1,2.18,2.18,0,0,1,.5.4,0.64,0.64,0,0,1,0,.6,1.2,1.2,0,0,1-.5.5c-1.2.4-2.8,0.9-4.8,1.6s-4.3,1.4-6.7,2.1-4.9,1.4-7.6,2.1a55.26,55.26,0,0,1-7.5,1.5,44,44,0,0,1-5.9.5h-0.5a6.81,6.81,0,0,1-4.2-1.1,4.57,4.57,0,0,1-1.8-2.5,4.86,4.86,0,0,1,0-2.4,7,7,0,0,1,1.4-2.7,14.64,14.64,0,0,1,4.1-3.8,47.83,47.83,0,0,1,4.5-2.3,40.93,40.93,0,0,0,4.2-2,9.87,9.87,0,0,0,3.3-2.8,1.9,1.9,0,0,0,.4-1.4,12.44,12.44,0,0,0-.4-1.6c-0.2-.6-0.4-1.2-0.7-1.9a12.91,12.91,0,0,1-.5-2.1,7.25,7.25,0,0,1,.2-2.5,8.05,8.05,0,0,1,1.5-2.9,7.76,7.76,0,0,1,2.9-2.5,11.19,11.19,0,0,1,3.5-1.2,6.59,6.59,0,0,0,1.4.1m0-2a10.29,10.29,0,0,0-1.7.1,12.25,12.25,0,0,0-4.2,1.4,10.46,10.46,0,0,0-3.5,3.1,11,11,0,0,0-1.8,3.6,8.92,8.92,0,0,0-.3,3.2,11,11,0,0,0,.6,2.6c0.2,0.6.5,1.2,0.7,1.8a2.66,2.66,0,0,1,.3,1.2h0a8,8,0,0,1-2.6,2.2c-1.3.6-2.7,1.3-4.1,1.9a52.14,52.14,0,0,0-4.7,2.4,17.19,17.19,0,0,0-4.7,4.3,10.4,10.4,0,0,0-1.7,3.3,7.76,7.76,0,0,0-.1,3.4,6.09,6.09,0,0,0,2.6,3.7,9.8,9.8,0,0,0,5.3,1.5H295a49.68,49.68,0,0,0,6.2-.5c2.4-.4,5-0.9,7.7-1.6s5.2-1.4,7.7-2.1,4.7-1.4,6.8-2.1,3.6-1.2,4.8-1.6h0a3,3,0,0,0,1.7-1.6,2.67,2.67,0,0,0-1.4-3.5,2.77,2.77,0,0,0-1.3-.3,3.55,3.55,0,0,0-1,.2c-0.9.2-2.2,0.6-3.9,1.1s-3.6,1.1-5.6,1.7-4.2,1.2-6.4,1.7-4.3,1-6.2,1.3a34.1,34.1,0,0,1-4.9.6h-1.3a5.54,5.54,0,0,1,.8-0.6,25.84,25.84,0,0,1,3.4-1.9c1.4-.7,2.8-1.4,4.2-2s2.7-1.3,3.9-2a8.11,8.11,0,0,0,2.9-2.3,5.29,5.29,0,0,0,1.1-3,6.87,6.87,0,0,0-.5-2.4,17.6,17.6,0,0,0-.9-2,5.78,5.78,0,0,1-.5-1.4,2.66,2.66,0,0,1,.1-1.5,4.89,4.89,0,0,1,1-1.9,5.1,5.1,0,0,1,1.7-1.6,22.87,22.87,0,0,1,2.3-1c0.9-.3,1.6-0.5,2.3-0.7a4.55,4.55,0,0,0,2.5-1.6,3.28,3.28,0,0,0,.4-2.8A4.57,4.57,0,0,0,321,82a12.67,12.67,0,0,0-3.9-1.8,8.42,8.42,0,0,0-2.7-.4h0Z"/><path d="M325,135.91c-1.7,0-3.4-.1-5-0.2a30.14,30.14,0,0,1-7.6-1.5,15,15,0,0,1-5.9-3.5,10,10,0,0,1-1.8-2.6,10.59,10.59,0,0,1-.9-3.6,10.13,10.13,0,0,1,.7-4.1,11.56,11.56,0,0,1,2.8-4.1,19.9,19.9,0,0,1,4.4-3.1,32.56,32.56,0,0,1,6-2.3,49.57,49.57,0,0,1,6.9-1.3c1-.1,2.1-0.1,3.1-0.1a27.28,27.28,0,0,1,4.1.3,25.23,25.23,0,0,1,6.8,1.8,16.71,16.71,0,0,1,5.9,4c1.7,1.7,2.5,3.2,2.4,4.6a5.66,5.66,0,0,1-1.8,3.6,11,11,0,0,1-5.3,2.9,14.2,14.2,0,0,1-3.6.4c-0.9,0-1.9-.1-2.9-0.2a23.36,23.36,0,0,1-6.9-2.3,29.6,29.6,0,0,1-6-4.2,46.94,46.94,0,0,0-4.5,2.1,18.65,18.65,0,0,0-3.6,2.6,5.31,5.31,0,0,0-1.5,2.4,2,2,0,0,0,.7,1.9,8,8,0,0,0,3.7,1.7,53.12,53.12,0,0,0,6.4.8c1,0,2,.1,3,0.1h0c1.5,0,3,0,4.6-.1,2.6-.1,5.2-0.3,7.7-0.6s4.6-.5,6.6-0.8,3.3-.4,4.2-0.6H348a2.66,2.66,0,0,1,1.2.3,1.56,1.56,0,0,1,.8,1.1,1.7,1.7,0,0,1-.2,1.4,2.28,2.28,0,0,1-1.2.8c-1.2.2-2.9,0.5-5,.8s-4.5.7-7.1,1-5.4.5-8.2,0.7C327.2,135.91,326.1,135.91,325,135.91Zm0.8-17.3a15.76,15.76,0,0,0,7.5,3.3,19.42,19.42,0,0,0,2.4.2h0a8.08,8.08,0,0,0,1.6-.1,10.83,10.83,0,0,0,3-.8,2.08,2.08,0,0,0,1.2-1c0.1-.1.1-0.2-0.2-0.6a6.45,6.45,0,0,0-2.8-1.6,14.21,14.21,0,0,0-4.2-.6H334a26.32,26.32,0,0,0-4.7.4C328.1,118,327,118.31,325.8,118.61Z"/><path class="cls-1" d="M327.7,110.41a26.93,26.93,0,0,1,4,.3,29.09,29.09,0,0,1,6.6,1.7,17.19,17.19,0,0,1,5.5,3.7c1.5,1.5,2.2,2.8,2.1,3.8a4.8,4.8,0,0,1-1.5,3,9.42,9.42,0,0,1-4.8,2.6,12.67,12.67,0,0,1-3.4.4,24.51,24.51,0,0,1-2.7-.2,21.38,21.38,0,0,1-6.6-2.2,23.89,23.89,0,0,1-6.2-4.5,35.61,35.61,0,0,0-5.2,2.4,15,15,0,0,0-3.8,2.8,5.54,5.54,0,0,0-1.7,2.9,2.94,2.94,0,0,0,1,2.8,8.22,8.22,0,0,0,4.2,1.9,39.79,39.79,0,0,0,6.5.8c1,0,2,.1,3.1.1,1.5,0,3,0,4.6-.1,2.7-.1,5.3-0.3,7.7-0.6s4.6-.5,6.6-0.8,3.3-.4,4.2-0.6H348a1.45,1.45,0,0,1,.7.2,0.77,0.77,0,0,1,.3,1.1,0.6,0.6,0,0,1-.6.3c-1.2.2-2.9,0.5-5,.8s-4.5.7-7.1,1-5.3.5-8.1,0.7c-1.1.1-2.2,0.1-3.3,0.1-1.7,0-3.3-.1-4.9-0.2a34.65,34.65,0,0,1-7.4-1.4,12.13,12.13,0,0,1-5.5-3.3,9.1,9.1,0,0,1-1.6-2.4,8.87,8.87,0,0,1-.8-3.2,8.22,8.22,0,0,1,.6-3.7,10.77,10.77,0,0,1,2.6-3.8,18.08,18.08,0,0,1,4.2-2.9,30.42,30.42,0,0,1,5.8-2.2,34.64,34.64,0,0,1,6.7-1.2c1.1,0,2.1-.1,3.1-0.1m8,12.6a10.87,10.87,0,0,0,1.8-.1,13.06,13.06,0,0,0,3.3-.9,3.2,3.2,0,0,0,1.7-1.5,1.45,1.45,0,0,0-.4-1.7,6.72,6.72,0,0,0-3.3-1.9,15.32,15.32,0,0,0-4.5-.6H334a28.51,28.51,0,0,0-4.9.4,35.31,35.31,0,0,0-5.4,1.3,19.65,19.65,0,0,0,4.6,3.3,17.74,17.74,0,0,0,4.8,1.5c1,0.1,1.8.2,2.6,0.2m-8-14.6c-1,0-2.1.1-3.2,0.2a38.87,38.87,0,0,0-7.1,1.3,27.69,27.69,0,0,0-6.1,2.4,22.59,22.59,0,0,0-4.7,3.2,12.58,12.58,0,0,0-3.1,4.5,10.12,10.12,0,0,0-.7,4.5,10.72,10.72,0,0,0,1,4,9.27,9.27,0,0,0,2,2.9,16.62,16.62,0,0,0,6.3,3.8,31.74,31.74,0,0,0,7.8,1.5c1.7,0.1,3.4.2,5.1,0.2,1.1,0,2.2,0,3.4-.1,2.9-.1,5.6-0.4,8.3-0.7s5-.7,7.2-1,3.8-.6,5-0.8h0a2.75,2.75,0,0,0,1.9-1.2,2.55,2.55,0,0,0,.4-2.2,2.79,2.79,0,0,0-1.3-1.7,3.37,3.37,0,0,0-1.7-.5h-0.5q-1.35.15-4.2,0.6c-1.9.2-4.1,0.5-6.5,0.7s-5,.4-7.6.6c-1.5.1-3.1,0.1-4.5,0.1-1,0-2,0-3-.1a36.58,36.58,0,0,1-6.2-.7,6.31,6.31,0,0,1-3.2-1.4,1.12,1.12,0,0,1-.5-1,3.73,3.73,0,0,1,1.2-1.9,16.65,16.65,0,0,1,3.4-2.5,33.65,33.65,0,0,1,3.8-1.9,24.6,24.6,0,0,0,5.8,3.9,25.43,25.43,0,0,0,7.2,2.4,15.14,15.14,0,0,0,3,.2,15.81,15.81,0,0,0,3.8-.4,11.79,11.79,0,0,0,5.7-3.1,6.32,6.32,0,0,0,2.1-4.3c0.1-1.7-.8-3.4-2.7-5.4a20,20,0,0,0-6.2-4.2,27.52,27.52,0,0,0-7.1-1.9c-1.5.1-2.9,0-4.3,0h0Zm0.5,10.6a5.07,5.07,0,0,1,1.3-.2,24.22,24.22,0,0,1,4.5-.4h0.3a15.38,15.38,0,0,1,3.9.5,5.29,5.29,0,0,1,2.1,1.1,0.76,0.76,0,0,1-.4.2,8.81,8.81,0,0,1-2.7.7,7.57,7.57,0,0,1-1.5.1,16.35,16.35,0,0,1-2.2-.2,15,15,0,0,1-4.3-1.3,9.24,9.24,0,0,1-1-.5h0Z"/><path d="M364.7,159.71h-5c-2.1,0-4.6-.1-7.2-0.2s-5.4-.4-8.2-0.7a54.08,54.08,0,0,1-8.2-1.6,32.66,32.66,0,0,1-7.2-2.8,15.67,15.67,0,0,1-5.3-4.5,11.06,11.06,0,0,1-1.3-2.9,9.16,9.16,0,0,1-.2-3.7,10.23,10.23,0,0,1,1.4-3.9,11.88,11.88,0,0,1,3.5-3.6,17.19,17.19,0,0,1,4.9-2.3,29.36,29.36,0,0,1,6.3-1.2c1.2-.1,2.5-0.2,3.8-0.2,1.1,0,2.1,0,3.2.1a34.16,34.16,0,0,1,7.1,1.3,25,25,0,0,1,6.4,3,18.29,18.29,0,0,1,5.1,4.9c1.4,2,1.9,3.6,1.6,4.9a5.5,5.5,0,0,1-2.4,3.3,11.39,11.39,0,0,1-5.7,1.9h-0.9a15.64,15.64,0,0,1-5.5-1,24.67,24.67,0,0,1-11.6-8.6,33.63,33.63,0,0,0-4.8,1.4,18.57,18.57,0,0,0-4,2,4.83,4.83,0,0,0-1.8,2.1,2.07,2.07,0,0,0,.4,2,7.34,7.34,0,0,0,3.3,2.3,40.41,40.41,0,0,0,6.1,1.8c2.3,0.5,4.9.9,7.5,1.2s5.2,0.6,7.6.7,4.7,0.3,6.6.4,3.4,0.1,4.2.1a2,2,0,0,1,1.4.6,1.69,1.69,0,0,1,.1,2.5c0,0.4-.4.7-1.2,0.7h0Zm-19.9-18.4a15.46,15.46,0,0,0,2.7,2.4,13.77,13.77,0,0,0,4.2,2.1,14.94,14.94,0,0,0,4,.8h0.6a9,9,0,0,0,2.5-.3,2.57,2.57,0,0,0,1.4-.8c0.1-.1.2-0.2-0.1-0.6a7.55,7.55,0,0,0-2.5-2.1,15.65,15.65,0,0,0-4-1.3,26,26,0,0,0-5-.4v0C347.2,141.21,346,141.31,344.8,141.31Z"/><path class="cls-1" d="M341.9,133.21c1,0,2.1,0,3.2.1a31.2,31.2,0,0,1,6.9,1.3,26.74,26.74,0,0,1,6.2,2.8A16.18,16.18,0,0,1,363,142c1.2,1.7,1.7,3.1,1.4,4.1a4.85,4.85,0,0,1-1.9,2.7,11.14,11.14,0,0,1-5.2,1.8h-0.9a15.24,15.24,0,0,1-5.1-.9,21.46,21.46,0,0,1-6.1-3.3,25.66,25.66,0,0,1-5.4-5.5,39.86,39.86,0,0,0-5.5,1.5,16.44,16.44,0,0,0-4.2,2.1,5.33,5.33,0,0,0-2.2,2.6,2.89,2.89,0,0,0,.5,2.9,8.18,8.18,0,0,0,3.8,2.6,39.5,39.5,0,0,0,6.3,1.9c2.4,0.5,4.9.9,7.6,1.2s5.2,0.6,7.7.7,4.7,0.3,6.6.4,3.4,0.1,4.3.1a1.14,1.14,0,0,1,.8.3,0.86,0.86,0,0,1,.3.6,0.48,0.48,0,0,1-.2.5,1.07,1.07,0,0,1-.6.2h-5c-2.1,0-4.5-.1-7.1-0.2s-5.3-.4-8.1-0.7a52.71,52.71,0,0,1-8.1-1.5,34,34,0,0,1-7-2.7,13.51,13.51,0,0,1-4.9-4.2,6.82,6.82,0,0,1-1.1-2.6,8.92,8.92,0,0,1-.2-3.3,9.73,9.73,0,0,1,1.2-3.5,11.06,11.06,0,0,1,3.2-3.3,16.36,16.36,0,0,1,4.6-2.1,28.67,28.67,0,0,1,6.1-1.2h3.3m14.3,14.4a10.06,10.06,0,0,0,2.7-.3,3,3,0,0,0,1.9-1.2,1.36,1.36,0,0,0-.1-1.7,7.65,7.65,0,0,0-2.9-2.4,18.08,18.08,0,0,0-4.3-1.4,27.81,27.81,0,0,0-5.2-.5h0a49.33,49.33,0,0,0-5.5.3,15.2,15.2,0,0,0,4,4,19.18,19.18,0,0,0,4.5,2.3,13.48,13.48,0,0,0,4.2.8,2,2,0,0,0,.7.1m-14.3-16.4c-1.3,0-2.6.1-3.9,0.2a32.54,32.54,0,0,0-6.5,1.3,17.86,17.86,0,0,0-5.2,2.4,12.7,12.7,0,0,0-3.8,3.9,12.3,12.3,0,0,0-1.5,4.3,11.26,11.26,0,0,0,1.7,7.3,14.75,14.75,0,0,0,5.6,4.8,32.47,32.47,0,0,0,7.4,2.8,71.68,71.68,0,0,0,8.3,1.6c2.8,0.3,5.6.6,8.3,0.7s5.1,0.2,7.2.2h5a2.88,2.88,0,0,0,2-.8,2.38,2.38,0,0,0,.7-2.1,3.51,3.51,0,0,0-1-1.9,2.73,2.73,0,0,0-1.9-.8h-0.2c-0.9,0-2.3-.1-4.2-0.1s-4.1-.2-6.6-0.4-5-.4-7.6-0.7-5.1-.7-7.4-1.2a35.87,35.87,0,0,1-6-1.8,5.73,5.73,0,0,1-2.9-1.9,1.12,1.12,0,0,1-.3-1.1,3.68,3.68,0,0,1,1.5-1.6,16.76,16.76,0,0,1,3.8-1.9,26.43,26.43,0,0,1,4-1.2,25.11,25.11,0,0,0,5,4.8,25.76,25.76,0,0,0,6.7,3.6,17.27,17.27,0,0,0,5.8,1h1a12.1,12.1,0,0,0,6.2-2.1,6.49,6.49,0,0,0,2.8-3.8c0.4-1.6-.2-3.5-1.7-5.7a19.11,19.11,0,0,0-5.4-5.2,30.66,30.66,0,0,0-6.6-3.1,34.93,34.93,0,0,0-7.3-1.4,27.2,27.2,0,0,0-3-.1h0Zm5.2,11h1.3a23.26,23.26,0,0,1,4.8.4,18.85,18.85,0,0,1,3.8,1.2,5.53,5.53,0,0,1,1.9,1.4,2.57,2.57,0,0,1-.5.2,7.16,7.16,0,0,1-2.2.2h-0.6a13.31,13.31,0,0,1-3.7-.7,16.59,16.59,0,0,1-4-2c-0.2-.2-0.5-0.4-0.8-0.7h0Z"/><path d="M129.8,447.31a4.9,4.9,0,0,1-2.8-.9,9.19,9.19,0,0,1-2.2-2.2,13.54,13.54,0,0,1-1.5-3.2,12,12,0,0,1-.5-3.8,21.42,21.42,0,0,1,2.3-9,80,80,0,0,1,5.7-9.9c2.3-3.4,5-7,7.9-10.6,2.3-2.8,4.6-5.8,6.8-8.7a74.32,74.32,0,0,0-8.8,3.2,54.26,54.26,0,0,0-8.5,4.6A27.57,27.57,0,0,0,123,411c-1.5,1.6-1.6,2.3-1.6,2.4a1.93,1.93,0,0,1-1.5,2.2c-0.2,0-.3.1-0.5,0.1a3.23,3.23,0,0,1-1.8-.6,5.78,5.78,0,0,1-1.8-2.2,7.85,7.85,0,0,1-.8-3.5,9.29,9.29,0,0,1,2.7-6.2,24.75,24.75,0,0,1,7.4-5.3,69.41,69.41,0,0,1,11.6-4.3,108.09,108.09,0,0,1,15-2.9c1.2-1.6,2.4-3.4,3.6-5.2s2.5-3.9,3.6-5.7,1.9-3.5,2.6-5a9.52,9.52,0,0,0,.9-3.4,15,15,0,0,0-.2-2,2.72,2.72,0,0,0-.8-1.6,4.73,4.73,0,0,0-2.1-1.3,12.54,12.54,0,0,0-4.4-.6,76.63,76.63,0,0,0-18.7,2.3,91.46,91.46,0,0,0-16.7,6.1,93.76,93.76,0,0,0-14,8.2,95,95,0,0,0-10.8,8.9,54.65,54.65,0,0,0-6.8,7.9c-1.9,2.9-2.3,4.4-2.3,5.1a2,2,0,0,1-2,2.1H83.2a5.56,5.56,0,0,1-2.6-.8,7.57,7.57,0,0,1-2.7-2.4,6,6,0,0,1-1.3-4c0-1.2.8-3,2.4-5.5a44.22,44.22,0,0,1,6.8-7.8,76.92,76.92,0,0,1,11-8.9,85.13,85.13,0,0,1,15-8.4,113.14,113.14,0,0,1,18.9-6.3,101.35,101.35,0,0,1,22.7-2.4,50.61,50.61,0,0,1,6.8.5,21.09,21.09,0,0,1,6,1.8,13.74,13.74,0,0,1,4.4,3.3,7.83,7.83,0,0,1,1.8,5.2,8.59,8.59,0,0,1-1.1,3.8c-0.7,1.5-1.5,3.2-2.5,5s-2.1,3.8-3.4,5.8c-0.8,1.4-1.7,2.7-2.6,4.1,3.5-.2,7.1-0.3,11-0.3a6.74,6.74,0,0,1,5.1,1.8,5.78,5.78,0,0,1,1.7,4,1.37,1.37,0,0,1-1.3,1.6H179a7.91,7.91,0,0,1-1.3-.5,13.05,13.05,0,0,0-1.9-.7,10.42,10.42,0,0,0-2.8-.4,93.47,93.47,0,0,0-14.5,1c-2.9,4.2-5.9,8.5-8.9,12.8s-6,8.7-8.5,12.7a123.18,123.18,0,0,0-6.3,11.4,21.62,21.62,0,0,0-2.4,8.8v1.6a7.77,7.77,0,0,1-.2,1.6,3.47,3.47,0,0,1-.8,1.6A1.6,1.6,0,0,1,129.8,447.31Z"/><path class="cls-1" d="M153.7,361.11a49.13,49.13,0,0,1,6.7.5,19.71,19.71,0,0,1,5.8,1.7,11.71,11.71,0,0,1,4.1,3.1,7.07,7.07,0,0,1,1.5,4.6,8.21,8.21,0,0,1-1,3.4,45.73,45.73,0,0,1-2.5,4.9q-1.5,2.7-3.3,5.7t-3.6,5.7c4-.3,8.3-0.4,12.9-0.4a5.86,5.86,0,0,1,4.4,1.5,4.47,4.47,0,0,1,1.4,3.3q0,0.6-.3.6h-0.1a5.09,5.09,0,0,1-1.1-.4c-0.5-.2-1.2-0.5-2.1-0.8a9.34,9.34,0,0,0-3.1-.4,101,101,0,0,0-15.1,1.1c-3,4.3-6,8.7-9.1,13.1s-6,8.7-8.5,12.8a89.87,89.87,0,0,0-6.3,11.5c-1.6,3.6-2.5,6.6-2.5,9.2v1.5a5.9,5.9,0,0,1-.2,1.4,2.38,2.38,0,0,1-.6,1.1,1.59,1.59,0,0,1-1.2.4,3.6,3.6,0,0,1-2.2-.7,6.87,6.87,0,0,1-1.9-1.9,8.55,8.55,0,0,1-1.3-2.9,13.45,13.45,0,0,1-.5-3.5,19.91,19.91,0,0,1,2.2-8.6,64.51,64.51,0,0,1,5.7-9.8q3.45-5.1,7.8-10.5t8.7-11.1a75,75,0,0,0-11.9,4.1,62.1,62.1,0,0,0-8.7,4.7,33.39,33.39,0,0,0-5.3,4.3c-1.2,1.3-1.8,2.3-1.8,3.1a1,1,0,0,1-.7,1.2h-0.3a2.08,2.08,0,0,1-1.2-.5,4.53,4.53,0,0,1-1.5-1.8,5.56,5.56,0,0,1-.7-3,7.91,7.91,0,0,1,2.5-5.5,25.16,25.16,0,0,1,7.2-5.1,57.12,57.12,0,0,1,11.4-4.2,112.92,112.92,0,0,1,15.3-2.9c1.3-1.7,2.6-3.6,3.9-5.5s2.5-3.9,3.6-5.7a35.24,35.24,0,0,0,2.6-5.1,9.71,9.71,0,0,0,1-3.8,18,18,0,0,0-.2-2.2,4.12,4.12,0,0,0-1-2.1,5.8,5.8,0,0,0-2.6-1.6,15.18,15.18,0,0,0-4.8-.6,73.05,73.05,0,0,0-18.9,2.4,96.41,96.41,0,0,0-16.9,6.1,101.91,101.91,0,0,0-14.2,8.3,87.11,87.11,0,0,0-10.9,9,46.62,46.62,0,0,0-6.9,8.1q-2.4,3.75-2.4,5.7a1,1,0,0,1-1.1,1.1H83.6a4.83,4.83,0,0,1-2.1-.6,7.91,7.91,0,0,1-2.4-2.1,5.46,5.46,0,0,1-1.1-3.3c0-1,.7-2.7,2.2-4.9a50.59,50.59,0,0,1,6.6-7.7,88.47,88.47,0,0,1,10.8-8.8,98.84,98.84,0,0,1,14.9-8.4,103.62,103.62,0,0,1,18.8-6.2,87.72,87.72,0,0,1,22.4-2.6m0-2a97.42,97.42,0,0,0-22.9,2.5,107,107,0,0,0-19.1,6.3,94.47,94.47,0,0,0-15.2,8.5,93.47,93.47,0,0,0-11.1,9,50.43,50.43,0,0,0-6.9,8c-1.8,2.7-2.6,4.6-2.6,6a7.46,7.46,0,0,0,1.5,4.6,10.83,10.83,0,0,0,3,2.7,6.13,6.13,0,0,0,3.1.9H84a3.08,3.08,0,0,0,2.9-3.1c0-.4.2-1.7,2.1-4.5a47.59,47.59,0,0,1,6.7-7.8,103,103,0,0,1,10.6-8.8,84.56,84.56,0,0,1,13.9-8.1,100.37,100.37,0,0,1,16.5-6,74.8,74.8,0,0,1,18.4-2.3,14.21,14.21,0,0,1,4.1.5,5.11,5.11,0,0,1,1.7,1,3,3,0,0,1,.6,1.1,14.05,14.05,0,0,1,.2,1.8,7.53,7.53,0,0,1-.8,3,45.73,45.73,0,0,1-2.5,4.9c-1.1,1.8-2.2,3.7-3.5,5.6a58.51,58.51,0,0,1-3.4,4.8,106.26,106.26,0,0,0-14.7,2.9A61.06,61.06,0,0,0,125,397a26.77,26.77,0,0,0-7.7,5.5,10.18,10.18,0,0,0-3,6.9,8,8,0,0,0,.9,3.9,6.66,6.66,0,0,0,2.1,2.5,4.58,4.58,0,0,0,2.4.8,1.7,1.7,0,0,0,.7-0.1,3,3,0,0,0,2.3-3.1,7.46,7.46,0,0,1,1.3-1.8,25.5,25.5,0,0,1,5-4,53.16,53.16,0,0,1,8.4-4.5,52.39,52.39,0,0,1,5.7-2.2c-1.6,2.1-3.2,4.1-4.9,6.1-2.9,3.6-5.6,7.2-7.9,10.7a77,77,0,0,0-5.8,10,21.59,21.59,0,0,0-2.3,9.4,14,14,0,0,0,.6,4.1,11.86,11.86,0,0,0,1.6,3.4,8.51,8.51,0,0,0,2.5,2.5,6.18,6.18,0,0,0,3.3,1.1,4,4,0,0,0,2.6-1,4.27,4.27,0,0,0,1.1-2.1,9,9,0,0,0,.2-1.8v-1.6a21.31,21.31,0,0,1,2.3-8.4,100.8,100.8,0,0,1,6.2-11.3c2.5-4.1,5.4-8.3,8.5-12.7,2.9-4.2,5.8-8.3,8.7-12.4a101.92,101.92,0,0,1,14-.9,8.52,8.52,0,0,1,2.5.3,8.42,8.42,0,0,1,1.8.7,11.41,11.41,0,0,0,1.5.6,4.33,4.33,0,0,0,.5.1,2.35,2.35,0,0,0,2.3-2.6,6.86,6.86,0,0,0-2-4.7,7.63,7.63,0,0,0-5.8-2.1c-3.1,0-6.2.1-9.1,0.2l1.5-2.4c1.2-2,2.4-4,3.4-5.8s1.9-3.6,2.6-5.1a10,10,0,0,0,1.1-4.2,9.15,9.15,0,0,0-2-5.9,12.66,12.66,0,0,0-4.8-3.6,23.25,23.25,0,0,0-6.3-1.9,62.47,62.47,0,0,0-7.3-.5h0Z"/><path d="M184.5,436.51a6.17,6.17,0,0,1-4.3-1.4,5.86,5.86,0,0,1-1.7-2.9,3,3,0,0,1-.2-1,19.2,19.2,0,0,1-1.4,1.5,18.72,18.72,0,0,1-3.5,2.6,9,9,0,0,1-4.5,1.3,12.31,12.31,0,0,1-3.6-.6,9.46,9.46,0,0,1-3.6-2.1,11.87,11.87,0,0,1-2.7-3.8,14.17,14.17,0,0,1-1-5.7,22,22,0,0,1,1.1-6.3,38.6,38.6,0,0,1,3-7.1,50.4,50.4,0,0,1,4.7-7,39.78,39.78,0,0,1,6.1-6.2,30.2,30.2,0,0,1,7.3-4.4,21.12,21.12,0,0,1,8.2-1.7,9.37,9.37,0,0,1,3.9.7,6.07,6.07,0,0,1,2.6,2.1,8,8,0,0,1,1.4,3.1,14.48,14.48,0,0,1,.4,3.7,13.94,13.94,0,0,1-.5,3.3c0.2,0.1.3,0.1,0.5,0.2,0.5,0.2,1,.4,1.4.6a6.35,6.35,0,0,1,1.2.7,1.61,1.61,0,0,1,.8,1.4c0,0.4-.1.6-1.5,2.5-0.8,1.1-1.8,2.5-3,4.1s-2.4,3.3-3.6,5.2a47.89,47.89,0,0,0-3,5.1,9.31,9.31,0,0,0-1.3,3.6v0.4a1.21,1.21,0,0,0,.5.1c0.3,0,1-.1,2.6-1.5a54.07,54.07,0,0,0,4.4-4.2c1.6-1.7,3.4-3.7,5.1-5.8s3.5-4.2,5-6.3,3-3.9,4.3-5.6,2.2-3,2.8-3.8a2.46,2.46,0,0,1,1.5-1h0.4a2.92,2.92,0,0,1,.9.2,1.7,1.7,0,0,1,1,1.3,1.81,1.81,0,0,1-.4,1.6c-0.9,1.2-2.1,2.9-3.6,5s-3.3,4.4-5.1,6.8-3.9,4.9-6,7.4-4.2,4.8-6.2,6.9a50.41,50.41,0,0,1-5.8,5.1A7.39,7.39,0,0,1,184.5,436.51Zm3.5-38.1a10.91,10.91,0,0,0-6.5,2.4,27.66,27.66,0,0,0-6.1,6.2,46.72,46.72,0,0,0-4.8,8.1,39.14,39.14,0,0,0-2.8,8.1,15.37,15.37,0,0,0-.3,5.9c0.4,1.6,1.2,1.8,2,1.8a5.83,5.83,0,0,0,3.4-1.3,28,28,0,0,0,4.1-3.8,59.23,59.23,0,0,0,4.2-5.2q1.95-2.55,3.6-5.1c-0.2-.3-0.4-0.5-0.6-0.8a2.53,2.53,0,0,1-.7-1.4c0-.5.2-0.8,1.2-1.9,0.6-.7,1.3-1.5,2.1-2.6a17.92,17.92,0,0,0,2.1-3.6,9.46,9.46,0,0,0,.9-4.1,4.77,4.77,0,0,0-.5-2.2A1.54,1.54,0,0,0,188,398.41Z"/><path class="cls-1" d="M188.5,392.51a8.8,8.8,0,0,1,3.5.6,5.78,5.78,0,0,1,2.3,1.8,8.45,8.45,0,0,1,1.3,2.7,12.48,12.48,0,0,1,.4,3.5,12.87,12.87,0,0,1-.8,4,10.26,10.26,0,0,1,1.4.4c0.5,0.2.9,0.4,1.4,0.6a10.92,10.92,0,0,1,1.1.6,0.72,0.72,0,0,1,.4.6,8.1,8.1,0,0,1-1.3,1.9c-0.9,1.1-1.8,2.5-3,4.1s-2.4,3.3-3.6,5.2-2.2,3.6-3.1,5.1a12.37,12.37,0,0,0-1.4,3.9,1.29,1.29,0,0,0,1.5,1.6c0.8,0,1.9-.6,3.3-1.7a43.54,43.54,0,0,0,4.5-4.3c1.7-1.8,3.4-3.7,5.1-5.8s3.5-4.2,5-6.3,3-3.9,4.3-5.7,2.2-3,2.8-3.9a1.56,1.56,0,0,1,.8-0.6h0.3a0.75,0.75,0,0,1,.5.1,1,1,0,0,1,.4.5,1.2,1.2,0,0,1-.2.8c-0.9,1.2-2.1,2.9-3.6,5s-3.2,4.4-5.1,6.8-3.9,4.9-6,7.4-4.2,4.8-6.2,6.8a48.49,48.49,0,0,1-5.7,5,8.22,8.22,0,0,1-4.5,1.9,5.34,5.34,0,0,1-3.6-1.1,6.44,6.44,0,0,1-1.5-2.5,9,9,0,0,1-.2-3.7,22,22,0,0,1-3,3.7,28.52,28.52,0,0,1-3.3,2.5,8.31,8.31,0,0,1-4,1.1,9.49,9.49,0,0,1-3.2-.6,8.77,8.77,0,0,1-3.2-1.9,9.9,9.9,0,0,1-2.4-3.5,13.64,13.64,0,0,1-.9-5.3,19.78,19.78,0,0,1,1-6,37,37,0,0,1,3-6.9,55.15,55.15,0,0,1,4.6-6.9,34.07,34.07,0,0,1,6-6,26.59,26.59,0,0,1,7-4.2,30.37,30.37,0,0,1,7.9-1.3m-19,39.4a7.13,7.13,0,0,0,4-1.5,24.92,24.92,0,0,0,4.2-3.9,61.58,61.58,0,0,0,4.3-5.3c1.4-2,2.8-3.9,4.1-5.7a11.32,11.32,0,0,1-1-1.3,2.8,2.8,0,0,1-.5-0.8,4.33,4.33,0,0,1,1-1.2c0.6-.7,1.4-1.6,2.2-2.7a27.15,27.15,0,0,0,2.2-3.8,9.88,9.88,0,0,0,1-4.5,4.53,4.53,0,0,0-.7-2.7,2.46,2.46,0,0,0-2.2-1,12,12,0,0,0-7.1,2.6,29.48,29.48,0,0,0-6.3,6.4,45.34,45.34,0,0,0-4.9,8.3,41.33,41.33,0,0,0-2.9,8.3,14.28,14.28,0,0,0-.3,6.4,2.82,2.82,0,0,0,2.9,2.4m19-41.4a22.74,22.74,0,0,0-8.6,1.7,28.76,28.76,0,0,0-7.5,4.5,41.7,41.7,0,0,0-6.3,6.3,45.08,45.08,0,0,0-4.8,7.2,40.1,40.1,0,0,0-3.1,7.2,21.14,21.14,0,0,0-1.1,6.6,15.83,15.83,0,0,0,1.1,6.1,11.67,11.67,0,0,0,2.9,4.2,12,12,0,0,0,7.8,3,10.22,10.22,0,0,0,5-1.4,17.15,17.15,0,0,0,3.7-2.8l0.2-.2a10.57,10.57,0,0,0,1.7,2.6,6.86,6.86,0,0,0,5,1.7,10.25,10.25,0,0,0,5.7-2.3,52.37,52.37,0,0,0,5.9-5.2c2-2,4.1-4.4,6.3-6.9s4.2-5,6-7.5,3.6-4.7,5.1-6.8,2.7-3.8,3.6-5h0a3,3,0,0,0,.5-2.3,2.82,2.82,0,0,0-1.5-2,3.08,3.08,0,0,0-1.3-.3h-0.6a3.27,3.27,0,0,0-2.2,1.4c-0.6.9-1.6,2.2-2.8,3.8s-2.7,3.6-4.3,5.6-3.2,4.1-5,6.2a73.11,73.11,0,0,1-5.1,5.7,54.08,54.08,0,0,1-4.4,4.2,15.75,15.75,0,0,1-1.3,1,17.77,17.77,0,0,1,1-2.3c0.8-1.5,1.8-3.2,3-5s2.4-3.6,3.5-5.1,2.2-3,3-4.1c1.4-1.9,1.7-2.4,1.7-3.1a2.73,2.73,0,0,0-1.2-2.2,4.68,4.68,0,0,0-1.4-.8,4.33,4.33,0,0,0-1.2-.5,12.41,12.41,0,0,0,.3-2.7,16,16,0,0,0-.5-3.9,10.19,10.19,0,0,0-1.6-3.5,8.86,8.86,0,0,0-3-2.4,11.81,11.81,0,0,0-4.2-.7h0Zm-19,39.4c-0.5,0-.8,0-1-1a13.41,13.41,0,0,1,.3-5.5,37.74,37.74,0,0,1,2.8-7.9,44.53,44.53,0,0,1,4.7-7.9,28,28,0,0,1,5.9-6,9.63,9.63,0,0,1,5.9-2.2,0.77,0.77,0,0,1,.5.1,3.41,3.41,0,0,1,.4,1.6,8.63,8.63,0,0,1-.8,3.6,23,23,0,0,1-2,3.5,19.77,19.77,0,0,1-2,2.5c-1,1.1-1.5,1.7-1.5,2.6a4.22,4.22,0,0,0,.8,2l0.2,0.2c-1,1.4-2.1,2.9-3.2,4.5-1.4,1.9-2.8,3.6-4.1,5.1a25.12,25.12,0,0,1-3.9,3.6,5.83,5.83,0,0,1-3,1.2h0Z"/><path d="M214.7,436.51a6.58,6.58,0,0,1-4.2-1.3,6.9,6.9,0,0,1-2-2.8,11.42,11.42,0,0,1-.6-3.9,16.66,16.66,0,0,1,1.3-6.9,47.25,47.25,0,0,1,2.8-5.5c1-1.6,1.9-3.3,2.7-4.8a10.39,10.39,0,0,0,1.1-4.6,1.69,1.69,0,0,0-.3-1,8.7,8.7,0,0,0-1.4-1.2c-0.6-.4-1.3-0.9-2-1.3a9.68,9.68,0,0,1-2.2-1.9,8.75,8.75,0,0,1-1.7-2.8,10.24,10.24,0,0,1-.7-4.2,11.7,11.7,0,0,1,1.1-4.9,12.14,12.14,0,0,1,2.8-3.9,12.68,12.68,0,0,1,3.9-2.6,12,12,0,0,1,4.5-.9,3.23,3.23,0,0,1,2.2.7,2.28,2.28,0,0,1,1.1,1.9,4,4,0,0,1-1,2.5c-0.5.7-1.1,1.5-1.8,2.3a14.84,14.84,0,0,0-1.7,2.8,7.39,7.39,0,0,0-.7,3.4,8.72,8.72,0,0,0,.5,3.1,5.33,5.33,0,0,0,1.3,1.9,7.07,7.07,0,0,0,1.8,1.2c0.8,0.4,1.5.8,2.2,1.2a7.28,7.28,0,0,1,1.8,1.7,4.88,4.88,0,0,1,.8,2.8,7.93,7.93,0,0,1-1.1,3.7c-0.6,1.4-1.4,2.9-2.3,4.6s-1.8,3.3-2.7,5a28.41,28.41,0,0,0-2,4.5,7,7,0,0,0-.5,2.9c0,0.2.1,0.4,1,.4,0.3,0,1-.1,2.6-1.5a54.07,54.07,0,0,0,4.4-4.2c1.6-1.7,3.4-3.7,5.1-5.8s3.5-4.2,5-6.3,3-3.9,4.3-5.6,2.3-3,2.9-3.9a2,2,0,0,1,1.4-.9h0.4a2.92,2.92,0,0,1,.9.2,1.76,1.76,0,0,1,1,1.2,2,2,0,0,1-.3,1.6c-0.9,1.2-2.1,2.9-3.5,5s-3.2,4.4-5,6.8-3.8,4.9-5.9,7.4-4.2,4.9-6.2,6.9a43.65,43.65,0,0,1-5.9,5.1A10.08,10.08,0,0,1,214.7,436.51Z"/><path class="cls-1" d="M219.7,382.81a3.1,3.1,0,0,1,1.7.5,1.37,1.37,0,0,1,.6,1,3.4,3.4,0,0,1-.8,1.9c-0.5.7-1.1,1.5-1.8,2.3a26.38,26.38,0,0,0-1.8,3,9.21,9.21,0,0,0-.8,3.8,8.8,8.8,0,0,0,.6,3.5,6.1,6.1,0,0,0,1.5,2.2,7.71,7.71,0,0,0,2.1,1.4,22.48,22.48,0,0,1,2.1,1.2,6.73,6.73,0,0,1,1.5,1.4,3.8,3.8,0,0,1,.6,2.2,7.86,7.86,0,0,1-1,3.3,48.27,48.27,0,0,1-2.3,4.5c-0.9,1.6-1.8,3.3-2.7,5a35.52,35.52,0,0,0-2.1,4.6,7.67,7.67,0,0,0-.6,3.3c0.1,0.9.8,1.3,2,1.3,0.8,0,1.9-.6,3.3-1.7a43.54,43.54,0,0,0,4.5-4.3c1.7-1.8,3.4-3.7,5.1-5.8s3.5-4.2,5-6.3,3-3.9,4.3-5.7,2.2-3,2.9-3.9a1.56,1.56,0,0,1,.8-0.6h0.3a0.9,0.9,0,0,1,.5.1,0.66,0.66,0,0,1,.4.5,0.83,0.83,0,0,1-.2.8c-0.9,1.2-2,2.9-3.5,5s-3.1,4.4-5,6.8-3.8,4.9-5.8,7.4-4.1,4.8-6.1,6.8a42,42,0,0,1-5.8,5,8.45,8.45,0,0,1-4.8,1.9,5.23,5.23,0,0,1-3.5-1.1,5.6,5.6,0,0,1-1.7-2.4,9.51,9.51,0,0,1-.6-3.5,17.62,17.62,0,0,1,1.2-6.6,45.32,45.32,0,0,1,2.7-5.4c1-1.7,1.9-3.3,2.7-4.9a11.15,11.15,0,0,0,1.2-5,2.52,2.52,0,0,0-.6-1.7,10,10,0,0,0-1.5-1.3c-0.6-.4-1.3-0.9-2-1.3a10.61,10.61,0,0,1-2-1.7,8.09,8.09,0,0,1-1.5-2.6,10.44,10.44,0,0,1-.6-3.8,9.88,9.88,0,0,1,1-4.5,10.4,10.4,0,0,1,2.6-3.6,14.14,14.14,0,0,1,3.6-2.4,22.22,22.22,0,0,1,4.3-.6m0-2a11.94,11.94,0,0,0-4.9,1,13.43,13.43,0,0,0-4.2,2.8,16,16,0,0,0-3,4.2,12.09,12.09,0,0,0-1.2,5.3,10.82,10.82,0,0,0,.8,4.6,9.55,9.55,0,0,0,1.9,3.1,12.06,12.06,0,0,0,2.4,2.1c0.7,0.4,1.3.9,1.9,1.3s0.9,0.7,1.2,1a0.44,0.44,0,0,1,.1.3,8.3,8.3,0,0,1-1,4.1c-0.8,1.6-1.7,3.2-2.6,4.8a41.78,41.78,0,0,0-2.8,5.6,19,19,0,0,0-1.4,7.3,10.88,10.88,0,0,0,.7,4.2,8.39,8.39,0,0,0,2.2,3.1,6.8,6.8,0,0,0,4.8,1.6,11.06,11.06,0,0,0,6-2.3,52.7,52.7,0,0,0,6-5.2,88.36,88.36,0,0,0,6.3-7c2.1-2.5,4-5,5.9-7.5s3.5-4.7,5-6.9,2.7-3.8,3.5-5h0a2.8,2.8,0,0,0,.4-2.5,2.73,2.73,0,0,0-1.5-1.8,3.08,3.08,0,0,0-1.3-.3,1.27,1.27,0,0,0-.6.1,3.29,3.29,0,0,0-2.1,1.3c-0.7.9-1.6,2.1-2.9,3.9s-2.7,3.6-4.3,5.6-3.2,4.1-5,6.2a73.11,73.11,0,0,1-5.1,5.7,54.08,54.08,0,0,1-4.4,4.2,4,4,0,0,1-2,1.2h0a5.54,5.54,0,0,1,.5-2,31.63,31.63,0,0,1,2-4.3c0.9-1.7,1.8-3.4,2.7-4.9,0.9-1.7,1.7-3.2,2.4-4.6a10,10,0,0,0,1.2-4.2,5.48,5.48,0,0,0-1-3.4,6.48,6.48,0,0,0-2.1-1.9,17.1,17.1,0,0,0-2.3-1.3,5.71,5.71,0,0,1-1.6-1.1,5,5,0,0,1-1.1-1.6,7,7,0,0,1-.4-2.7,7.31,7.31,0,0,1,.6-3,12.83,12.83,0,0,1,1.6-2.6,23.06,23.06,0,0,1,1.8-2.3,5.06,5.06,0,0,0,1.2-3.1,3.38,3.38,0,0,0-1.5-2.7,17,17,0,0,0-2.8-.4h0Z"/><path d="M278.4,436.51a6.78,6.78,0,0,1-4-1,5.92,5.92,0,0,1-2-2.2,8.47,8.47,0,0,1-.9-3.2,19,19,0,0,1,1.8-8,46.56,46.56,0,0,1,4.1-7.6c1.6-2.4,3.2-4.8,4.9-6.9s3.1-3.9,4.2-5.5a11,11,0,0,0,1.9-3.4h0a3.54,3.54,0,0,0-.6-0.1c-0.5,0-1.4.2-3,1.4a33.09,33.09,0,0,0-4.6,4.2c-1.7,1.7-3.5,3.8-5.3,6s-3.7,4.6-5.6,7-3.6,4.7-5.4,7-3.3,4.3-4.7,6.1-2.6,3.2-3.6,4.3c-1.3,1.4-2.1,1.9-2.8,1.9a5.87,5.87,0,0,1-2.3-.4,6.93,6.93,0,0,1-1.7-1,6.79,6.79,0,0,1-1.2-1.2,2,2,0,0,1-.5-1.3,10.53,10.53,0,0,1,1.1-4,45.69,45.69,0,0,1,2.8-5.1c1.1-1.8,2.4-3.8,3.7-5.8s2.7-4,4-6,2.5-3.8,3.7-5.6a38.8,38.8,0,0,0,2.6-4.6,8.18,8.18,0,0,0,.9-2.9v-0.1h-0.3c-0.5,0-1.4.2-3,1.4a33.09,33.09,0,0,0-4.6,4.2c-1.7,1.7-3.4,3.8-5.3,6s-3.7,4.6-5.5,7-3.6,4.7-5.3,7-3.3,4.3-4.7,6.1-2.6,3.2-3.6,4.3c-1.3,1.4-2,2-2.8,2a5.87,5.87,0,0,1-2.3-.4,6.93,6.93,0,0,1-1.7-1,6.79,6.79,0,0,1-1.2-1.2,2,2,0,0,1-.5-1.3c0-.3,0-0.5,1.6-3,0.9-1.5,2.1-3.4,3.5-5.7s3-4.9,4.6-7.8,3.2-5.7,4.7-8.6,2.7-5.6,3.7-8.2a21.61,21.61,0,0,0,1.7-6.5c0-.5.3-1.2,1.9-1.4h0.6a5.22,5.22,0,0,1,2.1.4,7.64,7.64,0,0,1,2.6,1.5,4.29,4.29,0,0,1,1.4,3.4,12.76,12.76,0,0,1-1,4.6c-0.6,1.5-1.2,3-1.8,4.4,1.2-1.4,2.5-2.8,3.9-4.3,1.6-1.7,3.2-3.2,4.9-4.7a29.88,29.88,0,0,1,5.3-3.7,11.63,11.63,0,0,1,5.4-1.5,4.91,4.91,0,0,1,4.3,1.9,7.8,7.8,0,0,1,1.3,4.8,11.43,11.43,0,0,1-1.1,4.1l-0.9,1.8c0.8-.9,1.7-1.8,2.6-2.8,1.6-1.7,3.3-3.2,5-4.7a29.88,29.88,0,0,1,5.3-3.7,11.63,11.63,0,0,1,5.4-1.5,4.91,4.91,0,0,1,4.3,1.9,7.8,7.8,0,0,1,1.3,4.8,14.52,14.52,0,0,1-1.8,6.4,56.71,56.71,0,0,1-4.1,6.9c-1.6,2.3-3.2,4.6-4.9,6.8s-3,4.1-4.1,5.8a12.42,12.42,0,0,0-1.8,3.8v0.3a1.54,1.54,0,0,0,.8.2c0.3,0,1-.1,2.6-1.5a54.07,54.07,0,0,0,4.4-4.2c1.6-1.7,3.4-3.7,5.1-5.8s3.5-4.2,5-6.3,3-3.9,4.3-5.6,2.2-3,2.8-3.8a2.46,2.46,0,0,1,1.5-1h0.4a2.92,2.92,0,0,1,.9.2,1.7,1.7,0,0,1,1,1.3,1.81,1.81,0,0,1-.4,1.6c-0.9,1.2-2.1,2.9-3.6,5s-3.3,4.4-5.1,6.8-3.9,4.9-6,7.4-4.2,4.8-6.2,6.9a62.31,62.31,0,0,1-5.8,5.1A5.9,5.9,0,0,1,278.4,436.51Z"/><path class="cls-1" d="M247.8,392.51a5.66,5.66,0,0,1,1.8.3,7.55,7.55,0,0,1,2.3,1.3,3.25,3.25,0,0,1,1,2.6,11.4,11.4,0,0,1-1,4.3,42.48,42.48,0,0,1-2.1,4.9c-0.7,1.6-1.4,2.9-2,4.1s-0.8,1.7-.6,1.7a9.83,9.83,0,0,0,1.3-1.4q1.2-1.35,3-3.6c1.2-1.4,2.6-3,4.1-4.6a53.31,53.31,0,0,1,4.9-4.6,39.78,39.78,0,0,1,5.1-3.6,10.79,10.79,0,0,1,4.9-1.4A4.13,4.13,0,0,1,274,394a7.23,7.23,0,0,1,1.1,4.2,8.94,8.94,0,0,1-1,3.6c-0.7,1.5-1.5,3-2.3,4.4s-1.5,2.7-2.2,3.7-0.9,1.6-.7,1.6a9.83,9.83,0,0,0,1.3-1.4q1.2-1.35,3-3.6c1.2-1.4,2.6-3,4.2-4.6s3.2-3.2,4.9-4.6a39.78,39.78,0,0,1,5.1-3.6,10.79,10.79,0,0,1,4.9-1.4,4.13,4.13,0,0,1,3.5,1.5,7.23,7.23,0,0,1,1.1,4.2,13.73,13.73,0,0,1-1.7,5.9,54.57,54.57,0,0,1-4,6.8c-1.6,2.3-3.2,4.6-4.8,6.8s-3,4.2-4.1,5.9a12.77,12.77,0,0,0-1.9,4.1c-0.2,1.1.4,1.6,1.8,1.6,0.8,0,1.9-.6,3.3-1.7a43.54,43.54,0,0,0,4.5-4.3c1.7-1.8,3.4-3.7,5.1-5.8s3.5-4.2,5-6.3,3-3.9,4.3-5.7,2.2-3,2.8-3.9a1.56,1.56,0,0,1,.8-0.6h0.3a0.75,0.75,0,0,1,.5.1,1,1,0,0,1,.4.5,1.2,1.2,0,0,1-.2.8c-0.9,1.2-2.1,2.9-3.6,5s-3.2,4.4-5.1,6.8-3.9,4.9-5.9,7.4a83.78,83.78,0,0,1-6.2,6.8,58.14,58.14,0,0,1-5.7,5,8.22,8.22,0,0,1-4.5,1.9,6.32,6.32,0,0,1-3.4-.8,7,7,0,0,1-1.7-1.8,6,6,0,0,1-.7-2.7,19.4,19.4,0,0,1,1.7-7.6,54,54,0,0,1,4-7.5c1.6-2.4,3.2-4.7,4.9-6.8s3.1-4,4.2-5.5a14.78,14.78,0,0,0,2.1-3.7c0.2-.9-0.3-1.4-1.6-1.4a6.16,6.16,0,0,0-3.6,1.6,42.86,42.86,0,0,0-4.7,4.3c-1.7,1.8-3.5,3.8-5.4,6.1s-3.7,4.6-5.6,7-3.6,4.7-5.4,7-3.3,4.3-4.7,6.1-2.6,3.2-3.6,4.3-1.7,1.6-2.1,1.6a4.06,4.06,0,0,1-1.9-.4,3.77,3.77,0,0,1-1.5-.9,4.71,4.71,0,0,1-1-1,1.33,1.33,0,0,1-.3-0.7,8.94,8.94,0,0,1,1-3.6c0.7-1.5,1.6-3.1,2.7-5s2.3-3.7,3.7-5.8,2.7-4,4-6,2.6-3.8,3.7-5.6a30.32,30.32,0,0,0,2.7-4.7,9.33,9.33,0,0,0,1-3.2,1.09,1.09,0,0,0-1.3-1.2,6.16,6.16,0,0,0-3.6,1.6,42.86,42.86,0,0,0-4.7,4.3c-1.7,1.8-3.5,3.8-5.3,6.1s-3.7,4.6-5.5,7-3.6,4.7-5.3,7-3.3,4.3-4.7,6.1-2.6,3.2-3.5,4.3-1.6,1.6-2,1.6a4.06,4.06,0,0,1-1.9-.4,3.77,3.77,0,0,1-1.5-.9,4.71,4.71,0,0,1-1-1,1.33,1.33,0,0,1-.3-0.7,17.26,17.26,0,0,1,1.4-2.4c0.9-1.5,2.1-3.4,3.5-5.7s3-4.9,4.6-7.8,3.3-5.8,4.7-8.6,2.7-5.6,3.8-8.3a20.88,20.88,0,0,0,1.8-6.8c0-.2.3-0.4,1-0.5a2.52,2.52,0,0,0,1.1.4m0-2h-0.7c-2.4.3-2.8,1.6-2.8,2.3a19.58,19.58,0,0,1-1.7,6.1c-1,2.6-2.3,5.3-3.7,8.1s-3,5.7-4.7,8.5-3.2,5.5-4.6,7.7-2.6,4.2-3.5,5.7c-1.6,2.5-1.7,2.9-1.7,3.5a3.26,3.26,0,0,0,.7,1.8,6.16,6.16,0,0,0,1.4,1.4,9.46,9.46,0,0,0,2,1.1,7.51,7.51,0,0,0,2.6.5c1.2,0,2.3-.9,3.5-2.3,1-1.1,2.2-2.6,3.6-4.4s3-3.8,4.7-6.1,3.5-4.6,5.3-7,3.6-4.7,5.5-6.9,3.6-4.3,5.2-6a39,39,0,0,1,4.4-4.1,15.14,15.14,0,0,1,1.4-.9c-0.1.3-.3,0.7-0.5,1.2a38.43,38.43,0,0,1-2.6,4.5c-1.1,1.7-2.4,3.6-3.7,5.6s-2.7,4-4,6-2.6,4-3.8,5.8a55.22,55.22,0,0,0-2.8,5.2,11.22,11.22,0,0,0-1.2,4.4,3.26,3.26,0,0,0,.7,1.8,6.16,6.16,0,0,0,1.4,1.4,9.46,9.46,0,0,0,2,1.1,7.51,7.51,0,0,0,2.6.5c1.1,0,2-.6,3.5-2.3,1-1.1,2.2-2.6,3.7-4.4s3-3.8,4.7-6.1,3.5-4.6,5.3-7,3.7-4.7,5.5-6.9,3.6-4.2,5.3-6a32.16,32.16,0,0,1,4.5-4.1,15.14,15.14,0,0,1,1.4-.9c-0.3.4-.6,1-1.1,1.6-1.1,1.6-2.5,3.4-4.1,5.5s-3.4,4.5-5,7a58.61,58.61,0,0,0-4.2,7.8,21.33,21.33,0,0,0-1.9,8.4h0a8.79,8.79,0,0,0,1,3.6h0a7.72,7.72,0,0,0,2.3,2.5,7.51,7.51,0,0,0,4.5,1.2,10.27,10.27,0,0,0,5.6-2.3,52.37,52.37,0,0,0,5.9-5.2q3.15-3.15,6.3-6.9t6-7.5c1.9-2.4,3.6-4.7,5.1-6.8s2.7-3.8,3.6-5h0a3,3,0,0,0,.5-2.3,2.82,2.82,0,0,0-1.5-2,3.08,3.08,0,0,0-1.3-.3h-0.6a3.27,3.27,0,0,0-2.2,1.4c-0.6.9-1.6,2.2-2.8,3.8s-2.7,3.6-4.3,5.6-3.2,4.1-5,6.2a73.11,73.11,0,0,1-5.1,5.7,54.08,54.08,0,0,1-4.4,4.2c-0.8.6-1.3,0.9-1.6,1.1a12.07,12.07,0,0,1,1.3-2.5c1.1-1.7,2.4-3.6,4.1-5.8s3.3-4.5,4.9-6.8a57.61,57.61,0,0,0,4.1-7,16.35,16.35,0,0,0,1.9-6.8,8.87,8.87,0,0,0-1.5-5.4,5.89,5.89,0,0,0-5.1-2.3,13,13,0,0,0-5.8,1.6,36.25,36.25,0,0,0-5.5,3.8,48.57,48.57,0,0,0-4.1,3.8,7.84,7.84,0,0,0,.2-1.4,8.67,8.67,0,0,0-1.5-5.4,5.89,5.89,0,0,0-5.1-2.3,13,13,0,0,0-5.8,1.6,36.25,36.25,0,0,0-5.5,3.8,56.68,56.68,0,0,0-5,4.8l-0.1.1a14,14,0,0,0,.8-4.1,4.94,4.94,0,0,0-1.7-4.1,9,9,0,0,0-3-1.7,16,16,0,0,1-2.2,0h0Z"/></svg>
