<svg id="Layer_1" data-name="Layer 1" xmlns="http://www.w3.org/2000/svg" viewBox="0 0 267.27 414.8"><title>Talking Tree</title><path d="M182.6,95.61c2.8,2.4,4.7,1.7,6.7,4.3a39.39,39.39,0,0,1,5.5,10.1c1.6,4.4,2.2,15-4.9,16.2-4.3.7-9.3-6.2-11.2-10-1.8-3.4-1.7-6.7-.5-10.6,1.3-3.6,4.2-5.4,4.4-10C183.1,96,182.6,96.51,182.6,95.61Z" transform="translate(-70.5 -95.61)"/><path d="M247.4,126.31c-4.5,0-5.8,2.8-9.6-1.4-1.8-2-1.9-3-2.4-5.5a17.93,17.93,0,0,1,4.8-16.3c3.4-3.5,5.1-6,8.2-1,1.2,2.1,1.9,4.5,3,6.2,0.5,0.8,1.2,1.6,1.6,2.4,0.7,2,.4,5.5,0,7.2a8.57,8.57,0,0,1-1.2,3.4c-2.2,2.1-4.4.4-4.4,5C246.9,126.31,247.4,124.11,247.4,126.31Z" transform="translate(-70.5 -95.61)"/><path d="M215.7,110.71c0,1.3,2.3,3.4,3,4.7a17.74,17.74,0,0,1,2.7,11.9c-0.3,3.6-1.5,5-2.5,7.6-0.8,1.9-.6,2.5-2.7,3.9-2.5,1.7-4.3,5.1-7,2.9-1.2-1-.8-1.8-1.7-2.9-1.3-1.8-3.2-1.8-4-4.3-0.6-1.9-.4-3.1-0.1-5.5s1-3.3,1.4-4.8c0.9-3.4,2.2-4.6,4.3-7.4,1.8-2.4,3.7-5.7,6.6-6.1C215.7,110.81,214.7,110.81,215.7,110.71Z" transform="translate(-70.5 -95.61)"/><path d="M301.9,111.91c2,0,3.9,12.4,3.9,14.2a13.85,13.85,0,0,1-2,7.6c-0.2.4-1.6,3.3-1.7,3.4-0.3,0-.7-0.1-1-0.1-1.3-.2-2.2.5-2.6,2-0.5.3-.5-0.2-1,0a11.55,11.55,0,0,1-3.4,1.2,8.81,8.81,0,0,1-8.6-1.9c-2.5-2.5-5.4-5.2-4.6-9.1a14.83,14.83,0,0,1,4.8-8.6c3.2-3,5.6-3.8,9.1-5,1.6-.6,6.5-1.4,7.1-3.7C302.1,111.91,301.7,112.51,301.9,111.91Z" transform="translate(-70.5 -95.61)"/><path d="M147.8,117.21c4.2,1.1,11.5,7.4,13,11.3a33.68,33.68,0,0,1,1.4,7.7c0.2,1.3.7,3.6,0.1,5.1-0.1.2-5.3,4.6-3.5,5.2-2.8,0-2.2.8-4.6-.2a17.54,17.54,0,0,1-7.3-6.7c-2.4-3.6-3.5-9.8-2.4-13.9,0.8-2.8,3.3-5.3,3.3-8.5C148.5,117.31,147.8,117.31,147.8,117.21Z" transform="translate(-70.5 -95.61)"/><path d="M265.7,123.61c2.8,0,5.2,5.1,5.8,6.7a16.57,16.57,0,0,1,.8,9.4,18.57,18.57,0,0,1-3.5,7.2,23.28,23.28,0,0,1-2.6,2.8c-2,1.4-1.4-.1-3.8,1.3-1.3.7-.9,2.3-2.9,2.9-7.8,2-6.8-14.9-5.6-18.2a18.71,18.71,0,0,1,4.4-7.4,10.07,10.07,0,0,1,2.8-2.6c1.4-.8,3.4-0.3,4.6-2.1C265.9,123.61,265.5,123.91,265.7,123.61Z" transform="translate(-70.5 -95.61)"/><path d="M107.3,128c3.6,1.2,6.2,2.2,10.3,3.4a23.54,23.54,0,0,1,6.7,3.4c4,2.8,6.1,8.9,6.2,13.9,0.1,2,.2,8.6-2.9,8.9-1.8.2-4-2.9-5-3.6a29.6,29.6,0,0,0-5-2.6c-9.4-4.3-9.8-14.7-10.3-23.4C107.5,128,107.3,129.21,107.3,128Z" transform="translate(-70.5 -95.61)"/><path d="M174.2,134.71c2.4,0,1.9-3.1,3.8-3.1s3.1,4.5,3.6,5.3c2.2,3.6,4.8,6.6,4.8,11.3a23.37,23.37,0,0,1-.8,7.4c-1.7,4.7-6.6,7.7-11,5.2-4.2-2.4-5.3-7.9-5.5-12.2a12.57,12.57,0,0,1,1.5-6.9c1.4-2,3.4-4.3,3.6-7C174.6,134.71,174.1,135.51,174.2,134.71Z" transform="translate(-70.5 -95.61)"/><path d="M235.7,134.21c0,1.7,5.9,5.4,7,7.9a14,14,0,0,1,1,6.5c-0.3,4-1.7,4.4-3.4,7.7-1.5,3.1-2.5,5.5-6.7,7.1a7.55,7.55,0,0,1-3.9.5c-0.3-.1-2.4.2-2.8-0.2a39.27,39.27,0,0,0-1-4.4,25.27,25.27,0,0,1-.7-14.3,21.6,21.6,0,0,1,2.6-6.5c0.9-1.4,5-4.1,5-5.5,0.8,0,1.4,1.2,2.9,1.2C235.7,134.41,234.4,134.21,235.7,134.21Z" transform="translate(-70.5 -95.61)"/><path d="M311.7,165.41c-1.1,0-2.7,2.6-3.6,3.1-1.1.7-5.5,1.7-4.3,3.6,1.1,0-4.1-.8-3.6-1,0,0.7-.2-0.4-0.2,1-2.1,0-6.2-2.5-6.6-5-0.3-1.8,1.4-1.7,1.6-3.1,0.3-1.8-.7-2.5-0.7-3.8,0.1-5.1,4.3-7.1,8.6-9.6,2.3-1.3,7.1-5.3,9.8-3.8,1,0.5,2.2,3.8,2.4,4.6a14.82,14.82,0,0,1,0,9.1c-0.7,1.7-2.9,3.2-3.4,4.9C311.6,165.41,311.9,164.71,311.7,165.41Z" transform="translate(-70.5 -95.61)"/><path d="M282.9,177.21c-1.6.3-2.2,1.9-3.4,2.4a21.94,21.94,0,0,1-4.2.4c-0.6,0-2.5-.2-3.7-0.1-0.2-6.4-3.8-10.3-1.3-17a22.88,22.88,0,0,1,3-5,42.34,42.34,0,0,1,3.2-4.2c0.8-1,3.9-5.4,4.7-5.4,1.4,0,4.3,5.6,4.8,6.5a21.94,21.94,0,0,1,2.2,6,15.81,15.81,0,0,1,0,6.5c-0.6,3.6-4.1,6.4-5.3,9.9C281.7,177.41,283,176.91,282.9,177.21Z" transform="translate(-70.5 -95.61)"/><path d="M207.8,153.41c0,2.9,6.5,6.3,7.7,8.9,0.9,2,.7,6.4.1,8.6-0.9,3.2-3.6,9.8-7.6,11-2.1.6-5.7-.8-7.5-1.7-9.2-5-1.9-29.9,7.3-26.8C207.8,153.61,207.6,153.31,207.8,153.41Z" transform="translate(-70.5 -95.61)"/><path d="M90.9,160.81c1.4,4.6,5.9,10.9,1,13a12,12,0,0,1-10.3-.5,19.51,19.51,0,0,1-8.2-7.1c-1.4-2.2-1.1-4.6-1.3-7.3a21.42,21.42,0,0,0-1.6-5.3c4.6-.2,8.2,0,12,1.4a17.47,17.47,0,0,1,4.3,2.2c1,0.7,3,3.3,4.1,3.6C91.3,162.11,90,160.61,90.9,160.81Z" transform="translate(-70.5 -95.61)"/><path d="M137.3,156.31c6.2-1.2,12.7-1.2,17.5,4.6,2.1,2.5,10.5,11.5,8.4,15.1-1.4,2.6-7.6,1.6-9.6,1.4a15,15,0,0,1-7-2.4c-3.3-2.3-5.1-5.1-6.7-8.6a9.29,9.29,0,0,1-1-3.8c-0.2-2.7-1-3.9-1.6-6.3C137.8,156.21,137.5,157,137.3,156.31Z" transform="translate(-70.5 -95.61)"/><path d="M123.8,181c-7.5,1.7-11.8.1-16.8-5.9-1.8-2.1-4.9-6.1-5.2-8.2-0.5-3.5.1-6.8-1-10.1a39.24,39.24,0,0,1,4.3,1c1.2,0.1,2.3-.3,3.8-0.2,1.7,0.1,6.1,1.9,7.7,2.9,3.8,2.4,7.2,8,8.4,11.5,0.2,0.7.8,1.8,1,2.6,0.6,3.4-1.7,3.5-2.2,6.4C122.8,181.21,124,180.21,123.8,181Z" transform="translate(-70.5 -95.61)"/><path d="M253.4,159.91c0.9,0,3.5,3.6,4.3,4.8a13.22,13.22,0,0,1,2.4,8.4,6.38,6.38,0,0,0-1,1.4c-0.2.9-.6,1.4-0.9,2.4a15.77,15.77,0,0,1-2.6,5.8c-4,5.3-14.8,8.5-17.5,2.4-2.3-5.1-.4-9.2,1.9-13.2a18.67,18.67,0,0,1,5.5-6.5c1.3-.9,2-1.5,3.1-2.2,0.7-.4,1.4-0.1,2.2-0.5s2.6-1.6,2.6-2.8C253.6,159.91,253.4,160.11,253.4,159.91Z" transform="translate(-70.5 -95.61)"/><path d="M305.5,171.61c-0.7,0-.2-0.7,0,0C305.3,171.61,305.4,171.21,305.5,171.61Z" transform="translate(-70.5 -95.61)"/><path d="M174,175.71c6.4,4.6,10.9,11,12.2,17.8,1,5.1,2.6,12.7-3.3,14.8s-9.4-.2-11.5-5.4c-1.4-3.3-4-6.4-5-10.1,0.4,0.2,2.7-8.5,3.6-10.1,1.2-2.4,3.3-4.2,4-7C174.5,176.11,173.9,176,174,175.71Z" transform="translate(-70.5 -95.61)"/><path d="M295.7,176.71c4.7,0,7.1,7.6,7.2,10.8a24.64,24.64,0,0,1-.2,4.6,17.3,17.3,0,0,1-1.2,2.6c-0.5,1.8-.4,4-1.7,6,2.4-3.7-4.4,5.5-1.4,1.7-0.1.2-.8,0.7-1,1a16.07,16.07,0,0,1-2.4,2.9,9.85,9.85,0,0,1-5.3,1.2c-2.6,0-3.1-.9-4-2.4-1.2-1.9-2.6-7.1-1.8-9.6a57,57,0,0,1,2.3-5.5,50.8,50.8,0,0,1,3.5-7c1.5-2.5,5-2.8,6-6.3C296,176.71,295.5,177.41,295.7,176.71Z" transform="translate(-70.5 -95.61)"/><path d="M319.7,203.81s-3.4-1.9-3.8-2.2c-1-.5-2-1.1-3.1-1.6-1.3-.5-3-1-3.8-2.5,3.8-.8,3.1-4.7,3.1-6.7,1.1,0,.9.4,1.4-0.7s-0.8.2,0.7-2.2a27,27,0,0,1,2.8-3.1c2.2-2.4,4.4-5.1,7-6.8s12.8-2.6,13.6,1.8c0.2,1.2-1.9,6.9-2.4,8.2a34.89,34.89,0,0,1-2.9,5.8,19.44,19.44,0,0,1-6,5.4c-2,1-6,2.2-6.6,4.6C319.5,203.81,319.7,203.51,319.7,203.81Z" transform="translate(-70.5 -95.61)"/><path d="M228.9,181.51c-0.2,3.9.7,7.2-.8,11.3-1.5,3.9-5.2,8.5-8.5,11.8a9.29,9.29,0,0,1-3.1,2.2c-1.4.4-3.4,0-4.6,0.2-0.5.1-1.3,0.9-1.7,1-2.1.2-5.1-.8-6-2.3s1.4-6-1.7-6.1c0-.3.9-1.7,1-1.2,0.1,1.2.8-2.3,0.5-1.8,0.5-1.1.8-2.8,1.4-4,1.5-2.9,4.4-5.6,7.3-7.7a24.09,24.09,0,0,1,7.2-3.9c1.4-.4,3.1-1.4,5.2-1.1,1.5,0.3,2.5,1.4,3.8,1.6C228.9,182.11,227.4,181.31,228.9,181.51Z" transform="translate(-70.5 -95.61)"/><path d="M274.8,180.51c0.4,0.4,0,.9,0,0C275.1,180.81,274.8,180.71,274.8,180.51Z" transform="translate(-70.5 -95.61)"/><path d="M128.1,182.91c3.7,0,9.5,0,13.5,1.9a23.1,23.1,0,0,1,5,3.4c2.4,2.1,2.3,3.9,3.6,6.5s2.4,4.6.7,7.7c-1.2,2.3-4.1,5.3-6.5,5.9-5.9,1.5-11.5-5.5-13.2-9.7-1.1-2.7-.9-5.3-1-7.7,0-2.1-2.5-6.5-2.1-8C128.6,182.91,127.8,184.11,128.1,182.91Z" transform="translate(-70.5 -95.61)"/><path d="M258.7,184.81c7,1.7,7.8,10.4,5.8,14.8-1.4,3-6.4,9.1-9.1,10.7,0-2.4-4.2-1.6-5-2.1a7.76,7.76,0,0,1-1.4-2.7c-1-3-.1-4.9,1.1-7.4a28.8,28.8,0,0,1,2.4-4.6c1.6-2.3,6.1-5.4,6.2-8.7C259.6,185,258.6,186.51,258.7,184.81Z" transform="translate(-70.5 -95.61)"/><path d="M234.2,191.31c5.2,1.2,11.3,3.9,11,10.8-0.1,3.2-1.1,8.4-2.8,11.5-2.4,4.5-7.7,10.3-12.6,5a21.77,21.77,0,0,1-3.6-6,10.68,10.68,0,0,1,1.2-10.8c2-2.7,6-6.3,6.8-10.5C234.9,191.51,233.9,193,234.2,191.31Z" transform="translate(-70.5 -95.61)"/><path d="M74.1,194.21c3,0.1,5.9-1,9.4-.7,4,0.3,6.9,1.5,10.3,2.9,1.5,0.6,4.2,1.4,5.8,2.6,2.7,2.2,4.1,5.8,3.1,8.9-0.3,1.1-1.1,4.4-1.8,5.3-3.6,5-12,2-15.9-1.7-2.2-2.1-5.2-4.6-6.7-7.2-0.8-1.4-.5-3.2-1.2-5-0.6-1.4-2.5-3.2-3-5.1C74.6,194.21,74.3,195,74.1,194.21Z" transform="translate(-70.5 -95.61)"/><path d="M112.5,196.61a53.59,53.59,0,0,1,10.3,2.2,14.42,14.42,0,0,1,7.3,4.9c2.6,3.3,7,7.4,4.9,11.9-1.1,2.4-2.2,2.9-4.8,3.8a13.54,13.54,0,0,1-13.8-2.6c-5.3-5-2.7-12.1-6.6-18a2.88,2.88,0,0,0,2.7-2.2C113.8,196.71,112,197.91,112.5,196.61Z" transform="translate(-70.5 -95.61)"/><path d="M267.8,234.51c-2.7-.6-4.5-3.6-5.6-6a22.34,22.34,0,0,1-1.8-10.3c0.2-4.4,2.7-9.9,6.2-13.7,0.5-.5,3.5-4.3,4.4-4.2,1.4,0.1,4,4.7,4.9,5.9,3.2,4.7,4.1,11.8,3.1,17.5a10.05,10.05,0,0,1-3.5,6.6,40,40,0,0,1-3.1,2.7,7.5,7.5,0,0,1-3.1.8c-0.7.2-1.7-1.7-1.5,0.7C267.4,234.41,267.8,234,267.8,234.51Z" transform="translate(-70.5 -95.61)"/><path d="M306.7,225.91c-1.2,0-3.3,3.2-4.1,3.8a16.44,16.44,0,0,1-6,3.2c-6.4,1.5-10.3-3.9-9.1-9.7a17.15,17.15,0,0,1,4.3-8.6,28.28,28.28,0,0,1,7.1-5.5c1.8-1.1,5.8-1.9,7.1-3.8,2.9,2.6,3.2,6.7,3.2,10.7,0,3.7-1.6,6.5-2.5,9.9C306.5,225.91,306.8,225.31,306.7,225.91Z" transform="translate(-70.5 -95.61)"/><path d="M172.3,215.11c0,0.5,2.5,3.8,3,4.8a21.1,21.1,0,0,1,1.6,3.4,7.22,7.22,0,0,1-1.4,7.4c-1.8,1.9-2.9,1-5.3.7-5.3-.6-9.2-1.9-12.2-6.2-3.2-4.7-2.1-9.1-5.3-13.9,1.7-.4,1.4-4.2,1.2-5.5,3.8-1.4,7.6,2.2,10.1,3.6,1,0.6,1.8.9,3.1,1.6,1.5,0.8,3.7,3.6,5.2,4.1C172.3,215.21,171.2,214.71,172.3,215.11Z" transform="translate(-70.5 -95.61)"/><path d="M195.8,241.71c0.4-2.2-2.7-2.9-4.1-4.3-0.9-1-1.9-1.7-2.4-3.1-1.7-4.5-.7-10.2.5-14.4,1.3-4.7,5.2-15,12.2-9.6,3.3,2.5,4.5,9.6,4.6,13.2,0.1,6-.7,8.4-3.8,13.4-2.4,4-2.5,3.7-7,4.8C195.9,241.31,196.1,241.61,195.8,241.71Z" transform="translate(-70.5 -95.61)"/><path d="M258,239.61c-2.5.8-3.8,0.3-3.1,3.8-0.4,0-.4-0.6-1-0.7-1.3,2.5-.7,3.3-4.3,3.1a2.4,2.4,0,0,1-1.4-.2c-1.9-.9-3.3-4.3-4.1-6-2.7-5.9.2-12,1.9-17.2,0.8-2.4.6-4.6,4.1-3.1a25.67,25.67,0,0,1,5.2,3.4,17.79,17.79,0,0,1,4.8,7.3c0.9,3.7-2.5,6.2-2.1,9.6C257.7,239.61,257.9,238.91,258,239.61Z" transform="translate(-70.5 -95.61)"/><path d="M337.4,227.11c-0.1,1.8,1,3.5-.2,4.8,2-2-3.9,1.6-3.1,1.2-0.5.2-.6,1-1,1.2-2.9,1.8-6,4-8.6,4.8-5,1.5-13.4,3-17.8-1.4-4.1-4.2-1.8-6.3,1.2-9.8,2.3-2.7,5.7-4.7,8.9-6.5a13.92,13.92,0,0,1,13.2-.5c2.9,1.5,4.1,5.1,7.4,6.2C337.4,227.51,337.2,227,337.4,227.11Z" transform="translate(-70.5 -95.61)"/><path d="M209.5,250.11c-1.1-4.7-2.1-7.3-.5-11,1-2.3,2.9-4.4,4.3-6.2,3.9-4.9,7.7-9.2,13.7-10.2,7.2-1.2,4.5,4.4,4.6,8a23.31,23.31,0,0,1-1,8.6c-0.5,1.4-3,3.8-3.6,5-1.1,2.4-1.7,3.5-4.3,4.8-1.6.7-4.3,1.7-6.2,2.4a19.74,19.74,0,0,1-3.6,1c-2.5-.6-0.9-2.4-3.4-2.4C209.1,248.61,209.8,250.11,209.5,250.11Z" transform="translate(-70.5 -95.61)"/><path d="M152.6,252.81c1.1,0-3.7,2.4-3.8,2.4-0.9.4-1.6,1.1-3,.9a11.87,11.87,0,0,1-5.4-2.6c-3.8-3.5-4.5-10.7-3.6-15.6,0.5-3,0-6.9,2.4-9.1,0.1-.1.4-1.1,0.5-1.2,1.2-.7,4.9.7,6.2,1.4,1.5,0.8,3,2.7,4.2,4.1,4.6,5.3,4.1,12.6,2.5,19.7C152.5,252.81,152.8,252.11,152.6,252.81Z" transform="translate(-70.5 -95.61)"/><path d="M104.4,227.81c10.4-.2,15.2,2.3,20.4,9.8a15.17,15.17,0,0,1,2.4,7.7c0.4,4.1-.7,7.9-5.4,6.7-4-1-9.8-4.8-12.1-8.4-3.2-4.8-3.5-10.3-5.3-15.8C107.9,227.71,104.5,228.31,104.4,227.81Z" transform="translate(-70.5 -95.61)"/><path d="M312,248.21c-1.4,5.2-9.4,8.1-13.2,8.6a30.84,30.84,0,0,1-10.6-.6,13.35,13.35,0,0,0-1.2-.6c-0.9-.2-0.9-0.5-1.8-0.7-2.1-.5.4,1.2-1.6,0.3-3.4-1.4-4.7-4.3-7.2-5.9-0.8-.5-3.4-1.6-3.1-3.1,0,0.3,4.6-3.6,4.8-3.6,0,0.4,0,1,.5,1,0-3.5,6.2-4.8,8.9-4.8,3.8,0,6.7,1.4,9.6,2.2a29.85,29.85,0,0,1,8.4,2.9c2.2,1.2,3,3.6,6.5,4.3C311.7,249.31,311.6,248.11,312,248.21Z" transform="translate(-70.5 -95.61)"/><path d="M90.2,238.81c7.1-.1,13.7,2.6,17,6.7,2.5,3.1,1.5,3.1,1.2,6.5-0.1.9,0.6,2.4,0.1,3.4-1.5,2.6-3.1.7-5,1.4-3.2,1.2-6.3,1.1-10.8-.2a12,12,0,0,1-6.2-4c-2-2.3-3.3-5-4.6-6.8-1.2-1.6-3.8-2.6-2.6-4.2a12.9,12.9,0,0,1,3.1-.8c1.8-.5,6.3-0.5,7.8-2C93.4,238.81,89.5,239.51,90.2,238.81Z" transform="translate(-70.5 -95.61)"/><path d="M267.8,243.61c0.8,4.2-3.3,4.7-4.3,8.4,1,0,3.3,1.3,4.1,1.4,1.4,0.3,3.5.2,5.3,0.7,3.4,0.9,6,4.7,8,7.4,1.2,1.6,5.4,11.3,6.6,11.3-0.3.8-3,1.8-.2,2.4-4.4,4.4-12.1,1.3-16.9-1-6.4-3-5.3-10-7.8-15.1-2.8-5.7-3.8-.8-6,2.2-3.1,4.1-6.4,9.1-10.6,12.4-1.7,1.3-4.2,2.3-6.1,3.8s-3.4,3.2-5.1,4.6c-2.3,1.9-9.3,3.7-10.1,7.6-3.1-3.1-3.4,5.7-3.6,7.2-0.4,3.8,0,10.1-.2,13.3a70.54,70.54,0,0,0,1.2,16.4c0.9,4,.5,6.2,3.8,5.3,2.6-.7,5.2-2.2,7.8-3.1,0.6-.2,1-1,1.6-1.2s0.7,0.6,1.7.2c0.8-.2,2.1-0.9,2.9-1.2,2.9-1,5.4-5.3,3.1-8.9-1.7-2.7-7.5-.8-10.3-1.4-1.8-.4-11.4-5-5.8-6.2,0-1-4.2-4-.5-3.4,0-1.6-.9-3.5-1-5.3,1.1,0,2.1,1,2.9,1.4,3.6,2.1,3.9,3.5,8.9,4.3-0.7-3.4-3.3-5.2-3.8-8.2-0.8-4.3-.6-8.8-1-14.4,0.6,0,1.9,2,1.9,0,2.2,0,3.5,1.2,5.8,1.9a5.73,5.73,0,0,1,1-1.9,4.39,4.39,0,0,0,2.9,1.7c-0.7,4.4-3.3,9.1-2.8,14,0.5,4.1,1,3.7,4.4,3a23.69,23.69,0,0,1,8.4,0c2.2,0.5,4.8,1.7,6.1.8,2.5-1.8,2.4-4.5,6.4-3.4,1.8,0.5,3.1,1.5,4.7,1.9,0.9,0.2,5.3-1,4,1.8-0.2.5-2.6-.1-3.7,0.9-3.7,3.5,4.2,4.5,3.4,7.6-2.6-.7-4.2-2.6-6.5-2.9-4-.6-6.3,3-9.1,4.6-2,1.1-5.4,1-7.4,2.6-1.1.9-2.6,6.2-3.8,6.2,0.1-.3,16.2.3,17.5,0.7,2.1,0.7,3.8,2.6,6.2,3.1,1.1,0.2,3.4-.4,4.6.4a4.85,4.85,0,0,1,1.4,2.5c1.3,0.9,2.3.1,3.8-.1,6.3-.9,11.7,1.2,14.8,7.1,1.1,2.2,3.6,6.6,1.6,8.8-2.6,3.1-8,1.7-10.9.7-4.1-1.4-7.3-6.2-11.3-9.4-1.3-1-3-.4-3.6-2.4a2.13,2.13,0,0,1,1.2-.7,20,20,0,0,0,.5-2.7c-0.1-1.5,1.5-.4-0.8-0.9-2.9-.7-7.3-0.5-10.1-0.4-1.3.1-6.9,0.5-7,1.9,0,0.4,4.5,4.1,5.2,4.7,4.5,3.9,13.7,11.9,9.7,18.5s-12.6-.5-14.4-4.8a20.64,20.64,0,0,1-1.7-6c-0.2-2.9.8-7.1,0.1-9.4-1.3-4.4-4.2-1.7-7-.4a31.76,31.76,0,0,0-5.5,3.4c-5.3,4-9.9,9-14.5,14.4-8.6,10-3.8,23.2-6.4,35.5-0.5,2.2-2,4.3-2.6,6.7-0.8,3.5-.1,8.8.1,11.8,0.4,7.3-.7,16.2-0.7,23.5,0,4.7-.7,8.7-0.7,12.5,0,3.5.7,8.6,1,12.2a123.78,123.78,0,0,0,3.5,20.4c1.1,4.4,3.2,10.8,4.8,15.1,2,5.2,2.8,9.2,5.6,13.9a8.22,8.22,0,0,1,1.6,3.4c0.2,1.9-2.8-1.8-1.1,2.1a12.14,12.14,0,0,0-1.4,1s-2.5-.3-2.7-0.3c-0.7-.1-2.2-1.2-2.9-1.4-2.6-.7-3.2.5-5.1-0.2-1.5-.5-2.9-2.6-4.1-3.3-2.4-1.4-2-.5-4.1.4-0.4.2-4.1-.3-4.5,0.1-1,.9,1.3,3-2.1,3.2,0-1.8-3.7-1.3-2.4,1.4-2.3-.3-2.6.2-4.8-1.2-0.6-.4-2.3-2.7-2.9-2.9-1.2-.3-2.6,1.7-4.2,1.3-1-.2-2.3-2.3-3.1-2.8-1.5-.9-1.9-0.8-4,0.1-1.8.8-2.9,2-4.8,2.3-2.1.3-5.8-1.3-5.8,2.6-4.6,0-8.4.3-12-4.1,7.1-.4,7.1-7.8,8.4-11.6,2.2-6.5,5.3-14.8,7.4-20.5,2.8-7.5,3.6-16,4.6-25.4,1.1-10.8,1.3-20.3,1.7-31.7,0.2-8,1.1-15.7,1-23.2-0.1-9.3,2.3-18.1,2.2-27.2-0.1-7.9.2-14.5-3.2-20.4-1.1-1.8-2.2-4.1-3.5-5.8-2.4-3.1-6.3-5-8.9-7.2-5.3-4.6-11.1-9.3-17-10.9a35.35,35.35,0,0,0-11-1.3c-4.7.2-8.2,0-11.3-4.1a78.32,78.32,0,0,0,10.1-1.7c3-.6,5.1.1,5.5-3.4a12,12,0,0,1-8-9.6c-0.2-1.9-.7-5.4-0.1-7.2,0.5-1.5,2.4-.6,1.4-2.6,5.4,0,11.1,4.2,12.5,8.6,0.5,1.6,2.3,10.3-1.7,10.3,0.7,2.1,6,2.7,7.9,3.1,1.5,0.3,3.5.9,5.2,1.4,4.2,1.3,9,4.4,13.1,6.5,1.5,0.8,6.1,5.1,7.1,4.1,0.6-.6.6-6.1,0.6-6.7a26.79,26.79,0,0,1,.2-5.5,1.81,1.81,0,0,0,1.4,1c0.3-.8-0.2-1.6-0.5-2.4a3.13,3.13,0,0,0-1,.5c0-.9-0.2,1.1-0.2-1.4a3.13,3.13,0,0,1,1,.5c0-8.6.8-15.8-5-22.4a21.34,21.34,0,0,0-5.3-4.2,21.41,21.41,0,0,0-2.7-1.6c-0.8-.3-1.5.2-2.1-0.1-2.2-1.1-5.9-4.5-8.9-4.3,0-3-3.2-6.9-4.3-9.1s-3.3-4.3-3.8-6.5c3,0.5,4.1.1,6.2,1,2.8,1.1,6,1.7,8.4,3.1,3.5,2,7,4.1,10.6,6.2,3.2,2,9,6.3,13.2,4.9,5.9-1.9,2.2-14.2,1-18.4-0.4-1.5-1.7-4-2.2-5.8-0.4-1.5-2.7-6.5-1.8-7.8,1.1-1.6,1.7.8,2.8,1.1,3.1,0.9,1.2-.4,2.9-0.7,2.4-.5,3.6-0.3,6,1.2s4.9,1.3,6.8,3.8c1.5,2,1.4,5.7,2.3,7.7a44.06,44.06,0,0,0,3.6,6.4c4,5.7,8.9,6.7,14.9,2.8,7.1-4.7,12.3-10.8,19.4-15.8,2.6-1.8,5.5-6.3,8.6-7.2,0.9-.3,8.9-0.1,8.9-3.1-0.4.5,3.3,0.6,1.3,0.6C268,244.41,267.4,243.61,267.8,243.61Z" transform="translate(-70.5 -95.61)"/><path d="M186,261.21c-4.4,0-6.9,3.4-12.5,2.6-1.8-.3-3.5-1.6-5-2.4a14.17,14.17,0,0,1-4.3-2.9c-0.7-.8-4.3-8.6-3.8-8.6,0.2-1.4.7-1.7,0.7-3.8,2.7,0.1,4.4-1.2,6.7-1.4a27.39,27.39,0,0,1,10.7,1.2c6.4,2.2,7.5,9.9,7.5,15.3C185.5,261.21,186,260.71,186,261.21Z" transform="translate(-70.5 -95.61)"/><path d="M132.5,265.51a15.69,15.69,0,0,1-8.9,12.6,21.46,21.46,0,0,1-6.2,2,17.91,17.91,0,0,1-4.2-.5c-2-.5-3.9-1.9-6.1-1.3-1.8-7,3.2-10.9,8.6-13.2a16.59,16.59,0,0,1,4.1-1.4c1.7-.3,4.9-1.1,7.2-0.7,1.7,0.1,3,2,5.5,2.5C132.4,266.31,131.5,265.31,132.5,265.51Z" transform="translate(-70.5 -95.61)"/><path d="M153.3,267.61c1.9,12.1-7.3,21.1-19.7,19.2-3.5-.5-3.8-4.9-2.3-8.5,1.5-3.4,3.6-4.3,6-6.2a26.44,26.44,0,0,1,7.1-4.3c3.5-1.2,4.2-.7,8.9-0.2C153.4,268.21,151.5,267.41,153.3,267.61Z" transform="translate(-70.5 -95.61)"/><path d="M295.9,277.71c0.6,1.8,3.7.5,4.6,1.7,2.2,3.2-3.9.3-4.6,0.9-3.5,3,2.9,7.2,5,7.2,0,1-1.7.2-2.4,0.2-2.9,0-2.9-1.6-4.1,1.3-0.9,2,.9,6.5,0,8.4-1.1,2.3-5.2,4.1-7.4,1.2-2.4-3.1,1.2-5.3,3.6-6.5a2.17,2.17,0,0,0,1.4,1.4c0-4.4,1.7-9,1.2-13.7a16.4,16.4,0,0,1-.5-3.6c1.2-1.4,2.1,1.3,3.2,1.5C296,278,295.3,277.61,295.9,277.71Z" transform="translate(-70.5 -95.61)"/><path d="M324,288c0,3.6,6.2,2.3,7,4.6-2.5,0-7-1.3-5.6,3.1,0.6,1.8.3,1.8,2,2.4,0.6,0.2,5.3-1.1,3.6,1.2-3.2,4.2-5.3-4.5-5.8,3-0.2,2.6.2,7.5-2.1,9-3.2,2.2-4.4-1.8-4.1-4.1,0.1-.7,3.4-5.4,3.4-3.8,1.9-.6.4-11.5,0.6-13,0.1-1.8-1.1-2.4,1-2.4C324,288.21,323.8,288,324,288Z" transform="translate(-70.5 -95.61)"/><path d="M309.6,293.31c0,3.4,5.8,3.1,5.8,5.8-0.9.4-4.2-.4-4.6,0-1.1,1-.9,4.4-1,5.5-0.2,3.1-.2,8.7-2.7,11.1-2.4,2.2-5.2,1.2-6.3-1.9-0.8-2.2-.1-4.5,2.1-5.1,1.9-.5,1.9,1,4.2,1.7,0-6,2.6-12.5.5-18.2a1.71,1.71,0,0,1,2,1.1C309.6,293.51,308.9,293.11,309.6,293.31Z" transform="translate(-70.5 -95.61)"/><path d="M119.5,305.31c-0.7-2-2.6-3.6-3.6-5.8-2.5-5.5.5-5.4,4.6-5.3,5.7,0.1,9.1,1.5,13.1,4.9,2,1.7,4.1,5.6,3.4,8.3-0.6,2-5.8,2.5-8,2.6s-2.2.1-4.4-1.3c-1.7-1-3.2-2.9-5.1-3.4C119.4,305.11,120,305.51,119.5,305.31Z" transform="translate(-70.5 -95.61)"/><path d="M145.9,313.51c-0.5-.1-0.6-0.3-0.2-0.7,0.4-.1.4,0.1,0.2,0.7C145.2,313.21,145.9,313.21,145.9,313.51Z" transform="translate(-70.5 -95.61)"/><path d="M295.9,317.31c0.2,2.3,1,1.9.1,4a7.88,7.88,0,0,1-4.7,4.4c-3.7,1.4-7.8.8-11.2,0.6-3.7-.2-7.3-1.6-9.5-4.9,1,0,2-1.6,2.6-2.2a23.3,23.3,0,0,1,6.7-4.3c1.5-.6,2.5-1.5,4.1-1.7a9.41,9.41,0,0,1,5.9.8c1.8,0.7,3.5,2.8,6,3.3C296,318.61,294.2,317,295.9,317.31Z" transform="translate(-70.5 -95.61)"/><path d="M125.5,315.41c0.1,1.6,1.6,1.8,1.9,3.1s-0.5,3.1-.7,3.8c-0.8,3.2-1.7,4.3-4.3,5.8-4.2,2.4-8,3.2-13.8,3.1-4.5-.1-2.6-1.5-1.1-4.3,1-1.8,1.4-3.8,2.9-5.6a30,30,0,0,1,4.6-4c1.9-1.5,3.7-3.4,6.5-3.1a7.79,7.79,0,0,0,1.9,1.4c1.2,0.2.8,0.1,2.1-.2C125.6,316.61,125.2,315.51,125.5,315.41Z" transform="translate(-70.5 -95.61)"/><path d="M301.9,314.71c-0.1.3-.2,1,0.5,0.7,0-.6.4-0.5-0.5-0.7C301.8,314.81,302.4,314.81,301.9,314.71Z" transform="translate(-70.5 -95.61)"/><path d="M247.2,317.11c0,1.5-2.9,5.2-3.4,7.7,3.7,1.3,6.7-5.8,3.4-7.7C247.2,317.21,247.8,317.51,247.2,317.11Z" transform="translate(-70.5 -95.61)"/><path d="M126.9,347.31c-1.7-8.5,2.7-26,15.2-22.1,2,0.6,4.5,4,4.4,6.5-0.1,3.7-2.7,6-5,7.9-5.8,4.9-8,6-14.6,7.7C126.9,346.91,127.5,347.21,126.9,347.31Z" transform="translate(-70.5 -95.61)"/><path d="M185.7,391.51c-0.4,1.1-.3,1.4.7,1.7,0.1-.9.8-1-0.7-1.7C185.6,391.91,186.1,391.61,185.7,391.51Z" transform="translate(-70.5 -95.61)"/></svg>